<?xml version="1.0" encoding="UTF-8"?>
<svg id="_Слой_2" data-name="Слой 2" xmlns="http://www.w3.org/2000/svg" viewBox="0 0 3098.45 1078.5">
  <defs>
    <style>
      .cls-1 {
        fill: #b7b7b7;
        opacity: 0.6;
      }

      .cls-2 {
        fill: #b2b2b2;
        opacity: 0.6;
      }

      .cls-3 {
        fill: #8e8e8e;
        opacity: 0.6;
      }

      .cls-4 {
        fill: #c1c1c1;
        opacity: 0.6;
      }

      .cls-5 {
        fill: #999;
        opacity: 0.6;
      }
    </style>
  </defs>
  <g id="Object">
    <g>
      <path class="cls-5" d="M327.48,1053.38c8.59,2.57,16.05,4.81,24.9,7.46-6.64,6.18-12.28,11.44-18.95,17.66-2.09-8.82-3.87-16.35-5.95-25.12Z"/>
      <path class="cls-1" d="M90.37,1073.87c3.24-9.1,6.06-16.99,9.4-26.37,6.28,7.48,11.63,13.83,17.94,21.35-9.61,1.76-17.8,3.26-27.34,5.01Z"/>
      <path class="cls-4" d="M89.86,46.89c-15.46-5.3-29.75-10.2-45.22-15.5C56.94,20.7,68.49,10.66,80.76,0c3.05,15.73,5.96,30.7,9.1,46.89Z"/>
      <path class="cls-5" d="M.07,826.29H46.73c-10.57,18.41-20.64,35.96-30.93,53.88-5.52-8.36-10.63-16.09-15.74-23.82,0-10.02,0-20.04,0-30.06Z"/>
      <path class="cls-5" d="M.07,454.08c6.44-5.81,12.88-11.63,19.96-18.01,5.61,20.21,11.1,40.02,16.82,60.62-12.91-2.9-24.85-5.58-36.78-8.26,0-11.45,0-22.91,0-34.36Z"/>
      <path class="cls-1" d="M.07,173.49c6.76-3.82,13.51-7.64,21.4-12.1v57.92c-7.1-3.8-14.25-7.63-21.4-11.46,0-11.45,0-22.91,0-34.36Z"/>
      <path class="cls-1" d="M.07,233.62c7.01,2.08,14.01,4.15,21.03,6.23-6.51,5.97-12.88,11.82-19.38,17.79,.18,.28-.73-1.13-1.65-2.55,0-7.16,0-14.32,0-21.47Z"/>
      <path class="cls-3" d="M.07,615.84c7.22,4.72,14.43,9.45,22.53,14.75-8.28,4.05-15.4,7.54-22.53,11.02,0-8.59,0-17.18,0-25.77Z"/>
      <path class="cls-1" d="M.07,690.29c5.27,2.97,10.54,5.93,16.97,9.55-6.34,3.39-11.66,6.22-16.97,9.06,0-6.2,0-12.41,0-18.61Z"/>
      <path class="cls-2" d="M.07,1049.61H10.99c-3.29,7.44-6.39,14.46-9.49,21.47-.48-4.29-1.07-8.58-1.39-12.89-.21-2.85-.04-5.72-.04-8.59Z"/>
      <path class="cls-5" d="M89.36,174.99c-15.74,13.72-30.37,26.48-45.8,39.93-3.96-20.2-7.68-39.18-11.66-59.52,19.59,6.68,37.9,12.92,57.46,19.59Z"/>
      <path class="cls-1" d="M98,107.95c-1.38,20.34-2.65,39.14-4.03,59.49-16.87-11.36-32.7-22.03-49.51-33.35,17.96-8.77,35.05-17.12,53.54-26.15Z"/>
      <path class="cls-1" d="M59.23,282.12c-3.83,17.8-7.33,34.07-11.16,51.85-13.22-11.93-25.79-23.26-39.37-35.52,17.08-5.52,33.16-10.72,50.53-16.33Z"/>
      <path class="cls-1" d="M61.06,217.38c6.49,14.41,12.59,27.96,19.31,42.88-15.91-1.61-30.76-3.11-46.8-4.73,9.48-13.16,18.19-25.24,27.49-38.15Z"/>
      <path class="cls-5" d="M120.65,659.84c13.35,9.01,25.65,17.31,39.02,26.34-14.29,6.97-27.56,13.45-42.29,20.64,1.11-15.92,2.13-30.64,3.26-46.97Z"/>
      <path class="cls-1" d="M119.79,838.36c-3.4,15.76-6.52,30.22-9.9,45.9-11.74-10.71-22.69-20.7-34.56-31.52,15.13-4.89,29.13-9.43,44.46-14.38Z"/>
      <path class="cls-5" d="M3.94,1021.27c10.2-12.11,19.51-23.16,29.72-35.27,5.27,14.59,10.19,28.21,15.61,43.19-15.3-2.67-29.56-5.16-45.33-7.91Z"/>
      <path class="cls-1" d="M109.34,725.24c-13.45-3.46-25.3-6.51-37.99-9.78,9.81-8.81,19.08-17.13,28.04-25.17,2.75,9.65,6.13,21.53,9.95,34.95Z"/>
      <path class="cls-1" d="M159.49,670.51v-38.16c11.17,6.38,21.64,12.35,33.07,18.88-11.23,6.55-21.56,12.57-33.07,19.28Z"/>
      <path class="cls-5" d="M165.16,935.33c-11.98,4.24-22.8,8.07-34.69,12.27,2.28-12.42,4.35-23.69,6.63-36.09,9.67,8.21,18.41,15.63,28.06,23.81Z"/>
      <path class="cls-1" d="M104.83,526.47c1.47-12.4,2.77-23.37,4.22-35.55,9.86,7.38,18.87,14.13,28.62,21.42-11.06,4.76-21.23,9.14-32.83,14.13Z"/>
      <path class="cls-1" d="M43.36,780.62c.74,12.18,1.4,23.16,2.14,35.35-10.92-5.46-20.82-10.41-31.68-15.85,10.1-6.67,19.3-12.74,29.55-19.5Z"/>
      <path class="cls-2" d="M81.98,315.17c11.22-3.68,20.88-6.84,32.02-10.49-2.34,11.31-4.46,21.58-6.89,33.36-8.59-7.81-16.36-14.89-25.13-22.87Z"/>
      <path class="cls-1" d="M299.89,30.78c5.99,9.25,11.44,17.66,17.68,27.3-11.22,.53-21.04,.99-32.32,1.51,5.05-9.95,9.59-18.88,14.64-28.81Z"/>
      <path class="cls-1" d="M311.43,121.48c-11.07,2.12-20.75,3.97-31.54,6.03,3.51-10.32,6.69-19.64,10.3-30.22,7.14,8.12,13.72,15.62,21.25,24.19Z"/>
      <path class="cls-1" d="M229.8,235.78c-10.93,.87-20.16,1.6-30.92,2.45,4.53-9.64,8.57-18.25,13.16-28.01,6.09,8.76,11.53,16.6,17.76,25.56Z"/>
      <path class="cls-1" d="M306.58,659.44c6.44,8.92,11.94,16.55,18.11,25.09-10.47,1.12-19.8,2.11-30.78,3.28,4.41-9.87,8.28-18.53,12.67-28.37Z"/>
      <path class="cls-1" d="M135.98,764.09c-1.46-10.23-2.75-19.3-4.21-29.52,9.35,3.75,17.8,7.14,27.74,11.12-8.01,6.27-15.29,11.96-23.52,18.4Z"/>
      <path class="cls-1" d="M321.82,390.98c-6.25-7.93-11.82-14.98-18.25-23.14,10.06-1.47,19.03-2.78,29.21-4.26-3.84,9.59-7.22,18.06-10.96,27.4Z"/>
      <path class="cls-5" d="M242.75,178.01c6.36-8.13,11.72-14.98,17.81-22.76,3.72,9.1,7.01,17.14,10.86,26.55-9.83-1.3-18.55-2.45-28.67-3.79Z"/>
      <path class="cls-5" d="M223.7,469.81c-8.15,5.45-15.12,10.11-22.91,15.32-.71-9.36-1.32-17.56-2.05-27.18,8.47,4.03,15.98,7.6,24.96,11.87Z"/>
      <path class="cls-1" d="M53.95,476.89c9.48,1.12,17.86,2.1,27.56,3.24-5.67,7.58-10.73,14.34-16.75,22.38-3.74-8.88-7.06-16.73-10.81-25.63Z"/>
      <path class="cls-1" d="M93.89,565.89c8.95,4.38,16.29,7.97,24.51,12-7.64,5.16-14.46,9.77-22.63,15.29-.65-9.34-1.21-17.55-1.89-27.28Z"/>
      <path class="cls-2" d="M121.84,30.42c8.18-4.86,15.15-9,23.12-13.74v26.59c-7.44-4.13-14.53-8.08-23.12-12.86Z"/>
      <path class="cls-3" d="M395.49,728.29c4.52,8,8.43,14.91,12.77,22.6h-25.92c4.5-7.74,8.47-14.55,13.15-22.6Z"/>
      <path class="cls-1" d="M151.67,238.22c.56,9.23,1.02,16.94,1.56,25.87-7.99-4.04-15.03-7.6-23.28-11.78,7.54-4.89,14.11-9.16,21.72-14.09Z"/>
      <path class="cls-3" d="M180.37,158.9c3.97,8.15,7.34,15.1,11.27,23.18-8.89-.65-16.56-1.21-25.6-1.88,4.86-7.23,9.16-13.62,14.32-21.3Z"/>
      <path class="cls-1" d="M191.67,531.14c9.12-1.44,16.53-2.62,25.08-3.97-3.1,8.21-5.81,15.37-8.97,23.71-5.61-6.86-10.47-12.82-16.12-19.73Z"/>
      <path class="cls-1" d="M322.44,582.36c-3.35,8-6.24,14.9-9.57,22.88-5.13-6.85-9.6-12.83-14.95-19.97,8.69-1.03,16.07-1.91,24.52-2.91Z"/>
      <path class="cls-1" d="M157.01,901.32h-23.23c4-6.96,7.46-13,11.72-20.42,4.01,7.12,7.49,13.29,11.5,20.42Z"/>
      <path class="cls-2" d="M161.11,1044.26c6.92-4.61,12.93-8.61,20.06-13.36,.49,8.4,.91,15.53,1.4,23.98-7.54-3.73-13.97-6.91-21.46-10.61Z"/>
      <path class="cls-2" d="M333.7,218.76c5.93-4.85,11.04-9.02,17.23-14.08,1.24,7.59,2.31,14.18,3.58,21.97-7.36-2.79-13.61-5.16-20.81-7.89Z"/>
      <path class="cls-1" d="M124.82,192.22c-6.08-3.39-11.59-6.47-18.23-10.18,6.34-3.88,11.82-7.23,18.23-11.16v21.34Z"/>
      <path class="cls-3" d="M7.58,92.04c6.21,3.57,11.68,6.7,18.22,10.46-6.41,3.75-11.94,6.99-18.22,10.66v-21.12Z"/>
      <path class="cls-1" d="M26.5,413.85c-7.36,.86-13.55,1.58-21.22,2.48,2.96-6.86,5.48-12.72,8.49-19.69,4.37,5.91,8.2,11.09,12.73,17.22Z"/>
      <path class="cls-5" d="M456.98,50.92c6.88-1.67,12.73-3.09,19.79-4.8-2.09,6.86-3.85,12.62-5.92,19.4-4.88-5.14-9.04-9.53-13.86-14.6Z"/>
      <path class="cls-1" d="M379.96,148.24c3.06,6.51,5.6,11.9,8.6,18.26-6.97-.61-12.76-1.12-19.72-1.73,3.86-5.73,7.18-10.66,11.13-16.53Z"/>
      <path class="cls-2" d="M32.52,750.84v-18.76c5.42,2.96,10.46,5.72,16.46,9-5.73,3.4-10.65,6.32-16.46,9.76Z"/>
      <path class="cls-3" d="M100.6,1022.38c-4.63,5.24-8.46,9.58-12.88,14.59-2.15-6.2-3.98-11.5-6.31-18.21,6.67,1.26,12.4,2.34,19.19,3.62Z"/>
      <path class="cls-1" d="M80.68,840.33c-6.69,.71-12.08,1.27-18.64,1.96,2.62-6.08,4.82-11.19,7.47-17.35,3.82,5.26,7.1,9.78,11.17,15.39Z"/>
      <path class="cls-1" d="M41.33,916.08c-6.41-1.76-11.7-3.2-17.1-4.69,4.23-4.33,8.05-8.25,12.46-12.76,1.46,5.5,2.9,10.91,4.64,17.45Z"/>
      <path class="cls-2" d="M147.67,546.24c6.7-.51,12.02-.92,18.54-1.42-2.79,5.84-5.17,10.83-7.97,16.68-3.6-5.2-6.67-9.63-10.57-15.25Z"/>
      <path class="cls-1" d="M61.87,547.37c-6.66,1.37-11.87,2.45-18.29,3.77,1.89-6.07,3.51-11.3,5.55-17.84,4.38,4.83,8.06,8.89,12.75,14.07Z"/>
      <path class="cls-2" d="M380.52,415.39c1.83-5.9,3.34-10.73,5.2-16.72,4.21,4.62,7.75,8.51,12,13.18-6.14,1.26-11.07,2.28-17.2,3.54Z"/>
      <path class="cls-1" d="M254.86,716.82c-3.54,4.82-6.5,8.85-10.22,13.91-2.42-5.84-4.32-10.45-6.6-15.96,5.99,.73,10.8,1.32,16.82,2.05Z"/>
      <path class="cls-3" d="M420.04,288.93c-2.58,5.6-4.53,9.85-6.93,15.05-3.35-4.64-6.25-8.66-9.9-13.71,6.05-.48,10.87-.87,16.83-1.34Z"/>
      <path class="cls-1" d="M85.89,950.35c3.17,5.56,5.59,9.79,8.32,14.59h-16.56c2.78-4.92,5.17-9.16,8.24-14.59Z"/>
      <path class="cls-1" d="M135.18,120.01c-6.17,.47-10.93,.82-16.78,1.27,2.52-5.34,4.58-9.72,7.1-15.07,3.25,4.63,6.03,8.59,9.68,13.8Z"/>
      <path class="cls-1" d="M547.19,440.23c-4.07,4.37-7.23,7.77-11.03,11.85-1.77-5.43-3.2-9.81-5.04-15.43,5.68,1.27,10.22,2.28,16.07,3.58Z"/>
      <path class="cls-1" d="M72.84,638.55c-2.83-4.19-4.98-7.37-7.81-11.55,4.91-.46,8.77-.82,14.05-1.31-2.23,4.6-3.97,8.18-6.25,12.87Z"/>
      <path class="cls-1" d="M197.57,754.19c4.32,2.42,7.75,4.34,12.03,6.73-4.28,2.63-7.75,4.76-12.03,7.39v-14.12Z"/>
      <path class="cls-5" d="M11.86,25.1c-1.77-4.17-3.2-7.56-5.15-12.18,4.68,.42,8.39,.76,13.64,1.24-3.22,4.15-5.57,7.18-8.49,10.94Z"/>
      <path class="cls-2" d="M304.36,827.78c-.9-4.89-1.56-8.46-2.46-13.32,4.42,1.54,7.82,2.72,12.54,4.35-3.54,3.14-6.32,5.62-10.08,8.97Z"/>
      <path class="cls-3" d="M234.03,619.32c-3.32,3.66-5.68,6.26-8.71,9.61-1.42-4.26-2.56-7.64-4.1-12.26,4.76,.98,8.34,1.73,12.81,2.65Z"/>
      <path class="cls-1" d="M193.58,977.43c2.17-3.81,3.86-6.77,5.98-10.49,2.28,3.87,4.02,6.81,6.19,10.49h-12.17Z"/>
      <path class="cls-2" d="M123.94,443.92c-4.11-1.4-7.21-2.45-11.56-3.93,3.19-2.84,5.7-5.09,9.2-8.21,.87,4.48,1.54,7.95,2.36,12.15Z"/>
      <path class="cls-3" d="M261.29,1000.82c-4.39,1.46-7.48,2.49-11.89,3.95,.82-4.2,1.46-7.44,2.38-12.14,3.4,2.93,5.95,5.12,9.51,8.19Z"/>
      <path class="cls-2" d="M298.16,507.55c-2.1,3.64-3.69,6.38-5.92,10.23-1.99-3.81-3.52-6.75-5.34-10.23h11.26Z"/>
      <path class="cls-2" d="M254.59,285.51h11.2c-1.88,3.39-3.47,6.27-5.5,9.91-2.16-3.75-3.76-6.53-5.71-9.91Z"/>
      <path class="cls-1" d="M205.6,31.12c-3.96,1.34-6.75,2.29-10.36,3.51,.67-3.73,1.17-6.59,1.88-10.57,2.97,2.47,5.18,4.31,8.48,7.05Z"/>
      <path class="cls-1" d="M202.3,372.91c3.92-1.74,6.4-2.85,9.63-4.28-.21,3.6-.37,6.3-.61,10.28-3.26-2.16-5.65-3.76-9.02-6Z"/>
      <path class="cls-2" d="M221.05,877.47v-10.12c2.84,1.49,5.29,2.78,8.91,4.68-3.36,2.05-5.76,3.51-8.91,5.44Z"/>
    </g>
    <g>
      <path class="cls-5" d="M2770.98,1053.38c-8.59,2.57-16.05,4.81-24.9,7.46,6.64,6.18,12.28,11.44,18.95,17.66,2.09-8.82,3.87-16.35,5.95-25.12Z"/>
      <path class="cls-1" d="M3008.09,1073.87c-3.24-9.1-6.06-16.99-9.4-26.37-6.28,7.48-11.63,13.83-17.94,21.35,9.61,1.76,17.8,3.26,27.34,5.01Z"/>
      <path class="cls-4" d="M3008.6,46.89c15.46-5.3,29.75-10.2,45.22-15.5C3041.51,20.7,3029.96,10.66,3017.7,0c-3.05,15.73-5.96,30.7-9.1,46.89Z"/>
      <path class="cls-5" d="M3098.39,826.29c-15.12,0-30.24,0-46.66,0,10.57,18.41,20.64,35.96,30.93,53.88,5.52-8.36,10.63-16.09,15.74-23.82,0-10.02,0-20.04,0-30.06Z"/>
      <path class="cls-5" d="M3098.39,454.08c-6.44-5.81-12.88-11.63-19.96-18.01-5.61,20.21-11.1,40.02-16.82,60.62,12.91-2.9,24.85-5.58,36.78-8.26,0-11.45,0-22.91,0-34.36Z"/>
      <path class="cls-1" d="M3098.39,173.49c-6.76-3.82-13.51-7.64-21.4-12.1,0,19.66,0,38.39,0,57.92,7.1-3.8,14.25-7.63,21.4-11.46,0-11.45,0-22.91,0-34.36Z"/>
      <path class="cls-1" d="M3098.39,233.62c-7.01,2.08-14.01,4.15-21.03,6.23,6.51,5.97,12.88,11.82,19.38,17.79-.18,.28,.73-1.13,1.65-2.55,0-7.16,0-14.32,0-21.47Z"/>
      <path class="cls-3" d="M3098.39,615.84c-7.22,4.72-14.43,9.45-22.53,14.75,8.28,4.05,15.4,7.54,22.53,11.02,0-8.59,0-17.18,0-25.77Z"/>
      <path class="cls-1" d="M3098.39,690.29c-5.27,2.97-10.54,5.93-16.97,9.55,6.34,3.39,11.66,6.22,16.97,9.06,0-6.2,0-12.41,0-18.61Z"/>
      <path class="cls-2" d="M3098.39,1049.61h-10.92c3.29,7.44,6.39,14.46,9.49,21.47,.48-4.29,1.07-8.58,1.39-12.89,.21-2.85,.04-5.72,.04-8.59Z"/>
      <path class="cls-5" d="M3009.1,174.99c15.74,13.72,30.37,26.48,45.8,39.93,3.96-20.2,7.68-39.18,11.66-59.52-19.59,6.68-37.9,12.92-57.46,19.59Z"/>
      <path class="cls-1" d="M3000.46,107.95c1.38,20.34,2.65,39.14,4.03,59.49,16.87-11.36,32.7-22.03,49.51-33.35-17.96-8.77-35.05-17.12-53.54-26.15Z"/>
      <path class="cls-1" d="M3039.23,282.12c3.83,17.8,7.33,34.07,11.16,51.85,13.22-11.93,25.79-23.26,39.37-35.52-17.08-5.52-33.16-10.72-50.53-16.33Z"/>
      <path class="cls-1" d="M3037.39,217.38c-6.49,14.41-12.59,27.96-19.31,42.88,15.91-1.61,30.76-3.11,46.8-4.73-9.48-13.16-18.19-25.24-27.49-38.15Z"/>
      <path class="cls-5" d="M2977.8,659.84c-13.35,9.01-25.65,17.31-39.02,26.34,14.29,6.97,27.56,13.45,42.29,20.64-1.11-15.92-2.13-30.64-3.26-46.97Z"/>
      <path class="cls-1" d="M2978.67,838.36c3.4,15.76,6.52,30.22,9.9,45.9,11.74-10.71,22.69-20.7,34.56-31.52-15.13-4.89-29.13-9.43-44.46-14.38Z"/>
      <path class="cls-5" d="M3094.52,1021.27c-10.2-12.11-19.51-23.16-29.72-35.27-5.27,14.59-10.19,28.21-15.61,43.19,15.3-2.67,29.56-5.16,45.33-7.91Z"/>
      <path class="cls-1" d="M2989.11,725.24c13.45-3.46,25.3-6.51,37.99-9.78-9.81-8.81-19.08-17.13-28.04-25.17-2.75,9.65-6.13,21.53-9.95,34.95Z"/>
      <path class="cls-1" d="M2938.96,670.51c0-13.35,0-24.97,0-38.16-11.17,6.38-21.64,12.35-33.07,18.88,11.23,6.55,21.56,12.57,33.07,19.28Z"/>
      <path class="cls-5" d="M2933.29,935.33c11.98,4.24,22.8,8.07,34.69,12.27-2.28-12.42-4.35-23.69-6.63-36.09-9.67,8.21-18.41,15.63-28.06,23.81Z"/>
      <path class="cls-1" d="M2993.62,526.47c-1.47-12.4-2.77-23.37-4.22-35.55-9.86,7.38-18.87,14.13-28.62,21.42,11.06,4.76,21.23,9.14,32.83,14.13Z"/>
      <path class="cls-1" d="M3055.1,780.62c-.74,12.18-1.4,23.16-2.14,35.35,10.92-5.46,20.82-10.41,31.68-15.85-10.1-6.67-19.3-12.74-29.55-19.5Z"/>
      <path class="cls-2" d="M3016.47,315.17c-11.22-3.68-20.88-6.84-32.02-10.49,2.34,11.31,4.46,21.58,6.89,33.36,8.59-7.81,16.36-14.89,25.13-22.87Z"/>
      <path class="cls-1" d="M2798.57,30.78c-5.99,9.25-11.44,17.66-17.68,27.3,11.22,.53,21.04,.99,32.32,1.51-5.05-9.95-9.59-18.88-14.64-28.81Z"/>
      <path class="cls-1" d="M2787.03,121.48c11.07,2.12,20.75,3.97,31.54,6.03-3.51-10.32-6.69-19.64-10.3-30.22-7.14,8.12-13.72,15.62-21.25,24.19Z"/>
      <path class="cls-1" d="M2868.66,235.78c10.93,.87,20.16,1.6,30.92,2.45-4.53-9.64-8.57-18.25-13.16-28.01-6.09,8.76-11.53,16.6-17.76,25.56Z"/>
      <path class="cls-1" d="M2791.87,659.44c-6.44,8.92-11.94,16.55-18.11,25.09,10.47,1.12,19.8,2.11,30.78,3.28-4.41-9.87-8.28-18.53-12.67-28.37Z"/>
      <path class="cls-1" d="M2962.48,764.09c1.46-10.23,2.75-19.3,4.21-29.52-9.35,3.75-17.8,7.14-27.74,11.12,8.01,6.27,15.29,11.96,23.52,18.4Z"/>
      <path class="cls-1" d="M2776.63,390.98c6.25-7.93,11.82-14.98,18.25-23.14-10.06-1.47-19.03-2.78-29.21-4.26,3.84,9.59,7.22,18.06,10.96,27.4Z"/>
      <path class="cls-5" d="M2855.71,178.01c-6.36-8.13-11.72-14.98-17.81-22.76-3.72,9.1-7.01,17.14-10.86,26.55,9.83-1.3,18.55-2.45,28.67-3.79Z"/>
      <path class="cls-5" d="M2874.75,469.81c8.15,5.45,15.12,10.11,22.91,15.32,.71-9.36,1.32-17.56,2.05-27.18-8.47,4.03-15.98,7.6-24.96,11.87Z"/>
      <path class="cls-1" d="M3044.5,476.89c-9.48,1.12-17.86,2.1-27.56,3.24,5.67,7.58,10.73,14.34,16.75,22.38,3.74-8.88,7.06-16.73,10.81-25.63Z"/>
      <path class="cls-1" d="M3004.57,565.89c-8.95,4.38-16.29,7.97-24.51,12,7.64,5.16,14.46,9.77,22.63,15.29,.65-9.34,1.21-17.55,1.89-27.28Z"/>
      <path class="cls-2" d="M2976.61,30.42c-8.18-4.86-15.15-9-23.12-13.74,0,9.31,0,17.43,0,26.59,7.44-4.13,14.53-8.08,23.12-12.86Z"/>
      <path class="cls-3" d="M2702.96,728.29c-4.52,8-8.43,14.91-12.77,22.6,8.89,0,16.74,0,25.92,0-4.5-7.74-8.47-14.55-13.15-22.6Z"/>
      <path class="cls-1" d="M2946.79,238.22c-.56,9.23-1.02,16.94-1.56,25.87,7.99-4.04,15.03-7.6,23.28-11.78-7.54-4.89-14.11-9.16-21.72-14.09Z"/>
      <path class="cls-3" d="M2918.08,158.9c-3.97,8.15-7.34,15.1-11.27,23.18,8.89-.65,16.56-1.21,25.6-1.88-4.86-7.23-9.16-13.62-14.32-21.3Z"/>
      <path class="cls-1" d="M2906.78,531.14c-9.12-1.44-16.53-2.62-25.08-3.97,3.1,8.21,5.81,15.37,8.97,23.71,5.61-6.86,10.47-12.82,16.12-19.73Z"/>
      <path class="cls-1" d="M2776.01,582.36c3.35,8,6.24,14.9,9.57,22.88,5.13-6.85,9.6-12.83,14.95-19.97-8.69-1.03-16.07-1.91-24.52-2.91Z"/>
      <path class="cls-1" d="M2941.44,901.32c8.28,0,15.08,0,23.23,0-4-6.96-7.46-13-11.72-20.42-4.01,7.12-7.49,13.29-11.5,20.42Z"/>
      <path class="cls-2" d="M2937.34,1044.26c-6.92-4.61-12.93-8.61-20.06-13.36-.49,8.4-.91,15.53-1.4,23.98,7.54-3.73,13.97-6.91,21.46-10.61Z"/>
      <path class="cls-2" d="M2764.76,218.76c-5.93-4.85-11.04-9.02-17.23-14.08-1.24,7.59-2.31,14.18-3.58,21.97,7.36-2.79,13.61-5.16,20.81-7.89Z"/>
      <path class="cls-1" d="M2973.64,192.22c6.08-3.39,11.59-6.47,18.23-10.18-6.34-3.88-11.82-7.23-18.23-11.16,0,7.46,0,13.95,0,21.34Z"/>
      <path class="cls-3" d="M3090.88,92.04c-6.21,3.57-11.68,6.7-18.22,10.46,6.41,3.75,11.94,6.99,18.22,10.66,0-7.46,0-13.71,0-21.12Z"/>
      <path class="cls-1" d="M3071.95,413.85c7.36,.86,13.55,1.58,21.22,2.48-2.96-6.86-5.48-12.72-8.49-19.69-4.37,5.91-8.2,11.09-12.73,17.22Z"/>
      <path class="cls-5" d="M2641.48,50.92c-6.88-1.67-12.73-3.09-19.79-4.8,2.09,6.86,3.85,12.62,5.92,19.4,4.88-5.14,9.04-9.53,13.86-14.6Z"/>
      <path class="cls-1" d="M2718.5,148.24c-3.06,6.51-5.6,11.9-8.6,18.26,6.97-.61,12.76-1.12,19.72-1.73-3.86-5.73-7.18-10.66-11.13-16.53Z"/>
      <path class="cls-2" d="M3065.93,750.84c0-6.61,0-12.14,0-18.76-5.42,2.96-10.46,5.72-16.46,9,5.73,3.4,10.65,6.32,16.46,9.76Z"/>
      <path class="cls-3" d="M2997.85,1022.38c4.63,5.24,8.46,9.58,12.88,14.59,2.15-6.2,3.98-11.5,6.31-18.21-6.67,1.26-12.4,2.34-19.19,3.62Z"/>
      <path class="cls-1" d="M3017.77,840.33c6.69,.71,12.08,1.27,18.64,1.96-2.62-6.08-4.82-11.19-7.47-17.35-3.82,5.26-7.1,9.78-11.17,15.39Z"/>
      <path class="cls-1" d="M3057.13,916.08c6.41-1.76,11.7-3.2,17.1-4.69-4.23-4.33-8.05-8.25-12.46-12.76-1.46,5.5-2.9,10.91-4.64,17.45Z"/>
      <path class="cls-2" d="M2950.78,546.24c-6.7-.51-12.02-.92-18.54-1.42,2.79,5.84,5.17,10.83,7.97,16.68,3.6-5.2,6.67-9.63,10.57-15.25Z"/>
      <path class="cls-1" d="M3036.58,547.37c6.66,1.37,11.87,2.45,18.29,3.77-1.89-6.07-3.51-11.3-5.55-17.84-4.38,4.83-8.06,8.89-12.75,14.07Z"/>
      <path class="cls-2" d="M2717.93,415.39c-1.83-5.9-3.34-10.73-5.2-16.72-4.21,4.62-7.75,8.51-12,13.18,6.14,1.26,11.07,2.28,17.2,3.54Z"/>
      <path class="cls-1" d="M2843.6,716.82c3.54,4.82,6.5,8.85,10.22,13.91,2.42-5.84,4.32-10.45,6.6-15.96-5.99,.73-10.8,1.32-16.82,2.05Z"/>
      <path class="cls-3" d="M2678.42,288.93c2.58,5.6,4.53,9.85,6.93,15.05,3.35-4.64,6.25-8.66,9.9-13.71-6.05-.48-10.87-.87-16.83-1.34Z"/>
      <path class="cls-1" d="M3012.57,950.35c-3.17,5.56-5.59,9.79-8.32,14.59h16.56c-2.78-4.92-5.17-9.16-8.24-14.59Z"/>
      <path class="cls-1" d="M2963.28,120.01c6.17,.47,10.93,.82,16.78,1.27-2.52-5.34-4.58-9.72-7.1-15.07-3.25,4.63-6.03,8.59-9.68,13.8Z"/>
      <path class="cls-1" d="M2551.26,440.23c4.07,4.37,7.23,7.77,11.03,11.85,1.77-5.43,3.2-9.81,5.04-15.43-5.68,1.27-10.22,2.28-16.07,3.58Z"/>
      <path class="cls-1" d="M3025.62,638.55c2.83-4.19,4.98-7.37,7.81-11.55-4.91-.46-8.77-.82-14.05-1.31,2.23,4.6,3.97,8.18,6.25,12.87Z"/>
      <path class="cls-1" d="M2900.88,754.19c-4.32,2.42-7.75,4.34-12.03,6.73,4.28,2.63,7.75,4.76,12.03,7.39,0-5.16,0-9.11,0-14.12Z"/>
      <path class="cls-5" d="M3086.59,25.1c1.77-4.17,3.2-7.56,5.15-12.18-4.68,.42-8.39,.76-13.64,1.24,3.22,4.15,5.57,7.18,8.49,10.94Z"/>
      <path class="cls-2" d="M2794.1,827.78c.9-4.89,1.56-8.46,2.46-13.32-4.42,1.54-7.82,2.72-12.54,4.35,3.54,3.14,6.32,5.62,10.08,8.97Z"/>
      <path class="cls-3" d="M2864.42,619.32c3.32,3.66,5.68,6.26,8.71,9.61,1.42-4.26,2.56-7.64,4.1-12.26-4.76,.98-8.34,1.73-12.81,2.65Z"/>
      <path class="cls-1" d="M2904.87,977.43c-2.17-3.81-3.86-6.77-5.98-10.49-2.28,3.87-4.02,6.81-6.19,10.49h12.17Z"/>
      <path class="cls-2" d="M2974.52,443.92c4.11-1.4,7.21-2.45,11.56-3.93-3.19-2.84-5.7-5.09-9.2-8.21-.87,4.48-1.54,7.95-2.36,12.15Z"/>
      <path class="cls-3" d="M2837.16,1000.82c4.39,1.46,7.48,2.49,11.89,3.95-.82-4.2-1.46-7.44-2.38-12.14-3.4,2.93-5.95,5.12-9.51,8.19Z"/>
      <path class="cls-2" d="M2800.29,507.55c2.1,3.64,3.69,6.38,5.92,10.23,1.99-3.81,3.52-6.75,5.34-10.23h-11.26Z"/>
      <path class="cls-2" d="M2843.86,285.51c-4,0-7.02,0-11.2,0,1.88,3.39,3.47,6.27,5.5,9.91,2.16-3.75,3.76-6.53,5.71-9.91Z"/>
      <path class="cls-1" d="M2892.86,31.12c3.96,1.34,6.75,2.29,10.36,3.51-.67-3.73-1.17-6.59-1.88-10.57-2.97,2.47-5.18,4.31-8.48,7.05Z"/>
      <path class="cls-1" d="M2896.15,372.91c-3.92-1.74-6.4-2.85-9.63-4.28,.21,3.6,.37,6.3,.61,10.28,3.26-2.16,5.65-3.76,9.02-6Z"/>
      <path class="cls-2" d="M2877.41,877.47v-10.12c-2.84,1.49-5.29,2.78-8.91,4.68,3.36,2.05,5.76,3.51,8.91,5.44Z"/>
    </g>
  </g>
</svg>