<?xml version="1.0" encoding="UTF-8"?>
<svg id="_Слой_2" data-name="Слой 2" xmlns="http://www.w3.org/2000/svg" xmlns:xlink="http://www.w3.org/1999/xlink" viewBox="0 0 280.02 600">
  <defs>
    <style>
      .cls-1 {
        opacity: .63;
      }

      .cls-1, .cls-2, .cls-3, .cls-4, .cls-5, .cls-6, .cls-7, .cls-8, .cls-9, .cls-10, .cls-11, .cls-12, .cls-13, .cls-14, .cls-15, .cls-16, .cls-17, .cls-18, .cls-19, .cls-20, .cls-21, .cls-22, .cls-23, .cls-24, .cls-25, .cls-26, .cls-27, .cls-28, .cls-29, .cls-30, .cls-31, .cls-32, .cls-33, .cls-34, .cls-35, .cls-36, .cls-37, .cls-38, .cls-39, .cls-40, .cls-41, .cls-42, .cls-43, .cls-44, .cls-45, .cls-46, .cls-47, .cls-48, .cls-49, .cls-50, .cls-51, .cls-52, .cls-53, .cls-54, .cls-55, .cls-56, .cls-57, .cls-58, .cls-59, .cls-60, .cls-61, .cls-62, .cls-63, .cls-64, .cls-65, .cls-66, .cls-67, .cls-68, .cls-69, .cls-70, .cls-71, .cls-72, .cls-73, .cls-74, .cls-75, .cls-76, .cls-77, .cls-78, .cls-79, .cls-80, .cls-81, .cls-82, .cls-83, .cls-84, .cls-85, .cls-86, .cls-87, .cls-88, .cls-89, .cls-90, .cls-91, .cls-92, .cls-93, .cls-94, .cls-95, .cls-96, .cls-97, .cls-98, .cls-99, .cls-100, .cls-101, .cls-102, .cls-103, .cls-104, .cls-105, .cls-106, .cls-107, .cls-108, .cls-109, .cls-110, .cls-111, .cls-112, .cls-113, .cls-114, .cls-115, .cls-116, .cls-117, .cls-118, .cls-119, .cls-120, .cls-121, .cls-122, .cls-123, .cls-124, .cls-125, .cls-126, .cls-127, .cls-128, .cls-129, .cls-130, .cls-131, .cls-132, .cls-133, .cls-134, .cls-135, .cls-136, .cls-137, .cls-138, .cls-139, .cls-140, .cls-141, .cls-142, .cls-143, .cls-144, .cls-145, .cls-146, .cls-147, .cls-148, .cls-149, .cls-150, .cls-151, .cls-152, .cls-153, .cls-154, .cls-155, .cls-156, .cls-157, .cls-158, .cls-159, .cls-160, .cls-161, .cls-162, .cls-163, .cls-164, .cls-165, .cls-166, .cls-167, .cls-168, .cls-169, .cls-170, .cls-171, .cls-172, .cls-173, .cls-174, .cls-175, .cls-176, .cls-177, .cls-178, .cls-179, .cls-180, .cls-181, .cls-182, .cls-183, .cls-184, .cls-185, .cls-186, .cls-187, .cls-188, .cls-189, .cls-190, .cls-191, .cls-192, .cls-193, .cls-194, .cls-195, .cls-196, .cls-197, .cls-198, .cls-199, .cls-200, .cls-201, .cls-202, .cls-203, .cls-204, .cls-205, .cls-206, .cls-207, .cls-208, .cls-209, .cls-210, .cls-211, .cls-212, .cls-213, .cls-214, .cls-215, .cls-216, .cls-217, .cls-218, .cls-219, .cls-220, .cls-221, .cls-222, .cls-223, .cls-224, .cls-225, .cls-226, .cls-227, .cls-228, .cls-229, .cls-230, .cls-231, .cls-232, .cls-233, .cls-234, .cls-235, .cls-236, .cls-237, .cls-238, .cls-239, .cls-240, .cls-241, .cls-242, .cls-243, .cls-244, .cls-245, .cls-246, .cls-247, .cls-248, .cls-249, .cls-250, .cls-251, .cls-252, .cls-253, .cls-254, .cls-255, .cls-256, .cls-257, .cls-258, .cls-259, .cls-260, .cls-261, .cls-262, .cls-263, .cls-264, .cls-265, .cls-266, .cls-267, .cls-268, .cls-269, .cls-270, .cls-271, .cls-272, .cls-273, .cls-274, .cls-275, .cls-276, .cls-277, .cls-278, .cls-279, .cls-280, .cls-281, .cls-282, .cls-283, .cls-284, .cls-285, .cls-286, .cls-287, .cls-288, .cls-289, .cls-290, .cls-291, .cls-292, .cls-293, .cls-294, .cls-295, .cls-296, .cls-297, .cls-298, .cls-299, .cls-300, .cls-301, .cls-302, .cls-303, .cls-304, .cls-305, .cls-306, .cls-307, .cls-308, .cls-309, .cls-310, .cls-311, .cls-312, .cls-313, .cls-314, .cls-315, .cls-316, .cls-317, .cls-318, .cls-319, .cls-320 {
        fill: #eaeaea;
      }

      .cls-2 {
        opacity: .62;
      }

      .cls-3 {
        opacity: .62;
      }

      .cls-4 {
        opacity: .26;
      }

      .cls-5 {
        opacity: .93;
      }

      .cls-6 {
        opacity: .19;
      }

      .cls-7 {
        opacity: .15;
      }

      .cls-8 {
        opacity: .24;
      }

      .cls-9 {
        opacity: .65;
      }

      .cls-10 {
        opacity: 1;
      }

      .cls-11 {
        opacity: .11;
      }

      .cls-12 {
        opacity: .64;
      }

      .cls-13 {
        opacity: .37;
      }

      .cls-14 {
        opacity: .84;
      }

      .cls-15 {
        opacity: .35;
      }

      .cls-16 {
        opacity: .64;
      }

      .cls-17 {
        opacity: .76;
      }

      .cls-18 {
        opacity: .79;
      }

      .cls-19 {
        opacity: .74;
      }

      .cls-20 {
        opacity: .98;
      }

      .cls-21 {
        opacity: .19;
      }

      .cls-22 {
        opacity: .93;
      }

      .cls-23 {
        opacity: .07;
      }

      .cls-24 {
        opacity: .2;
      }

      .cls-25 {
        opacity: .4;
      }

      .cls-26 {
        opacity: .25;
      }

      .cls-27 {
        opacity: .44;
      }

      .cls-28 {
        opacity: .88;
      }

      .cls-29 {
        opacity: .75;
      }

      .cls-30 {
        opacity: .17;
      }

      .cls-31 {
        opacity: .58;
      }

      .cls-32 {
        opacity: .38;
      }

      .cls-33 {
        opacity: .48;
      }

      .cls-34 {
        opacity: .32;
      }

      .cls-35 {
        opacity: .41;
      }

      .cls-36 {
        opacity: .47;
      }

      .cls-37 {
        opacity: .5;
      }

      .cls-38 {
        opacity: .93;
      }

      .cls-39 {
        opacity: .19;
      }

      .cls-40 {
        opacity: .59;
      }

      .cls-41 {
        opacity: .52;
      }

      .cls-42 {
        opacity: .73;
      }

      .cls-43 {
        opacity: .59;
      }

      .cls-44 {
        opacity: .93;
      }

      .cls-45 {
        opacity: .82;
      }

      .cls-46 {
        opacity: .81;
      }

      .cls-47 {
        opacity: .75;
      }

      .cls-48 {
        opacity: .44;
      }

      .cls-49 {
        opacity: .87;
      }

      .cls-50 {
        opacity: .2;
      }

      .cls-51 {
        opacity: .31;
      }

      .cls-52 {
        opacity: .96;
      }

      .cls-53 {
        opacity: .7;
      }

      .cls-54 {
        opacity: .51;
      }

      .cls-55 {
        opacity: .99;
      }

      .cls-56 {
        opacity: .62;
      }

      .cls-57 {
        opacity: .83;
      }

      .cls-58 {
        opacity: .17;
      }

      .cls-59 {
        opacity: .52;
      }

      .cls-60 {
        opacity: .27;
      }

      .cls-61 {
        opacity: .51;
      }

      .cls-62 {
        opacity: .97;
      }

      .cls-63 {
        opacity: .99;
      }

      .cls-64 {
        opacity: .25;
      }

      .cls-65 {
        opacity: .57;
      }

      .cls-66 {
        opacity: .65;
      }

      .cls-67 {
        opacity: .77;
      }

      .cls-68 {
        opacity: .6;
      }

      .cls-69 {
        opacity: .51;
      }

      .cls-70 {
        opacity: .44;
      }

      .cls-71 {
        opacity: .16;
      }

      .cls-72 {
        opacity: .09;
      }

      .cls-73 {
        opacity: .74;
      }

      .cls-74 {
        opacity: .16;
      }

      .cls-75 {
        opacity: .12;
      }

      .cls-76 {
        opacity: .4;
      }

      .cls-77 {
        opacity: .92;
      }

      .cls-78 {
        opacity: .42;
      }

      .cls-79 {
        opacity: .77;
      }

      .cls-80 {
        opacity: .63;
      }

      .cls-81 {
        opacity: .79;
      }

      .cls-82 {
        opacity: .48;
      }

      .cls-83 {
        opacity: .26;
      }

      .cls-84 {
        opacity: .3;
      }

      .cls-85 {
        opacity: .42;
      }

      .cls-86 {
        opacity: .11;
      }

      .cls-87 {
        opacity: .06;
      }

      .cls-88 {
        opacity: .41;
      }

      .cls-89 {
        opacity: .3;
      }

      .cls-90 {
        opacity: .36;
      }

      .cls-91 {
        opacity: .5;
      }

      .cls-92 {
        opacity: .06;
      }

      .cls-93 {
        opacity: .35;
      }

      .cls-94 {
        opacity: .73;
      }

      .cls-95 {
        opacity: .52;
      }

      .cls-96 {
        opacity: .54;
      }

      .cls-97 {
        opacity: .39;
      }

      .cls-98 {
        opacity: .6;
      }

      .cls-99 {
        opacity: .12;
      }

      .cls-100 {
        opacity: .68;
      }

      .cls-101 {
        opacity: .53;
      }

      .cls-102 {
        opacity: .77;
      }

      .cls-103 {
        opacity: .77;
      }

      .cls-104 {
        opacity: .6;
      }

      .cls-105 {
        opacity: .18;
      }

      .cls-106 {
        opacity: .72;
      }

      .cls-107 {
        opacity: .49;
      }

      .cls-108 {
        opacity: .72;
      }

      .cls-109 {
        opacity: .09;
      }

      .cls-110 {
        opacity: .23;
      }

      .cls-111 {
        opacity: .4;
      }

      .cls-112 {
        opacity: .7;
      }

      .cls-113 {
        opacity: .71;
      }

      .cls-114 {
        opacity: .09;
      }

      .cls-115 {
        opacity: .46;
      }

      .cls-116 {
        opacity: .88;
      }

      .cls-117 {
        opacity: .41;
      }

      .cls-118 {
        opacity: .57;
      }

      .cls-119 {
        opacity: .33;
      }

      .cls-120 {
        opacity: .4;
      }

      .cls-121 {
        opacity: .63;
      }

      .cls-122 {
        opacity: .8;
      }

      .cls-123 {
        opacity: .98;
      }

      .cls-124 {
        opacity: .37;
      }

      .cls-125 {
        opacity: .3;
      }

      .cls-126 {
        opacity: .23;
      }

      .cls-127 {
        opacity: .92;
      }

      .cls-128 {
        opacity: .36;
      }

      .cls-129 {
        opacity: .29;
      }

      .cls-130 {
        opacity: .38;
      }

      .cls-131 {
        opacity: .63;
      }

      .cls-132 {
        opacity: .52;
      }

      .cls-133 {
        opacity: .53;
      }

      .cls-134 {
        opacity: .29;
      }

      .cls-135 {
        opacity: .27;
      }

      .cls-136 {
        opacity: .44;
      }

      .cls-137 {
        opacity: .6;
      }

      .cls-138 {
        opacity: .91;
      }

      .cls-139 {
        opacity: .58;
      }

      .cls-140 {
        opacity: .89;
      }

      .cls-141 {
        opacity: .68;
      }

      .cls-142 {
        opacity: .21;
      }

      .cls-143 {
        opacity: .05;
      }

      .cls-144 {
        opacity: .26;
      }

      .cls-145 {
        opacity: .89;
      }

      .cls-146 {
        opacity: .07;
      }

      .cls-147 {
        opacity: .29;
      }

      .cls-148 {
        opacity: .79;
      }

      .cls-149 {
        opacity: .8;
      }

      .cls-150 {
        opacity: .83;
      }

      .cls-151 {
        opacity: .85;
      }

      .cls-152 {
        opacity: .08;
      }

      .cls-153 {
        opacity: .33;
      }

      .cls-154 {
        opacity: .58;
      }

      .cls-155 {
        opacity: .63;
      }

      .cls-156 {
        opacity: .3;
      }

      .cls-157 {
        opacity: .7;
      }

      .cls-158 {
        opacity: .95;
      }

      .cls-159 {
        opacity: .14;
      }

      .cls-160 {
        opacity: .19;
      }

      .cls-161 {
        opacity: .51;
      }

      .cls-162 {
        opacity: .49;
      }

      .cls-163 {
        opacity: .19;
      }

      .cls-164 {
        opacity: .77;
      }

      .cls-165 {
        opacity: .8;
      }

      .cls-166 {
        opacity: .65;
      }

      .cls-167 {
        opacity: .11;
      }

      .cls-168 {
        opacity: .54;
      }

      .cls-169 {
        opacity: .81;
      }

      .cls-170 {
        opacity: .72;
      }

      .cls-171 {
        opacity: .79;
      }

      .cls-172 {
        opacity: .15;
      }

      .cls-173 {
        opacity: .99;
      }

      .cls-174 {
        opacity: .46;
      }

      .cls-175 {
        opacity: .18;
      }

      .cls-176 {
        opacity: .48;
      }

      .cls-177 {
        opacity: .97;
      }

      .cls-178 {
        opacity: .79;
      }

      .cls-179 {
        opacity: .25;
      }

      .cls-180 {
        opacity: .29;
      }

      .cls-181 {
        opacity: .97;
      }

      .cls-182 {
        opacity: .37;
      }

      .cls-183 {
        opacity: .17;
      }

      .cls-184 {
        opacity: .59;
      }

      .cls-185 {
        opacity: .22;
      }

      .cls-186 {
        opacity: .35;
      }

      .cls-187 {
        opacity: .17;
      }

      .cls-188 {
        opacity: .4;
      }

      .cls-189 {
        opacity: .1;
      }

      .cls-190 {
        opacity: .05;
      }

      .cls-191 {
        opacity: .98;
      }

      .cls-192 {
        opacity: .15;
      }

      .cls-193 {
        opacity: .48;
      }

      .cls-194 {
        opacity: .52;
      }

      .cls-195 {
        opacity: .62;
      }

      .cls-196 {
        opacity: .78;
      }

      .cls-197 {
        opacity: .95;
      }

      .cls-198 {
        opacity: .08;
      }

      .cls-199 {
        opacity: .71;
      }

      .cls-200 {
        opacity: .31;
      }

      .cls-201 {
        opacity: .3;
      }

      .cls-202 {
        opacity: .74;
      }

      .cls-203 {
        opacity: .07;
      }

      .cls-204 {
        opacity: .4;
      }

      .cls-205 {
        opacity: .4;
      }

      .cls-206 {
        opacity: .4;
      }

      .cls-207 {
        opacity: .28;
      }

      .cls-208 {
        opacity: .9;
      }

      .cls-209 {
        opacity: .94;
      }

      .cls-210 {
        opacity: .44;
      }

      .cls-211 {
        opacity: .36;
      }

      .cls-212 {
        opacity: .14;
      }

      .cls-213 {
        opacity: .95;
      }

      .cls-214 {
        opacity: .69;
      }

      .cls-215 {
        opacity: .07;
      }

      .cls-216 {
        opacity: .68;
      }

      .cls-217 {
        opacity: .39;
      }

      .cls-218 {
        opacity: .85;
      }

      .cls-219 {
        opacity: .4;
      }

      .cls-321 {
        clip-path: url(#clippath);
      }

      .cls-220 {
        opacity: .29;
      }

      .cls-221 {
        opacity: .94;
      }

      .cls-222 {
        opacity: .47;
      }

      .cls-223 {
        opacity: .99;
      }

      .cls-224 {
        opacity: .55;
      }

      .cls-225 {
        opacity: .46;
      }

      .cls-226 {
        opacity: .9;
      }

      .cls-322 {
        fill: none;
      }

      .cls-227 {
        opacity: .2;
      }

      .cls-228 {
        opacity: .96;
      }

      .cls-229 {
        opacity: .26;
      }

      .cls-230 {
        opacity: .89;
      }

      .cls-231 {
        opacity: .74;
      }

      .cls-232 {
        opacity: .13;
      }

      .cls-233 {
        opacity: .63;
      }

      .cls-234 {
        opacity: .4;
      }

      .cls-235 {
        opacity: .89;
      }

      .cls-236 {
        opacity: .48;
      }

      .cls-237 {
        opacity: .7;
      }

      .cls-238 {
        opacity: .59;
      }

      .cls-239 {
        opacity: .3;
      }

      .cls-240 {
        opacity: .27;
      }

      .cls-241 {
        opacity: .33;
      }

      .cls-242 {
        opacity: .46;
      }

      .cls-243 {
        opacity: .24;
      }

      .cls-244 {
        opacity: .08;
      }

      .cls-245 {
        opacity: .4;
      }

      .cls-246 {
        opacity: .06;
      }

      .cls-247 {
        opacity: .89;
      }

      .cls-248 {
        opacity: .1;
      }

      .cls-249 {
        opacity: .23;
      }

      .cls-250 {
        opacity: .2;
      }

      .cls-251 {
        opacity: .84;
      }

      .cls-252 {
        opacity: .77;
      }

      .cls-253 {
        opacity: .67;
      }

      .cls-254 {
        opacity: .52;
      }

      .cls-255 {
        opacity: .19;
      }

      .cls-256 {
        opacity: .92;
      }

      .cls-257 {
        opacity: .99;
      }

      .cls-258 {
        opacity: .44;
      }

      .cls-259 {
        opacity: .32;
      }

      .cls-260 {
        opacity: .79;
      }

      .cls-261 {
        opacity: .47;
      }

      .cls-262 {
        opacity: .72;
      }

      .cls-263 {
        opacity: .53;
      }

      .cls-264 {
        opacity: .57;
      }

      .cls-265 {
        opacity: .36;
      }

      .cls-266 {
        opacity: .75;
      }

      .cls-267 {
        opacity: .36;
      }

      .cls-268 {
        opacity: .38;
      }

      .cls-269 {
        opacity: .38;
      }

      .cls-270 {
        opacity: .26;
      }

      .cls-271 {
        opacity: .3;
      }

      .cls-272 {
        opacity: .57;
      }

      .cls-273 {
        opacity: .5;
      }

      .cls-274 {
        opacity: .68;
      }

      .cls-275 {
        opacity: .26;
      }

      .cls-276 {
        opacity: .86;
      }

      .cls-277 {
        opacity: .41;
      }

      .cls-278 {
        opacity: .99;
      }

      .cls-279 {
        opacity: .66;
      }

      .cls-280 {
        opacity: .16;
      }

      .cls-281 {
        opacity: .1;
      }

      .cls-282 {
        opacity: .2;
      }

      .cls-283 {
        opacity: .91;
      }

      .cls-284 {
        opacity: .72;
      }

      .cls-285 {
        opacity: .14;
      }

      .cls-286 {
        opacity: .85;
      }

      .cls-287 {
        opacity: .76;
      }

      .cls-288 {
        opacity: .55;
      }

      .cls-289 {
        opacity: .94;
      }

      .cls-290 {
        opacity: .81;
      }

      .cls-291 {
        opacity: .53;
      }

      .cls-292 {
        opacity: .94;
      }

      .cls-293 {
        opacity: .58;
      }

      .cls-294 {
        opacity: .47;
      }

      .cls-295 {
        opacity: .84;
      }

      .cls-296 {
        opacity: .6;
      }

      .cls-297 {
        opacity: .53;
      }

      .cls-298 {
        opacity: .19;
      }

      .cls-299 {
        opacity: .13;
      }

      .cls-300 {
        opacity: .32;
      }

      .cls-301 {
        opacity: .77;
      }

      .cls-302 {
        opacity: .57;
      }

      .cls-303 {
        opacity: .88;
      }

      .cls-304 {
        opacity: .79;
      }

      .cls-305 {
        opacity: .71;
      }

      .cls-306 {
        opacity: .24;
      }

      .cls-307 {
        opacity: .5;
      }

      .cls-308 {
        opacity: .42;
      }

      .cls-309 {
        opacity: .55;
      }

      .cls-310 {
        opacity: .2;
      }

      .cls-311 {
        opacity: .59;
      }

      .cls-312 {
        opacity: .36;
      }

      .cls-313 {
        opacity: .66;
      }

      .cls-314 {
        opacity: .43;
      }

      .cls-315 {
        opacity: .72;
      }

      .cls-316 {
        opacity: .75;
      }

      .cls-317 {
        opacity: .91;
      }

      .cls-318 {
        opacity: .76;
      }

      .cls-319 {
        opacity: .97;
      }

      .cls-320 {
        opacity: .32;
      }
    </style>
    <clipPath id="clippath">
      <rect class="cls-322" width="280.02" height="600"/>
    </clipPath>
  </defs>
  <g id="Layer_1" data-name="Layer 1">
    <g class="cls-321">
      <g>
        <polygon class="cls-135" points="269.72 44.36 266.2 50.46 273.25 50.46 269.72 44.36"/>
        <polygon class="cls-237" points="212.37 95.82 217.44 104.6 222.51 95.82 212.37 95.82"/>
        <polygon class="cls-259" points="234.86 74.41 239.93 65.63 229.8 65.63 234.86 74.41"/>
        <polygon class="cls-292" points="247.22 35.44 252.29 44.22 257.36 35.44 247.22 35.44"/>
        <polygon class="cls-145" points="210.82 82.44 224.05 82.44 217.44 70.98 210.82 82.44"/>
        <polygon class="cls-218" points="228.25 52.25 241.48 52.25 234.86 40.79 228.25 52.25"/>
        <polygon class="cls-22" points="252.29 10.6 245.68 22.06 258.91 22.06 252.29 10.6"/>
        <polygon class="cls-166" points="200.01 77.98 208.17 63.84 191.85 63.84 200.01 77.98"/>
        <polygon class="cls-302" points="217.44 47.79 225.6 33.65 209.28 33.65 217.44 47.79"/>
        <polygon class="cls-161" points="234.86 17.6 243.02 3.46 226.71 3.46 234.86 17.6"/>
        <polygon class="cls-62" points="190.3 54.03 209.71 54.03 200.01 37.22 190.3 54.03"/>
        <polygon class="cls-140" points="207.73 23.84 227.14 23.84 217.44 7.03 207.73 23.84"/>
        <polygon class="cls-163" points="171.33 31.87 182.58 51.35 193.83 31.87 171.33 31.87"/>
        <polygon class="cls-144" points="169.79 25.63 195.37 25.63 182.58 3.46 169.79 25.63"/>
        <polygon class="cls-317" points="150.81 -.1 165.15 24.73 179.49 -.1 150.81 -.1"/>
        <polygon class="cls-5" points="163.62 268.94 147.73 241.42 131.85 268.94 163.62 268.94"/>
        <polygon class="cls-36" points="165.16 271.58 149.28 299.1 181.04 299.1 165.16 271.58"/>
        <polygon class="cls-219" points="238.4 126.91 231.35 126.91 234.87 133.02 238.4 126.91"/>
        <polygon class="cls-288" points="255.83 157.1 248.78 157.1 252.3 163.21 255.83 157.1"/>
        <polygon class="cls-272" points="234.87 406.61 231.35 412.72 238.4 412.72 234.87 406.61"/>
        <polygon class="cls-170" points="252.3 376.42 248.78 382.53 255.83 382.53 252.3 376.42"/>
        <polygon class="cls-114" points="266.21 126.91 269.73 133.02 273.25 126.91 266.21 126.91"/>
        <polygon class="cls-201" points="273.25 412.72 269.73 406.61 266.21 412.72 273.25 412.72"/>
        <polygon class="cls-80" points="252.3 136.72 250.32 140.15 254.28 140.15 252.3 136.72"/>
        <polygon class="cls-119" points="267.75 170.34 271.71 170.34 269.73 166.91 267.75 170.34"/>
        <polygon class="cls-286" points="254.28 399.48 250.32 399.48 252.3 402.9 254.28 399.48"/>
        <polygon class="cls-133" points="271.71 369.29 267.75 369.29 269.73 372.72 271.71 369.29"/>
        <polygon class="cls-8" points="222.51 141.94 217.45 133.16 212.38 141.94 222.51 141.94"/>
        <polygon class="cls-269" points="239.94 172.13 234.87 163.35 229.8 172.13 239.94 172.13"/>
        <polygon class="cls-241" points="274.8 232.5 269.73 223.72 264.66 232.5 274.8 232.5"/>
        <polygon class="cls-215" points="212.38 397.69 217.45 406.47 222.51 397.69 212.38 397.69"/>
        <polygon class="cls-301" points="229.8 367.5 234.87 376.28 239.94 367.5 229.8 367.5"/>
        <polygon class="cls-37" points="247.23 337.31 252.3 346.09 257.37 337.31 247.23 337.31"/>
        <polygon class="cls-98" points="264.66 307.12 269.73 315.91 274.8 307.12 264.66 307.12"/>
        <polygon class="cls-203" points="224.06 155.32 210.83 155.32 217.45 166.77 224.06 155.32"/>
        <polygon class="cls-280" points="234.87 196.96 241.49 185.51 228.26 185.51 234.87 196.96"/>
        <polygon class="cls-205" points="263.12 245.88 269.73 257.34 276.34 245.88 263.12 245.88"/>
        <polygon class="cls-267" points="252.3 312.48 245.69 323.93 258.92 323.93 252.3 312.48"/>
        <polygon class="cls-27" points="269.73 282.29 263.12 293.74 276.34 293.74 269.73 282.29"/>
        <polygon class="cls-52" points="200.02 159.78 191.86 173.91 208.18 173.91 200.02 159.78"/>
        <polygon class="cls-221" points="234.87 220.16 226.72 234.29 243.03 234.29 234.87 220.16"/>
        <polygon class="cls-190" points="252.3 250.35 244.14 264.48 260.46 264.48 252.3 250.35"/>
        <polygon class="cls-19" points="200.02 379.85 208.18 365.72 191.86 365.72 200.02 379.85"/>
        <polygon class="cls-154" points="226.71 305.34 234.87 319.47 243.03 305.34 226.71 305.34"/>
        <polygon class="cls-156" points="190.31 183.72 200.02 200.53 209.72 183.72 190.31 183.72"/>
        <polygon class="cls-255" points="207.74 213.91 217.45 230.72 227.15 213.91 207.74 213.91"/>
        <polygon class="cls-14" points="190.31 355.91 209.72 355.91 200.02 339.1 190.31 355.91"/>
        <polygon class="cls-275" points="207.74 325.72 227.15 325.72 217.45 308.91 207.74 325.72"/>
        <polygon class="cls-110" points="234.87 278.72 225.17 295.53 244.58 295.53 234.87 278.72"/>
        <polygon class="cls-263" points="171.34 205.88 193.84 205.88 182.59 186.4 171.34 205.88"/>
        <polygon class="cls-10" points="217.45 246.78 206.2 266.26 228.69 266.26 217.45 246.78"/>
        <polygon class="cls-284" points="171.34 333.75 182.59 353.23 193.84 333.75 171.34 333.75"/>
        <polygon class="cls-88" points="206.2 273.37 217.45 292.85 228.69 273.37 206.2 273.37"/>
        <polygon class="cls-141" points="169.79 212.13 182.59 234.29 195.38 212.13 169.79 212.13"/>
        <polygon class="cls-38" points="187.22 242.32 200.02 264.48 212.81 242.32 187.22 242.32"/>
        <polygon class="cls-239" points="182.59 305.34 169.79 327.5 195.38 327.5 182.59 305.34"/>
        <polygon class="cls-96" points="200.02 275.15 187.22 297.31 212.81 297.31 200.02 275.15"/>
        <polygon class="cls-100" points="150.82 237.86 179.5 237.86 165.16 213.02 150.82 237.86"/>
        <polygon class="cls-15" points="182.59 243.21 168.25 268.05 196.93 268.05 182.59 243.21"/>
        <polygon class="cls-186" points="150.82 301.77 165.16 326.61 179.5 301.77 150.82 301.77"/>
        <polygon class="cls-102" points="168.25 271.58 182.59 296.42 196.93 271.58 168.25 271.58"/>
        <polygon class="cls-128" points="163.62 570.8 147.73 543.29 131.85 570.8 163.62 570.8"/>
        <polygon class="cls-151" points="149.28 542.39 165.16 569.91 181.04 542.39 149.28 542.39"/>
        <polygon class="cls-109" points="165.16 573.44 149.28 600.96 181.04 600.96 165.16 573.44"/>
        <polygon class="cls-285" points="147.73 600.07 163.62 572.55 131.85 572.55 147.73 600.07"/>
        <polygon class="cls-271" points="252.3 465.07 255.83 458.96 248.78 458.96 252.3 465.07"/>
        <polygon class="cls-206" points="269.73 495.26 273.25 489.15 266.21 489.15 269.73 495.26"/>
        <polygon class="cls-43" points="254.28 442.01 252.3 438.59 250.32 442.01 254.28 442.01"/>
        <polygon class="cls-187" points="267.75 472.2 271.71 472.2 269.73 468.78 267.75 472.2"/>
        <polygon class="cls-270" points="257.37 504.18 252.3 495.4 247.23 504.18 257.37 504.18"/>
        <polygon class="cls-41" points="224.06 457.18 210.83 457.18 217.45 468.63 224.06 457.18"/>
        <polygon class="cls-44" points="252.3 529.01 258.92 517.56 245.69 517.56 252.3 529.01"/>
        <polygon class="cls-32" points="269.73 584.15 263.12 595.61 276.34 595.61 269.73 584.15"/>
        <polygon class="cls-198" points="200.02 461.64 191.86 475.77 208.18 475.77 200.02 461.64"/>
        <polygon class="cls-97" points="252.3 552.21 244.14 566.34 260.46 566.34 252.3 552.21"/>
        <polygon class="cls-175" points="244.14 577.01 252.3 591.15 260.46 577.01 244.14 577.01"/>
        <polygon class="cls-289" points="190.31 485.58 200.02 502.39 209.72 485.58 190.31 485.58"/>
        <polygon class="cls-229" points="207.74 515.77 217.45 532.58 227.15 515.77 207.74 515.77"/>
        <polygon class="cls-265" points="225.17 545.96 234.87 562.77 244.58 545.96 225.17 545.96"/>
        <polygon class="cls-245" points="171.34 507.75 193.84 507.75 182.59 488.26 171.34 507.75"/>
        <polygon class="cls-117" points="217.45 548.64 206.2 568.12 228.69 568.12 217.45 548.64"/>
        <polygon class="cls-7" points="187.22 544.18 200.02 566.34 212.81 544.18 187.22 544.18"/>
        <polygon class="cls-99" points="200.02 577.01 187.22 599.17 212.81 599.17 200.02 577.01"/>
        <polygon class="cls-254" points="150.82 539.72 179.5 539.72 165.16 514.88 150.82 539.72"/>
        <polygon class="cls-199" points="182.59 545.07 168.25 569.91 196.93 569.91 182.59 545.07"/>
        <polygon class="cls-107" points="168.25 573.44 182.59 598.28 196.93 573.44 168.25 573.44"/>
        <polygon class="cls-28" points="25.74 72.62 29.27 66.52 22.22 66.52 25.74 72.62"/>
        <polygon class="cls-20" points="39.65 96.71 43.17 102.81 46.69 96.71 39.65 96.71"/>
        <polygon class="cls-116" points="8.31 195.27 4.79 201.38 11.84 201.38 8.31 195.27"/>
        <polygon class="cls-26" points="25.74 165.08 22.22 171.19 29.27 171.19 25.74 165.08"/>
        <polygon class="cls-228" points="43.17 134.89 39.65 141 46.69 141 43.17 134.89"/>
        <polygon class="cls-113" points="168.26 86.9 196.94 86.9 182.6 62.06 168.26 86.9"/>
        <polygon class="cls-266" points="130.31 266.22 144.65 241.38 115.97 241.38 130.31 266.22"/>
        <polygon class="cls-3" points="168.26 150.81 182.6 175.65 196.94 150.81 168.26 150.81"/>
        <polygon class="cls-73" points="143.11 .79 117.52 .79 130.31 22.95 143.11 .79"/>
        <polygon class="cls-104" points="160.53 30.98 134.95 30.98 147.74 53.14 160.53 30.98"/>
        <polygon class="cls-194" points="152.38 61.17 165.17 83.33 177.96 61.17 152.38 61.17"/>
        <polygon class="cls-122" points="169.8 91.36 182.6 113.52 195.39 91.36 169.8 91.36"/>
        <polygon class="cls-39" points="125.68 267.11 112.88 244.95 100.09 267.11 125.68 267.11"/>
        <polygon class="cls-224" points="160.53 206.73 147.74 184.57 134.95 206.73 160.53 206.73"/>
        <polygon class="cls-183" points="182.6 124.19 169.8 146.35 195.39 146.35 182.6 124.19"/>
        <polygon class="cls-153" points="141.56 54.92 130.31 35.44 119.06 54.92 141.56 54.92"/>
        <polygon class="cls-57" points="158.99 85.11 147.74 65.63 136.49 85.11 158.99 85.11"/>
        <polygon class="cls-89" points="153.92 115.3 176.42 115.3 165.17 95.82 153.92 115.3"/>
        <polygon class="cls-210" points="95.46 262.65 106.7 243.16 84.21 243.16 95.46 262.65"/>
        <polygon class="cls-320" points="124.13 212.97 101.63 212.97 112.88 232.46 124.13 212.97"/>
        <polygon class="cls-2" points="130.31 202.27 141.56 182.78 119.06 182.78 130.31 202.27"/>
        <polygon class="cls-273" points="158.99 152.6 136.49 152.6 147.74 172.08 158.99 152.6"/>
        <polygon class="cls-277" points="105.16 2.57 85.75 2.57 95.46 19.38 105.16 2.57"/>
        <polygon class="cls-71" points="122.59 32.76 103.18 32.76 112.88 49.57 122.59 32.76"/>
        <polygon class="cls-232" points="130.31 79.76 140.02 62.95 120.61 62.95 130.31 79.76"/>
        <polygon class="cls-1" points="157.44 93.14 138.04 93.14 147.74 109.95 157.44 93.14"/>
        <polygon class="cls-58" points="87.73 265.32 78.03 248.52 68.32 265.32 87.73 265.32"/>
        <polygon class="cls-290" points="105.16 235.14 95.46 218.33 85.75 235.14 105.16 235.14"/>
        <polygon class="cls-147" points="122.59 204.95 112.88 188.14 103.18 204.95 122.59 204.95"/>
        <polygon class="cls-173" points="140.02 174.76 130.31 157.95 120.61 174.76 140.02 174.76"/>
        <polygon class="cls-235" points="157.44 144.57 147.74 127.76 138.04 144.57 157.44 144.57"/>
        <polygon class="cls-188" points="60.6 259.08 68.76 244.95 52.44 244.95 60.6 259.08"/>
        <polygon class="cls-182" points="86.19 214.76 69.87 214.76 78.03 228.89 86.19 214.76"/>
        <polygon class="cls-65" points="121.04 154.38 104.72 154.38 112.88 168.51 121.04 154.38"/>
        <polygon class="cls-314" points="138.47 124.19 122.15 124.19 130.31 138.32 138.47 124.19"/>
        <polygon class="cls-91" points="122.15 113.52 138.47 113.52 130.31 99.38 122.15 113.52"/>
        <polygon class="cls-209" points="95.46 39.01 87.3 53.14 103.61 53.14 95.46 39.01"/>
        <polygon class="cls-247" points="112.88 69.2 104.73 83.33 121.04 83.33 112.88 69.2"/>
        <polygon class="cls-319" points="49.78 263.54 43.17 252.08 36.56 263.54 49.78 263.54"/>
        <polygon class="cls-45" points="67.21 233.35 60.6 221.89 53.98 233.35 67.21 233.35"/>
        <polygon class="cls-77" points="84.64 203.16 78.03 191.71 71.41 203.16 84.64 203.16"/>
        <polygon class="cls-283" points="102.07 172.97 95.46 161.52 88.84 172.97 102.07 172.97"/>
        <polygon class="cls-54" points="106.27 142.78 119.5 142.78 112.88 131.33 106.27 142.78"/>
        <polygon class="cls-111" points="53.98 4.36 60.6 15.81 67.21 4.36 53.98 4.36"/>
        <polygon class="cls-76" points="88.84 64.73 95.46 76.19 102.07 64.73 88.84 64.73"/>
        <polygon class="cls-276" points="106.27 94.92 112.88 106.38 119.5 94.92 106.27 94.92"/>
        <polygon class="cls-311" points="43.17 12.38 38.1 21.16 48.24 21.16 43.17 12.38"/>
        <polygon class="cls-132" points="78.03 72.76 72.96 81.54 83.1 81.54 78.03 72.76"/>
        <polygon class="cls-95" points="25.74 255.51 30.81 246.73 20.67 246.73 25.74 255.51"/>
        <polygon class="cls-244" points="43.17 225.32 48.24 216.54 38.1 216.54 43.17 225.32"/>
        <polygon class="cls-253" points="78.03 164.94 83.1 156.16 72.96 156.16 78.03 164.94"/>
        <polygon class="cls-306" points="95.46 134.75 100.52 125.97 90.39 125.97 95.46 134.75"/>
        <polygon class="cls-46" points="22.22 6.14 25.74 12.24 29.27 6.14 22.22 6.14"/>
        <polygon class="cls-268" points="39.65 36.33 43.17 42.43 46.69 36.33 39.65 36.33"/>
        <polygon class="cls-127" points="57.07 66.52 60.6 72.62 64.12 66.52 57.07 66.52"/>
        <polygon class="cls-149" points="74.5 96.71 78.03 102.81 81.55 96.71 74.5 96.71"/>
        <polygon class="cls-293" points="29.27 231.57 25.74 225.46 22.22 231.57 29.27 231.57"/>
        <polygon class="cls-68" points="46.69 201.38 43.17 195.27 39.65 201.38 46.69 201.38"/>
        <polygon class="cls-6" points="64.12 171.19 60.6 165.08 57.07 171.19 64.12 171.19"/>
        <polygon class="cls-21" points="23.76 49.57 27.72 49.57 25.74 46.14 23.76 49.57"/>
        <polygon class="cls-225" points="60.6 106.52 58.62 109.95 62.58 109.95 60.6 106.52"/>
        <polygon class="cls-18" points="10.29 218.33 6.33 218.33 8.31 221.75 10.29 218.33"/>
        <polygon class="cls-87" points="27.72 188.14 23.76 188.14 25.74 191.57 27.72 188.14"/>
        <polygon class="cls-189" points="45.15 157.95 41.19 157.95 43.17 161.38 45.15 157.95"/>
        <polygon class="cls-155" points="13.38 81.54 8.31 72.76 3.24 81.54 13.38 81.54"/>
        <polygon class="cls-158" points="25.74 134.75 30.81 125.97 20.67 125.97 25.74 134.75"/>
        <polygon class="cls-202" points="8.31 106.38 14.93 94.92 1.7 94.92 8.31 106.38"/>
        <polygon class="cls-310" points="1.7 142.78 14.93 142.78 8.31 131.33 1.7 142.78"/>
        <polygon class="cls-236" points="25.74 374.48 29.27 368.38 22.22 368.38 25.74 374.48"/>
        <polygon class="cls-61" points="39.65 398.57 43.17 404.67 46.69 398.57 39.65 398.57"/>
        <polygon class="cls-250" points="8.31 497.13 4.79 503.24 11.84 503.24 8.31 497.13"/>
        <polygon class="cls-78" points="25.74 466.95 22.22 473.05 29.27 473.05 25.74 466.95"/>
        <polygon class="cls-75" points="43.17 436.76 39.65 442.86 46.69 442.86 43.17 436.76"/>
        <polygon class="cls-123" points="144.65 298.19 130.31 273.35 115.97 298.19 144.65 298.19"/>
        <polygon class="cls-67" points="162.08 328.38 147.74 303.54 133.4 328.38 162.08 328.38"/>
        <polygon class="cls-47" points="165.17 333.73 150.83 358.57 179.51 358.57 165.17 333.73"/>
        <polygon class="cls-66" points="168.26 388.76 196.94 388.76 182.6 363.92 168.26 388.76"/>
        <polygon class="cls-85" points="185.69 418.95 214.36 418.95 200.03 394.11 185.69 418.95"/>
        <polygon class="cls-278" points="130.31 568.08 144.65 543.24 115.97 543.24 130.31 568.08"/>
        <polygon class="cls-168" points="147.74 537.89 162.08 513.05 133.4 513.05 147.74 537.89"/>
        <polygon class="cls-17" points="150.83 482.86 165.17 507.7 179.51 482.86 150.83 482.86"/>
        <polygon class="cls-124" points="168.26 452.67 182.6 477.51 196.94 452.67 168.26 452.67"/>
        <polygon class="cls-159" points="112.88 294.62 125.68 272.46 100.09 272.46 112.88 294.62"/>
        <polygon class="cls-146" points="143.11 302.65 117.52 302.65 130.31 324.81 143.11 302.65"/>
        <polygon class="cls-79" points="160.53 332.84 134.95 332.84 147.74 355 160.53 332.84"/>
        <polygon class="cls-160" points="152.38 363.03 165.17 385.19 177.96 363.03 152.38 363.03"/>
        <polygon class="cls-31" points="169.8 393.22 182.6 415.38 195.39 393.22 169.8 393.22"/>
        <polygon class="cls-315" points="125.68 568.97 112.88 546.81 100.09 568.97 125.68 568.97"/>
        <polygon class="cls-178" points="143.11 538.78 130.31 516.62 117.52 538.78 143.11 538.78"/>
        <polygon class="cls-136" points="160.53 508.59 147.74 486.43 134.95 508.59 160.53 508.59"/>
        <polygon class="cls-164" points="152.38 478.4 177.96 478.4 165.17 456.24 152.38 478.4"/>
        <polygon class="cls-69" points="124.13 326.59 112.88 307.11 101.63 326.59 124.13 326.59"/>
        <polygon class="cls-304" points="141.56 356.78 130.31 337.3 119.06 356.78 141.56 356.78"/>
        <polygon class="cls-13" points="158.99 386.97 147.74 367.49 136.49 386.97 158.99 386.97"/>
        <polygon class="cls-214" points="153.92 417.16 176.42 417.16 165.17 397.68 153.92 417.16"/>
        <polygon class="cls-171" points="153.92 424.27 165.17 443.75 176.42 424.27 153.92 424.27"/>
        <polygon class="cls-74" points="95.46 564.51 106.7 545.02 84.21 545.02 95.46 564.51"/>
        <polygon class="cls-249" points="130.31 504.13 141.56 484.65 119.06 484.65 130.31 504.13"/>
        <polygon class="cls-142" points="87.73 274.24 68.32 274.24 78.03 291.05 87.73 274.24"/>
        <polygon class="cls-59" points="105.16 304.43 85.75 304.43 95.46 321.24 105.16 304.43"/>
        <polygon class="cls-223" points="130.31 381.62 140.02 364.81 120.61 364.81 130.31 381.62"/>
        <polygon class="cls-63" points="87.73 567.19 78.03 550.38 68.32 567.19 87.73 567.19"/>
        <polygon class="cls-177" points="157.44 446.43 147.74 429.62 138.04 446.43 157.44 446.43"/>
        <polygon class="cls-115" points="60.6 560.94 68.76 546.81 52.44 546.81 60.6 560.94"/>
        <polygon class="cls-148" points="86.19 516.62 69.87 516.62 78.03 530.75 86.19 516.62"/>
        <polygon class="cls-208" points="95.46 500.56 103.61 486.43 87.3 486.43 95.46 500.56"/>
        <polygon class="cls-274" points="122.15 415.38 138.47 415.38 130.31 401.25 122.15 415.38"/>
        <polygon class="cls-307" points="60.6 280.49 52.44 294.62 68.76 294.62 60.6 280.49"/>
        <polygon class="cls-30" points="95.46 340.87 87.3 355 103.61 355 95.46 340.87"/>
        <polygon class="cls-217" points="49.78 565.4 43.17 553.95 36.56 565.4 49.78 565.4"/>
        <polygon class="cls-305" points="67.21 535.21 60.6 523.76 53.98 535.21 67.21 535.21"/>
        <polygon class="cls-180" points="84.64 505.02 78.03 493.57 71.41 505.02 84.64 505.02"/>
        <polygon class="cls-226" points="102.07 474.83 95.46 463.38 88.84 474.83 102.07 474.83"/>
        <polygon class="cls-9" points="106.27 444.64 119.5 444.64 112.88 433.19 106.27 444.64"/>
        <polygon class="cls-251" points="53.98 306.22 60.6 317.67 67.21 306.22 53.98 306.22"/>
        <polygon class="cls-129" points="88.84 366.6 95.46 378.05 102.07 366.6 88.84 366.6"/>
        <polygon class="cls-50" points="106.27 396.78 112.88 408.24 119.5 396.78 106.27 396.78"/>
        <polygon class="cls-227" points="20.67 292.84 30.81 292.84 25.74 284.06 20.67 292.84"/>
        <polygon class="cls-29" points="43.17 314.25 38.1 323.03 48.24 323.03 43.17 314.25"/>
        <polygon class="cls-207" points="78.03 374.62 72.96 383.4 83.1 383.4 78.03 374.62"/>
        <polygon class="cls-233" points="25.74 557.37 30.81 548.59 20.67 548.59 25.74 557.37"/>
        <polygon class="cls-174" points="43.17 527.18 48.24 518.4 38.1 518.4 43.17 527.18"/>
        <polygon class="cls-256" points="60.6 496.99 65.67 488.21 55.53 488.21 60.6 496.99"/>
        <polygon class="cls-106" points="78.03 466.81 83.1 458.02 72.96 458.02 78.03 466.81"/>
        <polygon class="cls-23" points="8.31 283.92 11.84 277.81 4.79 277.81 8.31 283.92"/>
        <polygon class="cls-93" points="39.65 338.19 43.17 344.3 46.69 338.19 39.65 338.19"/>
        <polygon class="cls-112" points="57.07 368.38 60.6 374.48 64.12 368.38 57.07 368.38"/>
        <polygon class="cls-316" points="74.5 398.57 78.03 404.67 81.55 398.57 74.5 398.57"/>
        <polygon class="cls-291" points="29.27 533.43 25.74 527.32 22.22 533.43 29.27 533.43"/>
        <polygon class="cls-297" points="46.69 503.24 43.17 497.13 39.65 503.24 46.69 503.24"/>
        <polygon class="cls-257" points="64.12 473.05 60.6 466.95 57.07 473.05 64.12 473.05"/>
        <polygon class="cls-231" points="6.33 321.24 10.29 321.24 8.31 317.81 6.33 321.24"/>
        <polygon class="cls-33" points="23.76 351.43 27.72 351.43 25.74 348 23.76 351.43"/>
        <polygon class="cls-24" points="10.29 520.19 6.33 520.19 8.31 523.62 10.29 520.19"/>
        <polygon class="cls-55" points="27.72 490 23.76 490 25.74 493.43 27.72 490"/>
        <polygon class="cls-40" points="45.15 459.81 41.19 459.81 43.17 463.24 45.15 459.81"/>
        <polygon class="cls-308" points="60.6 433.05 62.58 429.62 58.62 429.62 60.6 433.05"/>
        <polygon class="cls-103" points="13.38 383.4 8.31 374.62 3.24 383.4 13.38 383.4"/>
        <polygon class="cls-262" points="20.67 413.59 30.81 413.59 25.74 404.81 20.67 413.59"/>
        <polygon class="cls-143" points="3.24 458.02 8.31 466.81 13.38 458.02 3.24 458.02"/>
        <polygon class="cls-53" points="1.7 444.64 14.93 444.64 8.31 433.19 1.7 444.64"/>
        <polygon class="cls-193" points="144.65 600.05 130.31 575.21 115.97 600.05 144.65 600.05"/>
        <polygon class="cls-35" points="112.88 596.48 125.68 574.32 100.09 574.32 112.88 596.48"/>
        <polygon class="cls-92" points="106.7 598.27 95.46 578.78 84.21 598.27 106.7 598.27"/>
        <polygon class="cls-234" points="87.73 576.1 68.32 576.1 78.03 592.91 87.73 576.1"/>
        <polygon class="cls-213" points="60.6 582.35 52.44 596.48 68.76 596.48 60.6 582.35"/>
        <polygon class="cls-49" points="43.17 589.35 49.78 577.89 36.56 577.89 43.17 589.35"/>
        <polygon class="cls-196" points="8.31 585.78 11.84 579.67 4.79 579.67 8.31 585.78"/>
        <g>
          <polygon class="cls-260" points="231.34 110.84 238.39 110.84 234.86 104.74 231.34 110.84"/>
          <polygon class="cls-130" points="252.29 74.55 248.77 80.65 255.82 80.65 252.29 74.55"/>
          <polygon class="cls-242" points="273.25 110.84 269.72 104.74 266.2 110.84 273.25 110.84"/>
          <polygon class="cls-169" points="250.31 97.6 252.29 101.03 254.27 97.6 250.31 97.6"/>
          <polygon class="cls-42" points="271.7 67.41 267.74 67.41 269.72 70.84 271.7 67.41"/>
          <polygon class="cls-282" points="269.72 14.03 274.79 5.25 264.65 5.25 269.72 14.03"/>
          <polygon class="cls-261" points="188.76 1.68 200.01 21.17 211.26 1.68 188.76 1.68"/>
          <polygon class="cls-230" points="149.28 240.53 165.16 268.05 181.04 240.53 149.28 240.53"/>
          <polygon class="cls-51" points="147.73 298.2 163.62 270.69 131.85 270.69 147.73 298.2"/>
          <polygon class="cls-211" points="269.73 193.39 273.25 187.29 266.21 187.29 269.73 193.39"/>
          <polygon class="cls-120" points="269.73 346.24 266.21 352.34 273.25 352.34 269.73 346.24"/>
          <polygon class="cls-216" points="252.3 193.54 247.23 202.32 257.37 202.32 252.3 193.54"/>
          <polygon class="cls-72" points="258.92 215.7 245.69 215.7 252.3 227.15 258.92 215.7"/>
          <polygon class="cls-94" points="217.45 372.86 210.83 384.31 224.06 384.31 217.45 372.86"/>
          <polygon class="cls-264" points="234.87 342.67 228.26 354.12 241.49 354.12 234.87 342.67"/>
          <polygon class="cls-70" points="217.45 189.97 209.29 204.1 225.6 204.1 217.45 189.97"/>
          <polygon class="cls-139" points="217.45 349.66 225.6 335.53 209.29 335.53 217.45 349.66"/>
          <polygon class="cls-300" points="244.14 275.15 252.3 289.28 260.46 275.15 244.14 275.15"/>
          <polygon class="cls-82" points="225.17 244.1 234.87 260.91 244.58 244.1 225.17 244.1"/>
          <polygon class="cls-243" points="188.77 236.07 211.27 236.07 200.02 216.59 188.77 236.07"/>
          <polygon class="cls-179" points="188.77 303.56 200.02 323.04 211.27 303.56 188.77 303.56"/>
          <polygon class="cls-299" points="234.87 434.88 238.4 428.77 231.35 428.77 234.87 434.88"/>
          <polygon class="cls-258" points="269.73 434.88 273.25 428.77 266.21 428.77 269.73 434.88"/>
          <polygon class="cls-298" points="222.51 443.8 217.45 435.02 212.38 443.8 222.51 443.8"/>
          <polygon class="cls-176" points="239.94 473.99 234.87 465.21 229.8 473.99 239.94 473.99"/>
          <polygon class="cls-101" points="274.8 534.37 269.73 525.59 264.66 534.37 274.8 534.37"/>
          <polygon class="cls-84" points="234.87 498.82 241.49 487.37 228.26 487.37 234.87 498.82"/>
          <polygon class="cls-204" points="269.73 559.2 276.34 547.75 263.12 547.75 269.73 559.2"/>
          <polygon class="cls-118" points="217.45 491.83 209.29 505.96 225.6 505.96 217.45 491.83"/>
          <polygon class="cls-152" points="234.87 522.02 226.72 536.15 243.03 536.15 234.87 522.02"/>
          <polygon class="cls-64" points="234.87 580.58 225.17 597.39 244.58 597.39 234.87 580.58"/>
          <polygon class="cls-212" points="188.77 537.93 211.27 537.93 200.02 518.45 188.77 537.93"/>
          <polygon class="cls-246" points="206.2 575.23 217.45 594.71 228.69 575.23 206.2 575.23"/>
          <polygon class="cls-238" points="169.79 513.99 182.59 536.15 195.38 513.99 169.79 513.99"/>
          <polygon class="cls-83" points="8.31 42.43 11.84 36.33 4.79 36.33 8.31 42.43"/>
          <polygon class="cls-34" points="162.08 26.52 147.74 1.68 133.4 26.52 162.08 26.52"/>
          <polygon class="cls-81" points="150.83 56.71 179.51 56.71 165.17 31.87 150.83 56.71"/>
          <polygon class="cls-12" points="185.69 117.08 214.36 117.08 200.03 92.25 185.69 117.08"/>
          <polygon class="cls-108" points="147.74 236.03 162.08 211.19 133.4 211.19 147.74 236.03"/>
          <polygon class="cls-137" points="150.83 181 165.17 205.84 179.51 181 150.83 181"/>
          <polygon class="cls-138" points="185.69 120.62 200.03 145.46 214.36 120.62 185.69 120.62"/>
          <polygon class="cls-16" points="143.11 236.92 130.31 214.76 117.52 236.92 143.11 236.92"/>
          <polygon class="cls-192" points="152.38 176.54 177.96 176.54 165.17 154.38 152.38 176.54"/>
          <polygon class="cls-172" points="124.13 24.73 112.88 5.25 101.63 24.73 124.13 24.73"/>
          <polygon class="cls-220" points="153.92 122.41 165.17 141.89 176.42 122.41 153.92 122.41"/>
          <polygon class="cls-248" points="95.46 198.7 103.61 184.57 87.3 184.57 95.46 198.7"/>
          <polygon class="cls-165" points="78.03 8.82 69.87 22.95 86.19 22.95 78.03 8.82"/>
          <polygon class="cls-131" points="71.41 34.54 78.03 46 84.64 34.54 71.41 34.54"/>
          <polygon class="cls-60" points="60.6 42.57 55.53 51.35 65.67 51.35 60.6 42.57"/>
          <polygon class="cls-134" points="95.46 102.95 90.39 111.73 100.52 111.73 95.46 102.95"/>
          <polygon class="cls-313" points="60.6 195.13 65.67 186.35 55.53 186.35 60.6 195.13"/>
          <polygon class="cls-191" points="11.84 261.76 8.31 255.65 4.79 261.76 11.84 261.76"/>
          <polygon class="cls-312" points="74.5 141 81.55 141 78.03 134.89 74.5 141"/>
          <polygon class="cls-185" points="6.33 19.38 10.29 19.38 8.31 15.95 6.33 19.38"/>
          <polygon class="cls-48" points="41.19 79.76 45.15 79.76 43.17 76.33 41.19 79.76"/>
          <polygon class="cls-162" points="60.6 131.19 62.58 127.76 58.62 127.76 60.6 131.19"/>
          <polygon class="cls-125" points="20.67 111.73 30.81 111.73 25.74 102.95 20.67 111.73"/>
          <polygon class="cls-252" points="3.24 156.16 8.31 164.94 13.38 156.16 3.24 156.16"/>
          <polygon class="cls-4" points="8.31 344.3 11.84 338.19 4.79 338.19 8.31 344.3"/>
          <polygon class="cls-294" points="185.69 422.48 200.03 447.32 214.36 422.48 185.69 422.48"/>
          <polygon class="cls-11" points="182.6 426.05 169.8 448.21 195.39 448.21 182.6 426.05"/>
          <polygon class="cls-121" points="106.7 296.41 95.46 276.92 84.21 296.41 106.7 296.41"/>
          <polygon class="cls-222" points="124.13 514.83 101.63 514.83 112.88 534.32 124.13 514.83"/>
          <polygon class="cls-105" points="158.99 454.46 136.49 454.46 147.74 473.94 158.99 454.46"/>
          <polygon class="cls-281" points="122.59 334.62 103.18 334.62 112.88 351.43 122.59 334.62"/>
          <polygon class="cls-197" points="157.44 395 138.04 395 147.74 411.81 157.44 395"/>
          <polygon class="cls-126" points="105.16 537 95.46 520.19 85.75 537 105.16 537"/>
          <polygon class="cls-303" points="122.59 506.81 112.88 490 103.18 506.81 122.59 506.81"/>
          <polygon class="cls-181" points="140.02 476.62 130.31 459.81 120.61 476.62 140.02 476.62"/>
          <polygon class="cls-287" points="121.04 456.24 104.72 456.24 112.88 470.37 121.04 456.24"/>
          <polygon class="cls-150" points="138.47 426.05 122.15 426.05 130.31 440.18 138.47 426.05"/>
          <polygon class="cls-240" points="78.03 310.68 69.87 324.81 86.19 324.81 78.03 310.68"/>
          <polygon class="cls-86" points="112.88 371.06 104.73 385.19 121.04 385.19 112.88 371.06"/>
          <polygon class="cls-25" points="43.17 287.48 49.78 276.03 36.56 276.03 43.17 287.48"/>
          <polygon class="cls-56" points="71.41 336.41 78.03 347.86 84.64 336.41 71.41 336.41"/>
          <polygon class="cls-90" points="60.6 344.44 55.53 353.22 65.67 353.22 60.6 344.44"/>
          <polygon class="cls-279" points="95.46 404.81 90.39 413.59 100.52 413.59 95.46 404.81"/>
          <polygon class="cls-295" points="95.46 436.62 100.52 427.84 90.39 427.84 95.46 436.62"/>
          <polygon class="cls-157" points="22.22 308 25.74 314.1 29.27 308 22.22 308"/>
          <polygon class="cls-184" points="11.84 563.62 8.31 557.51 4.79 563.62 11.84 563.62"/>
          <polygon class="cls-309" points="74.5 442.86 81.55 442.86 78.03 436.76 74.5 442.86"/>
          <polygon class="cls-318" points="41.19 381.62 45.15 381.62 43.17 378.19 41.19 381.62"/>
          <polygon class="cls-296" points="60.6 408.38 58.62 411.81 62.58 411.81 60.6 408.38"/>
          <polygon class="cls-195" points="25.74 436.62 30.81 427.84 20.67 427.84 25.74 436.62"/>
          <polygon class="cls-167" points="8.31 408.24 14.93 396.78 1.7 396.78 8.31 408.24"/>
          <polygon class="cls-200" points="20.67 594.7 30.81 594.7 25.74 585.92 20.67 594.7"/>
        </g>
      </g>
    </g>
  </g>
</svg>