<?xml version="1.0" encoding="UTF-8"?>
<svg id="_Слой_2" data-name="Слой 2" xmlns="http://www.w3.org/2000/svg" viewBox="0 0 287.88 63.05">
  <defs>
    <style>
      .cls-1 {
        fill: #202020;
      }
    </style>
  </defs>
  <g id="_Слой_1-2" data-name="Слой 1">
    <g>
      <polygon class="cls-1" points="9.38 63.05 12.54 57.58 6.22 57.58 9.38 63.05"/>
      <polygon class="cls-1" points="27.38 63.05 30.54 57.58 24.22 57.58 27.38 63.05"/>
      <polygon class="cls-1" points="45.38 63.05 48.54 57.58 42.22 57.58 45.38 63.05"/>
      <polygon class="cls-1" points="63.38 63.05 66.54 57.58 60.22 57.58 63.38 63.05"/>
      <polygon class="cls-1" points="81.38 63.05 84.54 57.58 78.22 57.58 81.38 63.05"/>
      <polygon class="cls-1" points="99.38 63.05 102.54 57.58 96.22 57.58 99.38 63.05"/>
      <polygon class="cls-1" points="117.38 63.05 120.54 57.58 114.22 57.58 117.38 63.05"/>
      <polygon class="cls-1" points="135.38 63.05 138.54 57.58 132.22 57.58 135.38 63.05"/>
      <polygon class="cls-1" points="153.38 63.05 156.54 57.58 150.22 57.58 153.38 63.05"/>
      <polygon class="cls-1" points="171.38 63.05 174.54 57.58 168.22 57.58 171.38 63.05"/>
      <polygon class="cls-1" points="189.38 63.05 192.54 57.58 186.22 57.58 189.38 63.05"/>
      <polygon class="cls-1" points="207.38 63.05 210.54 57.58 204.22 57.58 207.38 63.05"/>
      <polygon class="cls-1" points="225.38 63.05 228.54 57.58 222.22 57.58 225.38 63.05"/>
      <polygon class="cls-1" points="243.38 63.05 246.54 57.58 240.22 57.58 243.38 63.05"/>
      <polygon class="cls-1" points="261.38 63.05 264.54 57.58 258.22 57.58 261.38 63.05"/>
      <polygon class="cls-1" points="279.38 63.05 282.54 57.58 276.22 57.58 279.38 63.05"/>
      <polygon class="cls-1" points="0 53.2 3.87 46.5 0 46.5 0 53.2"/>
      <polygon class="cls-1" points="17.89 53.41 21.87 46.5 13.9 46.5 17.89 53.41"/>
      <polygon class="cls-1" points="35.89 53.41 39.87 46.5 31.9 46.5 35.89 53.41"/>
      <polygon class="cls-1" points="53.89 53.41 57.87 46.5 49.9 46.5 53.89 53.41"/>
      <polygon class="cls-1" points="71.89 53.41 75.87 46.5 67.9 46.5 71.89 53.41"/>
      <polygon class="cls-1" points="89.89 53.41 93.87 46.5 85.9 46.5 89.89 53.41"/>
      <polygon class="cls-1" points="107.89 53.41 111.87 46.5 103.9 46.5 107.89 53.41"/>
      <polygon class="cls-1" points="125.89 53.41 129.87 46.5 121.9 46.5 125.89 53.41"/>
      <polygon class="cls-1" points="143.89 53.41 147.87 46.5 139.9 46.5 143.89 53.41"/>
      <polygon class="cls-1" points="161.89 53.41 165.87 46.5 157.9 46.5 161.89 53.41"/>
      <polygon class="cls-1" points="179.89 53.41 183.87 46.5 175.9 46.5 179.89 53.41"/>
      <polygon class="cls-1" points="197.89 53.41 201.87 46.5 193.9 46.5 197.89 53.41"/>
      <polygon class="cls-1" points="215.89 53.41 219.87 46.5 211.9 46.5 215.89 53.41"/>
      <polygon class="cls-1" points="233.89 53.41 237.87 46.5 229.9 46.5 233.89 53.41"/>
      <polygon class="cls-1" points="251.89 53.41 255.87 46.5 247.9 46.5 251.89 53.41"/>
      <polygon class="cls-1" points="269.89 53.41 273.87 46.5 265.9 46.5 269.89 53.41"/>
      <polygon class="cls-1" points="287.88 53.41 287.88 46.5 283.89 46.5 287.88 53.41"/>
      <polygon class="cls-1" points="14.53 33.97 3.24 33.97 8.89 43.75 14.53 33.97"/>
      <polygon class="cls-1" points="32.53 33.97 21.24 33.97 26.89 43.75 32.53 33.97"/>
      <polygon class="cls-1" points="50.53 33.97 39.24 33.97 44.89 43.75 50.53 33.97"/>
      <polygon class="cls-1" points="68.53 33.97 57.24 33.97 62.89 43.75 68.53 33.97"/>
      <polygon class="cls-1" points="86.53 33.97 75.24 33.97 80.89 43.75 86.53 33.97"/>
      <polygon class="cls-1" points="104.53 33.97 93.24 33.97 98.89 43.75 104.53 33.97"/>
      <polygon class="cls-1" points="122.53 33.97 111.24 33.97 116.89 43.75 122.53 33.97"/>
      <polygon class="cls-1" points="140.53 33.97 129.24 33.97 134.89 43.75 140.53 33.97"/>
      <polygon class="cls-1" points="158.53 33.97 147.24 33.97 152.89 43.75 158.53 33.97"/>
      <polygon class="cls-1" points="176.53 33.97 165.24 33.97 170.89 43.75 176.53 33.97"/>
      <polygon class="cls-1" points="194.53 33.97 183.24 33.97 188.89 43.75 194.53 33.97"/>
      <polygon class="cls-1" points="212.53 33.97 201.24 33.97 206.89 43.75 212.53 33.97"/>
      <polygon class="cls-1" points="230.53 33.97 219.24 33.97 224.89 43.75 230.53 33.97"/>
      <polygon class="cls-1" points="248.53 33.97 237.24 33.97 242.89 43.75 248.53 33.97"/>
      <polygon class="cls-1" points="266.53 33.97 255.24 33.97 260.89 43.75 266.53 33.97"/>
      <polygon class="cls-1" points="284.53 33.97 273.24 33.97 278.89 43.75 284.53 33.97"/>
      <polygon class="cls-1" points="0 30.17 6.94 18.16 0 18.16 0 30.17"/>
      <polygon class="cls-1" points="24.94 18.15 10.83 18.15 17.89 30.38 24.94 18.15"/>
      <polygon class="cls-1" points="42.94 18.15 28.83 18.15 35.89 30.38 42.94 18.15"/>
      <polygon class="cls-1" points="60.94 18.15 46.83 18.15 53.89 30.38 60.94 18.15"/>
      <polygon class="cls-1" points="78.94 18.15 64.83 18.15 71.89 30.38 78.94 18.15"/>
      <polygon class="cls-1" points="96.94 18.15 82.83 18.15 89.89 30.38 96.94 18.15"/>
      <polygon class="cls-1" points="114.94 18.15 100.83 18.15 107.89 30.38 114.94 18.15"/>
      <polygon class="cls-1" points="132.94 18.15 118.83 18.15 125.89 30.38 132.94 18.15"/>
      <polygon class="cls-1" points="150.94 18.15 136.83 18.15 143.89 30.38 150.94 18.15"/>
      <polygon class="cls-1" points="168.94 18.15 154.83 18.15 161.89 30.38 168.94 18.15"/>
      <polygon class="cls-1" points="186.94 18.15 172.83 18.15 179.89 30.38 186.94 18.15"/>
      <polygon class="cls-1" points="204.94 18.15 190.83 18.15 197.89 30.38 204.94 18.15"/>
      <polygon class="cls-1" points="222.94 18.15 208.83 18.15 215.89 30.38 222.94 18.15"/>
      <polygon class="cls-1" points="240.94 18.15 226.83 18.15 233.89 30.38 240.94 18.15"/>
      <polygon class="cls-1" points="258.94 18.15 244.83 18.15 251.89 30.38 258.94 18.15"/>
      <polygon class="cls-1" points="276.94 18.15 262.83 18.15 269.89 30.38 276.94 18.15"/>
      <polygon class="cls-1" points="280.82 18.16 287.88 30.38 287.88 18.16 280.82 18.16"/>
      <polygon class="cls-1" points="16.78 0 0 0 8.39 14.54 16.78 0"/>
      <polygon class="cls-1" points="35.28 0 18.49 0 26.89 14.54 35.28 0"/>
      <polygon class="cls-1" points="53.28 0 36.49 0 44.89 14.54 53.28 0"/>
      <polygon class="cls-1" points="71.28 0 54.49 0 62.89 14.54 71.28 0"/>
      <polygon class="cls-1" points="89.28 0 72.49 0 80.89 14.54 89.28 0"/>
      <polygon class="cls-1" points="107.28 0 90.49 0 98.89 14.54 107.28 0"/>
      <polygon class="cls-1" points="125.28 0 108.49 0 116.89 14.54 125.28 0"/>
      <polygon class="cls-1" points="143.28 0 126.49 0 134.89 14.54 143.28 0"/>
      <polygon class="cls-1" points="161.28 0 144.49 0 152.89 14.54 161.28 0"/>
      <polygon class="cls-1" points="179.28 0 162.49 0 170.89 14.54 179.28 0"/>
      <polygon class="cls-1" points="197.28 0 180.49 0 188.89 14.54 197.28 0"/>
      <polygon class="cls-1" points="215.28 0 198.49 0 206.89 14.54 215.28 0"/>
      <polygon class="cls-1" points="233.28 0 216.49 0 224.89 14.54 233.28 0"/>
      <polygon class="cls-1" points="251.28 0 234.49 0 242.89 14.54 251.28 0"/>
      <polygon class="cls-1" points="269.28 0 252.49 0 260.89 14.54 269.28 0"/>
      <polygon class="cls-1" points="287.28 0 270.49 0 278.89 14.54 287.28 0"/>
    </g>
  </g>
</svg>