<?xml version="1.0" encoding="UTF-8"?>
<svg id="_Слой_2" data-name="Слой 2" xmlns="http://www.w3.org/2000/svg" viewBox="0 0 204.56 124.21">
  <defs>
    <style>
      .cls-1 {
        fill: #f0500a;
      }
    </style>
  </defs>
  <g id="_Слой_1-2" data-name="Слой 1">
    <path class="cls-1" d="M110.71,0h52.9c20.31,0,33.91,13.43,33.91,33.74,0,10.07-4.03,18.63-11.25,24.51,11.41,5.54,18.3,15.61,18.3,28.37,0,22.49-17.12,37.6-42.8,37.6H95.63m44.4-74.69h10.07c6.04,0,10.07-4.2,10.07-10.58s-3.86-10.41-9.73-10.41h-10.41v20.98Zm27.19,33.9c0-7.22-4.7-12.08-11.92-12.08h-15.27v24.34h14.94c7.39,0,12.25-4.87,12.25-12.25Z"/>
    <path d="M126.39,96.85v27.36h-58.08v-27.36h11.75v-21.82H46.33v21.82h11.58v27.36H0v-27.36H11.75V27.36H0V0H57.91V27.36h-11.58v19.13h33.74V27.36h-11.75V0h58.08V27.36h-11.75V96.85h11.75Z"/>
  </g>
</svg>