<?xml version="1.0" encoding="UTF-8"?>
<svg id="_Слой_2" data-name="Слой 2" xmlns="http://www.w3.org/2000/svg" viewBox="0 0 409.42 496">
  <g id="_Слой_3" data-name="Слой 3">
    <path d="M204.71,0c-60.64,0-109.92,49.28-109.92,109.92s49.28,109.76,109.92,109.76,109.92-49.28,109.92-109.76c0-60.64-49.28-109.92-109.92-109.92Zm197.92,389.76c-12-81.92-83.36-143.68-166.24-143.68h-63.36c-82.88,0-154.24,61.76-166.24,143.68L.55,431.84c-2.24,16.16,2.4,32.48,13.12,44.8,10.56,12.32,26.08,19.36,42.4,19.36H353.35c16.32,0,31.84-7.04,42.4-19.36,10.72-12.32,15.36-28.64,13.12-44.8l-6.24-42.08Z"/>
  </g>
</svg>