<?xml version="1.0" encoding="UTF-8"?>
<svg id="_Слой_2" data-name="Слой 2" xmlns="http://www.w3.org/2000/svg" viewBox="0 0 42.15 30.95">
  <g id="_Слой_1-2" data-name="Слой 1">
    <path d="M42.15,4.36V26.59c-.02,.05-.05,.1-.06,.15-.59,2.73-2.42,4.21-5.21,4.21-10.59,0-21.18,0-31.77,0C2.15,30.95,0,28.81,0,25.87,0,18.94,0,12.01,0,5.08c0-.41,.03-.83,.12-1.22C.67,1.52,2.63,0,5.1,0,15.66,0,26.23,0,36.79,0c.19,0,.38,0,.58,0,1.56,.08,2.81,.73,3.78,1.96,.56,.71,.82,1.54,1,2.4ZM3.29,5.95c0,.17,0,.23,0,.3,0,6.54,0,13.09,0,19.63,0,1.09,.68,1.77,1.78,1.77,10.66,0,21.32,0,31.98,0,1.12,0,1.8-.67,1.8-1.79,0-6.52,0-13.03,0-19.55,0-.1-.02-.2-.04-.33-.2,.15-.35,.26-.51,.37-5.61,4.17-11.22,8.35-16.83,12.53-.3,.22-.48,.25-.8,.01C15.07,14.7,9.44,10.52,3.82,6.34c-.15-.11-.3-.22-.53-.39ZM36.88,3.31H5.27c5.32,3.95,10.55,7.85,15.81,11.76,5.25-3.91,10.49-7.8,15.81-11.76Z"/>
  </g>
</svg>