<?xml version="1.0" encoding="UTF-8"?>
<svg id="_Слой_2" data-name="Слой 2" xmlns="http://www.w3.org/2000/svg" viewBox="0 0 188.11 188.14">
  <g id="Layer_1" data-name="Layer 1">
    <path d="M120.52,120.3c-.68-3.1-3.2-5.47-6.34-5.94-8.69-1.37-14.8-9.41-13.83-17.93,.13-1.16,.4-2.29,.79-3.39,1-2.89-.03-6.24-2.52-8.33-5.25-4.54-11.21-8.18-17.64-10.81-2.88-1.22-6.24-.33-8.12,2.18-5.04,6.66-14.52,7.98-21.18,2.94-.11-.08-.22-.16-.33-.25-.97-.78-1.84-1.68-2.59-2.69-1.89-2.5-5.23-3.4-8.11-2.18-5.93,2.42-11.47,5.71-16.42,9.76-2.61,2.12-3.7,5.59-2.64,8.58,2.96,7.86-1.03,17.07-9.16,20.43-1.45,.6-2.97,1-4.53,1.17-3.26,.39-5.92,2.77-6.67,5.96-1.49,6.61-1.62,13.44-.39,20.1,.65,3.3,3.36,5.79,6.69,6.17,8.7,.91,15.16,8.6,14.61,17.15-.11,1.72-.52,3.41-1.2,5-1.28,2.97-.29,6.57,2.37,8.76,5.22,4.46,11.12,8.06,17.48,10.66,.79,.3,1.62,.47,2.47,.51,2.33,.04,4.52-1.11,5.8-3.05,4.61-6.94,13.98-8.82,20.91-4.2,1.52,1.01,2.85,2.29,3.91,3.78,1.89,2.69,5.43,3.64,8.42,2.27,5.82-2.58,11.23-5.98,16.06-10.12,2.53-2.14,3.56-5.56,2.48-8.49-3.06-7.82,.84-17.06,8.93-20.5,1.36-.58,2.81-.98,4.28-1.18,3.21-.47,5.78-2.88,6.45-6.05,.7-3.25,1.08-6.56,1.13-9.87,0-3.51-.37-7-1.1-10.42Zm-59.71,30.69c-11.2,0-20.27-9.07-20.28-20.27,0-11.2,9.08-20.27,20.27-20.28,5.59,.03,10.64,2.31,14.31,5.97,3.66,3.67,5.94,8.72,5.97,14.31,0,11.19-9.07,20.27-20.27,20.27Z"/>
    <path d="M186.64,137.04c-3.52-3.02-4.06-8.25-1.25-11.93,.38-.48,.81-.92,1.3-1.3,1.27-1.1,1.74-2.87,1.18-4.46-1.11-3.51-2.78-6.81-4.95-9.78-.96-1.35-2.72-1.88-4.27-1.28-4.12,1.6-8.76-.43-10.36-4.55-.03-.08-.06-.15-.08-.23-.22-.62-.36-1.27-.42-1.93-.15-1.65-1.41-2.98-3.05-3.24-3.35-.56-6.76-.62-10.12-.16-1.73,.2-3.16,1.45-3.58,3.14-.85,4.36-5.21,7.41-9.81,6.66-.82-.13-1.61-.38-2.36-.74-1.57-.73-3.44-.4-4.66,.83-2.51,2.57-4.47,5.61-5.76,8.95-.63,1.67-.1,3.55,1.3,4.65,3.65,2.82,4.44,8.01,1.81,11.8-.52,.75-1.18,1.4-1.92,1.92-1.43,1.07-1.99,2.96-1.37,4.63,1.11,3.46,2.77,6.72,4.92,9.66,.27,.35,.6,.67,.97,.91,1.04,.67,2.34,.76,3.46,.24,4.01-1.84,8.76-.08,10.6,3.93,.4,.88,.64,1.82,.71,2.78,.1,1.73,1.43,3.14,3.14,3.36,3.34,.46,6.73,.43,10.06-.09,1.71-.23,3.09-1.49,3.48-3.16,.79-4.37,5.12-7.46,9.73-6.76,.78,.12,1.54,.34,2.26,.67,1.58,.68,3.41,.3,4.6-.94,1.22-1.27,2.31-2.65,3.26-4.13,.97-1.58,1.78-3.25,2.4-5,.56-1.59,.08-3.36-1.21-4.44Zm-19.47-1.84c-3.12,5.05-9.73,6.62-14.78,3.5-5.05-3.11-6.62-9.73-3.5-14.77,3.11-5.05,9.73-6.62,14.77-3.51t0,0c5.02,3.13,6.58,9.72,3.5,14.77Z"/>
    <path d="M187.21,37.84c-.56-2.49-2.59-4.39-5.11-4.78v-.02c-7-1.11-11.93-7.59-11.14-14.45,.1-.93,.31-1.85,.63-2.73,.8-2.33-.02-5.03-2.03-6.71-4.24-3.66-9.04-6.6-14.22-8.71-2.33-.99-5.04-.25-6.55,1.77-4.07,5.37-11.71,6.43-17.09,2.36-.08-.07-.17-.13-.25-.2-.78-.63-1.48-1.36-2.08-2.16-1.52-2.01-4.21-2.74-6.54-1.76-4.78,1.94-9.24,4.6-13.22,7.87-2.1,1.71-2.98,4.5-2.13,6.91,2.39,6.33-.83,13.76-7.38,16.46-1.17,.48-2.4,.8-3.65,.94-2.62,.31-4.76,2.21-5.37,4.77-1.2,5.33-1.31,10.84-.32,16.2,.53,2.65,2.71,4.66,5.41,4.97,7,.74,12.21,6.94,11.75,13.83-.08,1.39-.41,2.76-.95,4.04-1.03,2.4-.23,5.3,1.91,7.07,4.21,3.59,8.96,6.49,14.09,8.58,.63,.25,1.31,.39,1.99,.41,1.88,.04,3.64-.89,4.67-2.45,3.72-5.59,11.27-7.11,16.85-3.39,1.23,.82,2.3,1.85,3.15,3.05,1.52,2.15,4.36,2.92,6.76,1.84,4.69-2.08,9.05-4.83,12.95-8.16,2.04-1.72,2.86-4.48,2-6.84-2.47-6.3,.67-13.75,7.19-16.53,1.11-.47,2.27-.79,3.45-.95,2.59-.37,4.66-2.32,5.21-4.88,.56-2.62,.86-5.28,.91-7.97,0-2.82-.3-5.63-.88-8.38Zm-48.13,24.72c-9.02,0-16.34-7.32-16.34-16.34s7.32-16.34,16.34-16.34c4.5,.02,8.58,1.85,11.53,4.81,2.95,2.96,4.78,7.03,4.81,11.53,0,9.02-7.32,16.34-16.34,16.34Z"/>
  </g>
</svg>