<?xml version="1.0" encoding="UTF-8"?>
<svg id="_Слой_2" data-name="Слой 2" xmlns="http://www.w3.org/2000/svg" viewBox="0 0 298.46 45.54">
  <g id="_Слой_1-2" data-name="Слой 1">
    <g>
      <path d="M46.34,35.51v10.03H25.05v-10.03h4.31v-8h-12.37v8h4.25v10.03H0v-10.03H4.31V10.03H0V0H21.23V10.03h-4.25v7.02h12.37v-7.02h-4.31V0h21.29V10.03h-4.31v25.48h4.31Z"/>
      <path d="M95.94,35.51v10.03h-21.23v-10.03h4.18l-.92-3.57h-11.2l-.92,3.57h4.12v10.03h-21.23v-10.03h4.12l8.06-25.66h-4.55V0h24.31l11.2,35.51h4.06Zm-20.49-13.11l-3.08-11.94-3.14,11.94h6.22Z"/>
      <path d="M144.61,10.89h-4.31V45.54h-8.31l-17.29-22.34,.12,12.31h4.37v10.03h-21.23v-10.03h4.31V10.89h-4.31V0h12.74l17.29,22.34-.18-11.45h-4.49V0h21.29V10.89Z"/>
      <path d="M188,31.75c0,8.25-6.28,13.79-15.69,13.79h-24.25v-10.03h4.31V10.03h-4.31V0h24.92c7.45,0,12.43,4.92,12.43,12.37,0,3.69-1.48,6.83-4.12,8.98,4.18,2.03,6.71,5.72,6.71,10.4Zm-22.95-13.6h3.69c2.21,0,3.69-1.54,3.69-3.88s-1.42-3.82-3.57-3.82h-3.82v7.69Zm9.97,12.43c0-2.64-1.72-4.43-4.37-4.43h-5.6v8.92h5.48c2.71,0,4.49-1.78,4.49-4.49Z"/>
      <path d="M207.93,10.03v25.48h4.25v10.03h-21.23v-10.03h4.31V10.03h-4.31V0h21.23V10.03h-4.25Z"/>
      <path d="M251.5,28.31v17.23h-35.2v-10.03h4.31V10.03h-4.31V0h22.46V10.03h-5.48v25.04h6.15v-6.77h12.06Z"/>
      <path d="M298.46,22.65c0,13.72-8.99,22.89-22.46,22.89h-21.54v-10.03h4.31V10.03h-4.31V0h21.54c13.48,0,22.46,9.05,22.46,22.65Zm-13.05,0c0-7.32-3.94-12.19-9.85-12.19h-4.12v24.62h4.12c5.91,0,9.85-4.98,9.85-12.43Z"/>
    </g>
  </g>
</svg>