<?xml version="1.0" encoding="UTF-8"?>
<svg id="_Слой_2" data-name="Слой 2" xmlns="http://www.w3.org/2000/svg" viewBox="0 0 291.08 258.85">
  <defs>
    <style>
      .cls-1, .cls-2, .cls-3, .cls-4, .cls-5, .cls-6, .cls-7, .cls-8, .cls-9, .cls-10, .cls-11, .cls-12, .cls-13, .cls-14, .cls-15, .cls-16, .cls-17, .cls-18, .cls-19, .cls-20, .cls-21 {
        fill-rule: evenodd;
      }

      .cls-1, .cls-22 {
        fill: #1d3264;
      }

      .cls-2 {
        fill: #101d39;
      }

      .cls-3 {
        fill: #fff;
      }

      .cls-4 {
        fill: #bababa;
      }

      .cls-5, .cls-23 {
        fill: #192649;
      }

      .cls-6 {
        fill: #cf5119;
      }

      .cls-7 {
        fill: #b24015;
      }

      .cls-8 {
        fill: #b97d7b;
      }

      .cls-9 {
        fill: #c75519;
      }

      .cls-10 {
        fill: #bd4726;
      }

      .cls-11 {
        fill: #83431b;
      }

      .cls-12 {
        fill: #4a3c33;
      }

      .cls-13 {
        fill: #d1c9cc;
      }

      .cls-14 {
        fill: #7081a6;
      }

      .cls-15 {
        fill: #bd8c80;
      }

      .cls-16 {
        fill: #c8a99d;
      }

      .cls-17 {
        fill: #e0c1c1;
      }

      .cls-18 {
        fill: #554345;
      }

      .cls-19 {
        fill: #c7621b;
      }

      .cls-24 {
        font-family: BwGlennSlab-Black, 'Bw Glenn Slab';
        font-size: 9.47px;
        font-weight: 800;
      }

      .cls-24, .cls-21 {
        fill: #d15119;
      }

      .cls-20 {
        fill: #29457c;
      }
    </style>
  </defs>
  <g id="OBJECTS">
    <path class="cls-4" d="M181.93,253.6c-59.53,5.96-97.97,9.32-138.64-10.66-28.44-13.97-36.19-28.66-39.06-35.8-1.43-3.56-7.62-18.95-1.73-34.49,1.87-4.93,4.54-8.78,24.51-28.4,7.81-7.67,14.47-14.02,19.34-18.61,2.58-3.71,5.54-9.3,5.36-16-.41-15.17-16.5-19.21-19.92-33.52-3.84-16.08,10.85-34.54,23.74-43.42,7.31-5.03,18.53-10.05,51.85-8.69,43.86,1.8,86.68,3.56,106.7,33.06,3.01,4.43,14.97,22.07,9.19,37.32-4.81,12.68-19.38,17.13-18.53,28.2,.32,4.23,1.9,7.88,7.67,12.46,9.49,7.55,21.88,14.99,30.17,22.91,1.2,1.15,5.22,5.63,9.26,12.29,4.23,6.98,6.64,13.49,7.52,16.61,4.26,14.99-3.11,34.46-12.6,45.72-9.25,10.99-22.72,16.78-64.85,21Z"/>
    <path class="cls-17" d="M180.35,209.14c13.6,22.44,31.96,27.88,31.96,27.88l17-32.64-32.64-21.08-16.32,25.84Z"/>
    <path class="cls-17" d="M42.21,184.16c-3.43,3.87-21.63,24.92-15.01,38.22,1.7,3.43,4.5,5.22,6.18,6.24,18.72,11.32,52.24,18.37,63.82,20.64,1.92-3.79,3.83-7.57,5.75-11.36-7.49-5.83-13.85-10.47-18.5-13.79-8.76-6.24-16.59-11.42-15.62-14.04,.49-1.31,2.75-.81,3.4-1.97,1.16-2.06-3.35-8.34-25.76-25.84-1.42,.63-2.84,1.26-4.26,1.89Z"/>
    <path class="cls-16" d="M70.51,215.75c-.12-.16-2.71-3.53-1.24-7.25,.92-2.32,2.86-3.39,3.44-3.68l-24.22-10.61c-5.66-1.28-9.76-1.97-9.76-1.97,.04-.36,.06-.67,.07-.94,.02-.61,.01-.66-.02-.7-.15-.17-.75-.03-2.63,1.22-.7,.95-1.39,1.91-2.09,2.86,5.25,.2,9.49,1.08,12.47,1.9,3.41,.94,6.14,1.72,9.11,3.83,1.46,1.04,2.18,1.84,5.57,5.7,5.53,6.29,9.72,10.16,9.3,9.63Z"/>
    <path class="cls-5" d="M158.73,144.62c12.24,2.72,30.94,12.24,31.62,14.62,.37,1.29,6.56,10.46,12.97,19.08,5.37,7.22,11.17,14.23,11.17,14.23,0,0-14.79,17.85-21.59,17.85s-7.31,7.99-7.31,7.99c0,0-14.62-11.22-16.32-14.28-1.7-3.06-10.54-59.49-10.54-59.49Z"/>
    <path class="cls-1" d="M158.73,144.62c8.18,1.82,19.24,6.67,25.89,10.4,.25,.14-1.76,3.7-3.2,7.35-1.44,3.65-2.31,7.39-2.49,7.88-7.85,3.88-14.34-5.83-18.54-15.2-1-6.2-1.66-10.43-1.66-10.43Z"/>
    <path class="cls-21" d="M203.27,177.93c.68,4.25,3.91,8.5-4.25,15.13-8.16,6.63-25.16,15.3-25.16,15.3,0,0,1.36,5.1,2.89,5.1h1.53s2.04,7.14,5.1,6.63c3.06-.51,15.64-3.57,17.68-4.76,2.04-1.19,16.15-14.11,18.7-21.93,2.55-7.82-2.89-6.97-4.93-6.97s-2.55-3.74-4.25-6.97c-1.7-3.23-5.95-1.53-5.95-1.53h-1.36Z"/>
    <path class="cls-11" d="M189.72,199.45c-7.72,4.76-15.86,8.91-15.86,8.91,0,0,1.36,5.1,2.89,5.1h1.53s2.64,7.04,5.1,6.63c2.46-.41,7.88-1.21,11.75-2.49-3.47-2.05-7.3-6.3,1.78-9.87,9.08-3.57,12.75-15.3,12.75-15.3,0,0-2.21,5.61-8.33,9.86-5.08,3.53-10.27,3.43-11.6-2.83Z"/>
    <path class="cls-1" d="M100.95,135.44c-12.84,2.38-20.56,5.1-23.58,6.46-3.01,1.36-18.97,14.96-26.32,29.58-7.35,14.62-3.13,13.6-3.13,13.6l21.8,20.99,7.18-2.07,9.55-5.67,13.34,22.1-1.21,24.14s-8.04,3.4-4.89,6.12c3.15,2.72,23.74,8.16,23.74,8.16,4.05,0,15.16-1.13,25.19-1.42,5.98-.17,10.15,1.18,16.14-.08,10.36-2.18,17.78-9.01,20.99-13.12,.8-1.02-3.23-6.8-3.23-6.8,0,0,3.58-14.62,4.76-19.72,1.18-5.1,3.09-33.32-2.08-45.21-5.17-11.9-16.4-27.2-16.4-27.2,0,0-37.83-12.58-61.87-9.86Z"/>
    <path class="cls-5" d="M97.42,156.89c3.74-1.19,15.64-2.04,15.64-2.04l4.42,4.76,21.93,2.04,14.96-5.61-1.36-2.55,12.24,1.53s-21.76-13.94-22.95-14.62c-1.19-.68-37.4,1.36-44.88,16.49Z"/>
    <path class="cls-5" d="M69.17,205.53l.55,.53,7.18-2.07,9.55-5.67,13.34,22.1-1.21,24.14s-8.04,3.4-4.89,6.12c3.15,2.72,23.74,8.16,23.74,8.16h5.92c-.92-.38-1.9-.74-2.92-1.06-9.01-2.89-12.07-9.01-10.2-16.15,1.87-7.14,1.87-14.11,1.87-14.11,0,0,.34,.17,10.88,.17s24.82-6.97,24.82-6.97c0,0-30.77,1.53-35.87-1.87-5.1-3.4-15.3-27.88-18.53-41.31-3.23-13.43-10.03-20.4-10.03-20.4,0,0,3.91,13.6,2.89,15.98-1.02,2.38-8.84,9.52-15.64,15.98-.82,5.9-1.3,11.36-1.48,16.42Z"/>
    <path class="cls-11" d="M139.61,161.44c4.93-4.59,10.28-6.29,10.28-6.29l-2.55-5.95s19.21,7.48,18.36,6.29c-.85-1.19-19.72-23.12-25.33-26.18-5.61-3.06-6.29,12.24-6.29,12.24l5.52,19.89Z"/>
    <path class="cls-17" d="M103.32,95.32c4.08,35.36,3.4,35.36,3.4,35.36,0,0,3.4,9.52,18.02,20.4,14.62,10.88,14.87,10.37,14.87,10.37l-2.3-17.17,7.14-25.5-41.13-23.46Z"/>
    <path class="cls-16" d="M103.32,95.32c1.87,16.23,2.74,25.01,3.13,29.76,2.27,2.16,5.07,4.17,8.69,6.41,7.54,4.66,15.8,7.26,23.66,7.47l5.65-20.19-41.13-23.46Z"/>
    <path class="cls-21" d="M105.87,118.44c-1.87-.34-4.08,1.87-4.59,4.08-.51,2.21-.68,4.59-.68,4.59,0,0-3.4,4.08-3.91,5.44-.51,1.36,.34,24.82,.34,24.82,0,0,15.47-8.5,19.55-5.95,4.08,2.55,2.89,5.78,2.89,5.78l20.14,4.27c-8.25-5.06-32.05-30.64-32.21-31.81l-1.53-11.22Z"/>
    <path class="cls-21" d="M49.44,194.44c8.05,2.07,16.76,14.31,21.05,19.54,1.71,2.09,5.57-2.19,5.74-5.68,.02-.45,.06-3.19-.11-3.62,0,0,9.31-.75,7.7-3.4-8.33-13.7-21.03-26.52-40.25-25.25-8.21,.54-6.22,7.65-5.46,9.54,.76,1.89-1.02,1.28-3.39,4.06-2.37,2.78,.73,2.49,.73,2.49,.34,.85,3.3-.41,13.99,2.33Z"/>
    <path class="cls-11" d="M49.44,194.44c4.81,1.23,9.85,6.09,14.04,10.92,2.83,3.26,4.84,7.52,6.42,9.83,1.73,2.5,8.23-.35,7.71-7.57,0,0,7.81-3.7,6.2-6.35-.78-1.28-1.59-2.55-2.45-3.8-2.1,1.15-4.23,1.49-5.77-.27-4.21-4.84-10.73-7.93-10.73-7.93,0,0,4.96,5.23,6.65,8.24,1.68,3-.3,10.03-5.09,4.77-4.8-5.26-10.4-11.25-21.88-12.01-3.86,.57-6.76,1.26-8.87,2.06,.89,.39,4.3-.31,13.76,2.11Z"/>
    <path class="cls-17" d="M203.82,233.28c11.24,6.59,17.68,8.07,27.59-1.39,9.91-9.46,22.76-60.02,20.96-59.92l-12.15,.69s-11.37,13.55-25.61,23.85c-14.24,10.29-10.79,36.77-10.79,36.77Z"/>
    <path class="cls-15" d="M220.24,192.08c-10.83,9.94-13.29,12.8-16.66,27.54,.31-13.03,5.73-20.94,16.66-27.54Z"/>
    <path class="cls-5" d="M108.62,210.26c50.78,.79,68.22-20.7,68.22-20.7,0,0-19.35,40.93-68.22,20.7Z"/>
    <path class="cls-2" d="M182.24,203.3c.28-11.98-1.33-19.18-3.68-30.63-.53-2.61,2.1-8.29,3-10.85h0l-2.23,9.99,.25,.59c2.82,8.1,4.56,22.63,2.66,30.89Z"/>
    <path class="cls-2" d="M86.37,198.2c-1.8-8.95-.87-14.45,.73-23.26,.88-4.82,.94-4.01-.52-8.88-1.36-4.52-2.86-8.37-5.31-12.4,2.71,2.87,3.84,5.56,5.3,9.22,2.15,5.37,2.94,6.8,1.95,12.32-1.81,10.08-2.6,12.39-2.15,23Z"/>
    <path class="cls-2" d="M178.72,173.21c3.3-4.87,3.88-5.35,8.8-8.5-3.84,4.01-4.6,4.22-7.52,9.18-.19,.35-.63,.48-.98,.29-.35-.19-.48-.63-.29-.98Z"/>
    <path class="cls-16" d="M203.96,214.81c.1-.74,.23-1.46,.37-2.17-1.57,1.43-2.77,2.4-3.27,2.69-1.48,.87-8.54,2.72-13.46,3.86,5.74,6.7,11.61,11.06,16.19,13.79-.07-.6-.22-2.11-.29-4.2-4.79-3.4-8.12-7.12-8.12-7.12l8.5-6.63,.08-.22Z"/>
    <path class="cls-16" d="M213.96,233.84c-3.76-.86-7.41-2.89-10.46-5.06,.07,2.09,.22,3.6,.29,4.2,.02,.19,.03,.29,.03,.29,11.24,6.59,17.68,8.07,27.59-1.39,5.02-4.79,10.79-20.12,15.03-34.07,1.01-3.54,2.01-7.09,3.02-10.63-.06,.06-.76,.78-1.77,.62-.8-.13-1.24-.72-1.31-.84-.79,1.72-1.57,3.45-2.36,5.17-9.08,24.92-19.58,41.41-24.16,41.93-3.09,.35-5.89-.22-5.89-.22Z"/>
    <path class="cls-19" d="M182.8,219.96c7.48-.99,15.89-2.81,21.76-7.82-4.82,6.23-14.26,8.19-21.76,7.82Z"/>
    <path class="cls-11" d="M212.2,184.6c-1.61,15.16-11.58,22.32-25.61,25.71-1.12,.27-.96,.24-1.76,.29,.89-.38,.14-.08,1.67-.59,14.42-4.86,21.98-10.1,25.69-25.41Z"/>
    <path class="cls-11" d="M58.13,185.27c11.43,5.41,15.19,10.26,19.12,22.26-6.55-13.47-7.2-13.95-19.12-22.26Z"/>
    <path class="cls-19" d="M47.01,193.77c8.66,1.87,11.55,4.1,16.82,11.19,2.27,3.05,4.79,6.83,6.15,10.38-1.77-2.58-3.22-5.03-5.12-7.58-6.11-8.21-8.25-10.58-17.85-13.98Z"/>
    <path class="cls-11" d="M104.28,124.21c2.3,7.36,6.22,9.75,11.66,14.86,6.84,6.42,13.83,12.95,20.5,19.54,2.23,2.21,1.54,1.43,2.85,3-1.67-1.16-.86-.56-3.24-2.57-7.92-6.7-15.41-13.56-22.78-20.87-4.52-4.48-8.22-7.37-9-13.96Z"/>
    <path class="cls-21" d="M142.49,130.77c-4.2,2.74,2.91,14.95,4.84,18.31,.22,.08,1.28,.61,1.56,.72,2.47,.95,7.43,2.84,11.33,4.21,.62,.21,1.2,.42,1.75,.6,2.37,.79,3.98,1.24,3.72,.88-.3-.43-2.93-3.53-6.43-7.46-1.46-1.64-3.07-3.43-4.73-5.23-1.93-2.09-3.91-4.2-5.8-6.12-.5-.51-5.76-5.43-6.25-5.91Z"/>
    <g>
      <path class="cls-5" d="M135.52,0c4.08,.09,7.36,1.72,7.31,3.65-.04,1.92-3.39,3.41-7.47,3.32-4.08-.09-7.36-1.72-7.31-3.65,.04-1.92,3.39-3.41,7.47-3.32Z"/>
      <path class="cls-6" d="M182.02,57.51c6.36,5.93,6.29,14.74,6.29,14.74l-6.8-4.25s7.14,7.14,.34,11.9-13.26,8.16-13.26,8.16l2.36-27.79-7.97-12.88,16.32-2.04c1.83,4.92,3.89,6.47,2.72,12.16Z"/>
      <path class="cls-9" d="M182.02,57.51c.51,.47,.97,.97,1.41,1.47-2.77-2.13-5.88-5.36-7.68-9.96-.08-.21,.02-.44,.23-.52,.2-.08,.44,.02,.52,.23,1.36,3.48,3.5,6.15,5.65,8.14-.04,.21-.08,.42-.12,.64h0Zm6.29,14.68l-.64-.52-5.34-3.87c-.63-.98-8.32-13.01-11.95-21.34l-.82,.1c3.73,8.67,11.85,21.3,12.12,21.72,.03,.05,.06,.09,.11,.12l.25,.18c-.32-.38-.53-.59-.53-.59l6.8,4.25v-.06h0Zm-4.68,6.05c-.17,.22-.36,.44-.57,.66-2.18-5.12-9.7-13.82-12.27-16.71l.09-1.1c1.84,2.05,10.1,11.4,12.75,17.16h0Zm-13.23-18.86l-.93-1.5c-.3-2.7-.76-6.86-1.21-11.15l.33-.04c.71,4.94,1.45,10.18,1.81,12.69Z"/>
      <g>
        <path class="cls-17" d="M168.7,89.69c3.43-6.47,6.98-8.22,10.9-7.25,3.92,.96,5.19,9.98,2.18,17.1-3.01,7.12-9.3,10.62-12.52,9-3.22-1.62-5.28-9.57-.56-18.85Z"/>
        <path class="cls-15" d="M175.36,104.06c-3.33-3.43-3.53-7.89-4.89-7.67-1.36,.22,5.52-7.42,8.12-9.03,2.6-1.61,3.44,4.25,1.8,9.31-1.64,5.06-3.25,5.74-5.03,7.39Z"/>
        <path class="cls-10" d="M172.82,92.09c1.09-1.93,5.36-8.67,8.38-4.63,2.12,2.84-1.3,13.05-2.03,12.36,1.01-2.33,2.12-8.98,1.17-11.17-1.56-3.58-5.61,3.7-5.84,4.16-.2,.46-.73,.68-1.19,.48-.46-.2-.68-.73-.48-1.19Z"/>
      </g>
      <path class="cls-17" d="M100.73,104.58c3.61,11.2,7.29,15.68,17.48,21.98,20.07,12.41,45.33,10.23,54.11-12.83,2.95-7.74,1.64-19.07,3.08-31.95,1.44-12.88,3.26-32.82-16.74-40.76-20-7.94-74.1-14.44-61.61,40.77-1.5-1.91-2.81-1.87-3.96-3.08-1.85-1.95-3.7-2.89-5.91-2.88-6.96,0-11.09,5.31-11.82,10.55-1.72,12.29,11.67,24.64,23.57,19.66,3.61-1.51,1.29-.89,1.8-1.46Z"/>
      <path class="cls-16" d="M172.2,52.26c-2.64-4.61-6.88-8.59-13.55-11.23-3.06-1.21-6.93-2.4-11.22-3.33l-33.29,.52c-6.91,2.37-12.74,6.68-16.04,13.81,24.2,2.03,54.15,1.51,74.1,.23Z"/>
      <path class="cls-15" d="M94.73,102.73c-6.99-4.82-3.59-9.41-.16-9.53,3.43-.12-.83-9.62-7.36-10.92-6.52-1.3-8.9,6.45-4.94,12.45,3.96,6,8.02,6.39,12.46,7.99Z"/>
      <path class="cls-10" d="M80.54,89.63c-.62-2.95-.33-6,3-7.53,5.5-2.54,11.33,4.44,12.46,8.52,.07,.25,.31,2.4,.35,2.63h-.41c-6.65,.94-5.35,4.15-2.61,8.21-.86-.49-.75-.37-1.62-1.36-3.59-4.09-1.87-6.98,3.1-7.91l-.12-.54c-1.42-2.97-3.58-7.78-7.72-8.78-4.8-1.16-6.14,3.85-6.42,6.77Z"/>
      <path class="cls-13" d="M125.33,71.29c-7.82-.29-11.77,6.31-11.86,11.75-.12,7.44,19.43,10.98,21.54,3.27,.66-2.42-.03-5.4-.57-7.47-1-3.83-4.81-7.41-9.11-7.54Z"/>
      <path class="cls-3" d="M114,79.67c-.33,1.12-.51,2.27-.52,3.37-.12,7.44,19.43,10.98,21.54,3.27,.1-.36,.17-.74,.21-1.12-.2-1.04-.47-2.04-.72-2.88-1.13-3.85-5.29-7.5-9.92-7.7-5.06-.24-8.58,2.03-10.58,5.06Z"/>
      <path class="cls-14" d="M124.61,75.52c-3.18-.61-6.25,1.48-6.86,4.66-.61,3.18,1.48,6.26,4.66,6.87,3.18,.61,6.25-1.48,6.86-4.66,.61-3.18-1.48-6.25-4.66-6.86Z"/>
      <path class="cls-18" d="M124.16,77.86c-1.89-.36-3.72,.88-4.08,2.77-.36,1.89,.88,3.72,2.77,4.08,1.89,.36,3.71-.88,4.08-2.77,.36-1.89-.88-3.71-2.77-4.08Z"/>
      <path class="cls-3" d="M129.34,76.9c-.89-.17-1.74,.41-1.92,1.3-.17,.89,.41,1.75,1.3,1.91,.89,.17,1.75-.41,1.91-1.3,.17-.89-.41-1.74-1.3-1.91Z"/>
      <path class="cls-3" d="M118.92,83.65c-.61-.12-1.2,.28-1.32,.89-.12,.61,.28,1.2,.89,1.32,.61,.12,1.2-.28,1.32-.89,.12-.61-.28-1.2-.89-1.32Z"/>
      <path class="cls-18" d="M135.01,86.31c-.05-5.47-1.73-10.63-6-12.8-7.93-4.04-13.73,2.33-15.54,9.54-.33-9.06,8.36-15.78,16.38-11.15,4.78,2.76,6.84,8.66,5.16,14.41Z"/>
      <path class="cls-6" d="M113.31,67.17c3.82-9.98,18.64-9.86,20.58-2.2,.21,.81,.53,2.24-.11,2.05-8.88-2.61-11.22-2.04-20.47,.15Z"/>
      <path class="cls-13" d="M161.58,74.42c-6.12,.04-9.49,6.75-9.78,12.15-.4,7.39,14.78,10.09,16.75,2.35,.62-2.43,.2-5.36-.14-7.39-.62-3.75-3.47-7.15-6.83-7.11Z"/>
      <path class="cls-3" d="M152.77,81.86c-.57,1.55-.9,3.18-.98,4.71-.4,7.39,14.78,10.09,16.75,2.35,.22-.88,.31-1.82,.32-2.76-.09-.53-.19-1.03-.28-1.48-.77-3.78-3.98-7.25-7.7-7.27-3.63-.05-6.34,1.85-8.11,4.46Z"/>
      <path class="cls-14" d="M157.97,78.1c-2.57-.49-5.14,1.69-5.75,4.87-.61,3.18,.98,6.16,3.54,6.65,2.56,.49,5.14-1.69,5.75-4.87,.61-3.18-.97-6.16-3.54-6.65Z"/>
      <path class="cls-15" d="M151.29,94.35c-1.6,2.46-6.59,2.8-10.79-.16s-2.42,5.85,2.91,7.83c5.33,1.97,12.13-6.42,7.87-7.66Z"/>
      <path class="cls-18" d="M157.44,80.43c-1.52-.29-3.05,1-3.41,2.89-.36,1.89,.58,3.66,2.1,3.95,1.52,.29,3.05-1,3.42-2.89,.36-1.89-.58-3.66-2.1-3.95Z"/>
      <path class="cls-3" d="M161.72,79.3c-.69-.13-1.39,.48-1.56,1.37-.17,.89,.25,1.71,.94,1.85,.69,.13,1.39-.48,1.55-1.37,.17-.89-.25-1.71-.94-1.84Z"/>
      <path class="cls-3" d="M153.27,86.42c-.47-.09-.95,.33-1.07,.94-.12,.61,.17,1.18,.65,1.27,.47,.09,.95-.33,1.07-.94,.12-.61-.17-1.18-.65-1.27Z"/>
      <path class="cls-18" d="M168.47,88.91c.12-3.53-.28-7.09-1.47-9.66-1.24-2.68-3.43-4.01-5.8-4.01-5.45-.01-8.04,5.22-9.49,11.32,.03-2.68,.1-3.85,1.26-6.45,2.13-4.72,5.46-6.66,8.55-6.44,4.99,.35,9.34,6.33,6.94,15.24Z"/>
      <path class="cls-6" d="M170.93,73.63c.6-6.8-9.19-12.17-13.83-9.67-3.01,1.62-3.52,5.66-1.72,5.47,7.4-.78,9.04,.23,15.55,4.2Z"/>
      <path class="cls-18" d="M145.57,99.83c2.1-.93,7.41-3.17,4.41-6.5-1.53-1.7-3.71-1.1-5.62-.74,3.56-2.92,8.02-1.12,8.15,2.39,.14,3.73-3.75,4.95-6.95,4.85Z"/>
      <path class="cls-18" d="M145.55,99.8l.11-.05c1.06-.47,2.83-1.24,4-2.29,1.21-1.08,1.78-2.46,.29-4.11-1.39-1.55-3.34-1.17-5.12-.82-.16,.03-.31,.06-.47,.09l-.12,.02,.09-.08c1.18-.97,2.46-1.42,3.64-1.46,.75-.03,1.46,.1,2.09,.37,.63,.27,1.18,.67,1.6,1.18,.51,.63,.83,1.42,.87,2.32,0,.12,0,.24,0,.35-.05,1.59-.87,2.7-2.03,3.42-1.16,.72-2.68,1.05-4.14,1.11-.27,0-.54,0-.8,0h-.14s.12-.06,.12-.06h0Zm4.15-2.3c-1.17,1.05-2.93,1.83-4,2.3,.22,0,.44,0,.66,0,1.45-.05,2.95-.39,4.11-1.1,1.15-.71,1.96-1.8,2.01-3.37,0-.11,0-.23,0-.35-.04-.89-.35-1.67-.86-2.29-.41-.5-.95-.9-1.58-1.16-.62-.26-1.33-.4-2.07-.37-1.14,.04-2.37,.47-3.51,1.37l.35-.07c1.8-.35,3.76-.73,5.18,.84,1.51,1.68,.93,3.09-.3,4.2Z"/>
      <path class="cls-6" d="M166.55,17.21c5.1,9.52,3.74,24.82,.17,28.05-3.57,3.23-49.98-.68-50.31-2.72-.34-2.04,18.7-36.2,50.15-25.33Z"/>
      <path class="cls-9" d="M168.86,41.05c-.54,1.94-1.28,3.43-2.14,4.21-3.57,3.23-49.98-.68-50.31-2.72-.24-1.42,8.98-18.52,25.27-24.99,1.96-.26,3.96-.39,6.01-.38-7.99,5.72-11.86,12.31-13.7,16.82-2.41,5.91,.22,4.9,5.03,5.74l29.84,1.32Z"/>
      <g>
        <path class="cls-16" d="M163.96,94.85c4.1-.87,8,.64,8.71,3.36,.71,2.72-2.03,5.62-6.13,6.49-4.1,.87-8-.64-8.71-3.36-.71-2.72,2.03-5.62,6.13-6.49Z"/>
        <path class="cls-15" d="M164.56,97.38c.09-.2,.32-.3,.52-.21s.3,.32,.21,.53c-1.02,2.37-2.11,3.51-2.11,3.51-.15,.16-.41,.17-.57,.01-.16-.15-.17-.41-.01-.57,0,0,.99-1.04,1.96-3.27Z"/>
        <path class="cls-15" d="M167.63,97.23c.06-.21,.29-.33,.5-.27,.21,.07,.33,.29,.26,.5-.5,1.61-2.72,4.34-2.73,4.35-.14,.17-.39,.2-.56,.06-.17-.14-.2-.39-.06-.56,0,0,2.12-2.62,2.58-4.08Z"/>
      </g>
      <g>
        <path class="cls-16" d="M118.65,91.22c4.55,.13,8.29,2.71,8.34,5.77,.06,3.05-3.58,5.42-8.13,5.29-4.55-.13-8.29-2.71-8.34-5.77-.06-3.05,3.58-5.42,8.13-5.29Z"/>
        <path class="cls-15" d="M118.66,94.07c.13-.18,.38-.21,.56-.08,.18,.13,.21,.38,.08,.56-1.68,2.24-3.12,3.16-3.12,3.16-.19,.12-.43,.07-.55-.12-.12-.19-.07-.43,.12-.55,0,0,1.32-.85,2.91-2.97Z"/>
        <path class="cls-15" d="M121.94,94.7c.11-.19,.36-.25,.55-.14,.19,.11,.25,.36,.14,.55-.94,1.57-3.97,3.88-3.98,3.89-.18,.13-.43,.1-.56-.07-.13-.18-.1-.43,.08-.56,0,0,2.92-2.23,3.78-3.67Z"/>
      </g>
      <path class="cls-6" d="M81.56,55.59c-5.1,9.86-2.72,13.6-2.72,13.6l4.93-2.89s-4.59,7.65-4.42,8.84c.17,1.19,10.03,1.36,13.94,5.1,3.91,3.74,5.61,6.63,5.61,6.63l.34-20.23s10.88-11.9,10.88-18.36v-7.82s-26.86-2.72-28.56,15.13Z"/>
      <path class="cls-9" d="M109,52.63c.69-1.57,1.11-3.07,1.11-4.35v-7.82s-21.1-2.13-27.08,9.81c8.15,1.97,18.16,2.36,25.96,2.35Z"/>
      <path class="cls-9" d="M81.56,55.59c-.17,.33-.33,.65-.48,.96,2.54-1.26,6.81-4.11,9.69-9.88,.88-1.77,1.58-3.18,2.14-4.32-.37,.13-.73,.27-1.09,.41-.49,.98-1.07,2.16-1.77,3.55-2.48,4.97-6.01,7.68-8.47,9.06,0,.07-.02,.14-.03,.21h0Zm1.76,11.46c1.91-1.52,3.72-3.27,5.54-5.3,3.61-4.04,7.26-9.21,11.76-16,.12-.18,.37-.24,.56-.11,.18,.12,.24,.37,.11,.55-4.51,6.81-8.18,12.01-11.83,16.09-2.32,2.59-4.64,4.73-7.16,6.54,.4-.7,.76-1.33,1.03-1.78h0Zm-3.79,7.26c-.13,.38-.2,.66-.18,.83,0,.06,.04,.12,.1,.17,.1-.09,.19-.15,.24-.21,1.22-.07,10.14-.84,19.55-8.39v-.08s1.58-1.72,3.53-4.22c-10.92,11.24-22.59,11.86-23.22,11.89h-.02Zm9.93,3.71c.65,.25,1.28,.52,1.87,.84,2.78,.03,5.38-.05,7.71-.17v-.8c-2.82,.16-6.07,.24-9.57,.14Z"/>
      <path class="cls-1" d="M84.79,39.61c-22.78-.34-34,6.8-24.14,8.16,9.86,1.36,121.2,3.74,121.2,3.74-1.31-10.31-5.01-20.48-9.98-29.73-1.43-3.07-5.16-9.09-7.55-10.6-4.35-2.74-9.98-4.68-16.15-5.86-5.03-.96-16.03-.73-21.4-.7-10.85,.07-15.99,1.43-23.46,5.29-10.9,5.63-15.21,16.04-18.53,29.69h0Zm88.96,4.41l-45.27-1.69s2.04-22.61,18.87-24.14c19.41-1.77,24.44,10.7,26.4,25.83Z"/>
      <path class="cls-5" d="M147.72,50.72c19.3,.47,34.13,.79,34.13,.79-1.02-8.05-3.5-16.01-6.9-23.51-1.83-.29-4.03-.6-6.21-.89,2.79,4.58,4.18,10.51,5.01,16.92l-32.54-1.22c2.06,2.9,4.34,5.59,6.51,7.92Z"/>
      <path class="cls-20" d="M108.78,7.41c8.52,5.34,25.26,8.52,42.68,10.62,2.02,.04,3.85,.25,5.52,.63,4.72,.51,9.43,.95,13.99,1.35-1.75-3.2-4.65-7.57-6.64-8.82-4.35-2.74-9.98-4.68-16.15-5.86-5.03-.96-16.03-.73-21.4-.7-8.04,.05-12.95,.81-18,2.78Z"/>
      <path class="cls-5" d="M104.56,49.58l.76,.02s0-.03,.01-.04c3.9-14.93,6.78-25.1,10.59-32.17,3.46-6.42,7.7-10.27,14.2-12.8-.75,0-1.45,.01-2.1,.02-5.69,2.6-9.58,6.41-12.81,12.4-3.84,7.13-6.74,17.36-10.66,32.34-.02,.07-.02,.15,0,.22h0ZM149.39,5.57c-.4-.09-.81-.17-1.22-.25-.94-.18-2.09-.31-3.37-.42,4.95,1.46,11.72,3.93,14.04,7.06,1.94,2.61,4.12,6.81,5.83,10.38,.56,.46,1.09,.96,1.59,1.49-1.8-3.88-4.46-9.22-6.77-12.35-1.79-2.41-5.99-4.43-10.1-5.92Z"/>
      <path class="cls-6" d="M139.69,36.38c9.35,14.28,22.27,18.53,22.95,16.66,.68-1.87-5.1-11.05-5.1-11.05,0,0,21.59,8.33,28.56,9.86,6.97,1.53-1.36-9.18-8.67-14.45l-7.31-5.27s15.47,2.38,19.72,.68c4.25-1.7-18.02-15.47-36.38-12.24-18.36,3.23-13.77,15.81-13.77,15.81Z"/>
      <path class="cls-12" d="M128.5,97.13c3.6,7.36,7.06,9.72,15.26,11.19,5.27,.94,7.75,.2,12.61-.99-4.67,4.25-15.71,3.17-21.08-.07-4.63-2.8-5.74-5.16-6.8-10.12Z"/>
      <path class="cls-18" d="M129.52,99.51c-1.53,13.77,3.91,19.55,9.69,21.08,5.78,1.53,7.14-4.93,7.65-8.33,.51-3.4,1.7-3.57,1.7-3.57,0,0-13.94,0-19.04-9.18Z"/>
      <path class="cls-8" d="M105.28,115.52c-.06-.21,.07-.43,.29-.49,.21-.05,.43,.07,.49,.29,.9,3.43,6.11,8.25,13.41,12.06,6.1,3.19,13.63,5.65,21.33,6,.22,0,.39,.2,.38,.42,0,.22-.2,.39-.42,.38-7.82-.35-15.47-2.85-21.66-6.09-7.49-3.92-12.85-8.94-13.81-12.57Z"/>
      <path class="cls-7" d="M139.36,36.6c-.12-.19-.07-.43,.12-.55,.19-.12,.43-.07,.55,.12,.76,1.16,1.54,2.26,2.34,3.28,.84,1.08,1.7,2.09,2.57,3.04,.15,.16,.14,.42-.02,.57-.16,.15-.42,.14-.57-.02-.88-.96-1.75-1.99-2.61-3.09-.81-1.05-1.61-2.16-2.38-3.33h0Zm23.66,16.58c-.08,.21-.3,.31-.51,.24-.21-.08-.32-.3-.24-.51,.61-1.68-5.04-10.67-5.06-10.7-.12-.19-.06-.43,.13-.55,.11-.07,.24-.08,.35-.04,.06,.03,21.55,8.32,28.5,9.84,.86,.19,1.44,.18,1.78,.02,.3-.14,.4-.47,.34-.92-.08-.59-.41-1.36-.93-2.23-1.89-3.21-6.18-7.72-10.18-10.6l-7.31-5.27c-.18-.13-.22-.38-.09-.56,.09-.12,.24-.18,.38-.16h0s15.36,2.36,19.51,.71c.21-.08,.44,.02,.52,.22,.08,.21-.02,.44-.22,.52-3.5,1.4-14.22,.13-18.31-.43l5.99,4.32c4.07,2.94,8.46,7.55,10.4,10.84,.57,.96,.93,1.83,1.03,2.52,.12,.83-.12,1.44-.79,1.76-.5,.24-1.25,.27-2.29,.04-6.05-1.33-23.04-7.74-27.52-9.46,1.49,2.47,5.12,8.75,4.52,10.39Z"/>
      <path class="cls-7" d="M148.22,34.31c-.19-.11-.26-.35-.16-.54,.11-.2,.35-.27,.54-.16,8.54,4.65,12.49,13.55,12.5,13.57,.09,.2,0,.44-.2,.53-.2,.09-.44,0-.53-.2-.01-.02-3.86-8.67-12.15-13.2Z"/>
      <path class="cls-6" d="M163.27,20.28c-3.82-2.67-8.95-3.68-15.91-2.09,.83,1.06,1.92,2.07,3.21,3.02,4.51,3.31,11.54,5.88,19.17,7.59,.06,.01,.11,.03,.17,.04,1.94,.43,3.92,.81,5.91,1.13,4.85,.78,9.74,1.22,14.2,1.29-1.67-2.43-9.05-6.84-18.07-9.33-1.23-.34-2.5-.65-3.78-.9-1.61-.33-3.25-.58-4.9-.73Z"/>
      <path class="cls-5" d="M144.65,42.27c.22,.01,.39,.2,.38,.42s-.2,.39-.42,.38c-1.09-.05-5.79-.13-10.92-.22-6.17-.11-12.96-.23-14.83-.32-1.84-.09-3,.38-3.71,1.09h0c-.5,.51-.79,1.15-.93,1.82-.14,.68-.14,1.39-.06,2,.1,.82,.24,1.39,.29,1.42,.2,.09,.29,.33,.2,.53-.09,.2-.33,.29-.53,.19-.22-.1-.62-.96-.75-2.05-.08-.68-.09-1.47,.08-2.25,.17-.8,.51-1.59,1.14-2.22h0c.85-.86,2.21-1.43,4.31-1.33,1.88,.09,8.65,.21,14.8,.32,5.15,.09,9.87,.18,10.95,.22Z"/>
      <path class="cls-5" d="M128.8,42.47c-.04,.22-.24,.37-.46,.33-.22-.04-.37-.24-.33-.46,.86-5.22,1.97-10.79,4.79-15.36,2.84-4.6,7.39-8.16,15.09-9.28,.22-.03,.42,.12,.45,.34,.03,.22-.12,.42-.34,.45-7.43,1.09-11.8,4.5-14.53,8.91-2.75,4.44-3.84,9.92-4.68,15.07Z"/>
      <path class="cls-5" d="M84.03,45.9s.15-2.62,1.11-7.73c-.12,.48-.24,.96-.36,1.45-14.15-.21-23.85,2.47-26.79,4.85,11.19,1.9,26.04,1.44,26.04,1.44Z"/>
      <path class="cls-8" d="M129.9,110.07c7.49,.02,13.69,3.77,14.81,8.66-1.14,1.59-2.85,2.56-5.5,1.86-4-1.06-7.84-4.15-9.31-10.52Z"/>
    </g>
    <path class="cls-15" d="M83.72,223.59c-3.39-2.34-7.51-4.85-12.36-7.2-5.04-2.44-9.75-4.15-13.82-5.36,2.73,.05,6.93,.49,11.52,2.56,1.7,.77,2.94,1.53,4.6,2.55,2.56,1.58,6.09,3.99,10.06,7.45Z"/>
    <path class="cls-22" d="M289.53,152.25c.9-1.29,1.74-2.51,1.5-4.13-.19-1.3-1.04-2.5-2.21-3.19,.4-.63,1.27-2.27,.8-4.33-.03-.12-.66-2.84-3.07-3.78-.59-.23-1.54-.43-3.6,.06-.76,.18-1.46,.42-2.12,.67-.22-.73-.76-1.98-2-2.82-1.52-1.04-3.21-.85-4.11-.75-2.79,.31-4.76,1.75-6.2,2.8-7.1,5.19-8.78,6.58-8.85,6.64-1.15,.98-2.31,1.95-3.48,2.93-1.65,1.38-3.3,2.73-4.94,4.07-.15-.16-.29-.33-.45-.49,1.07-2.57,2.97-8.54,.3-13.57-.57-1.07-2.07-3.9-4.74-4.3-.39-.06-2.39-.29-3.54,.97-.56,.61-.68,1.32-.73,1.58-.25,1.38-.44,2.89-.63,4.49-.32,2.62-.65,5.34-1.31,7.41-.38,1.2-.68,1.59-1,1.99-.35,.45-.71,.91-1.16,2.28-.69,2.11-.73,3.89-.61,11.25v.51c.06,3.29,.07,3.88-.31,4.78-.82,1.97-2.63,3.56-5.37,4.71l-.39,.16,.21,.37c1.07,1.88,2.21,3.74,3.39,5.53,2.03,3.06,3.14,4.75,4.92,6.33,.83,.74,2.57,2.29,5.31,3.37,3.13,1.24,5.88,1.18,7.52,1.15,2.11-.05,4.22-.39,6.26-1.01,.07-.02,.13-.04,.19-.06l.26-.08,.15-5.71c.74-.12,1.48-.29,2.25-.53,2.08-.64,4.25-1.69,6.48-3.13,1.72-1.11,2.31-1.71,3.39-2.8,.91-.91,2.16-2.17,4.74-4.39,1.4-1.2,2.72-2.52,4-3.8,1.75-1.74,3.56-3.54,5.58-5.06,.69-.52,2.31-1.73,2.47-3.59,.11-1.24-.42-2.53-1.36-3.29-.18-.14-.36-.26-.54-.35,1.19-.8,2.2-1.76,2.99-2.9Z"/>
    <path class="cls-23" d="M250.44,149.9c-.17,.07-.34,.13-.51,.2,.86,1.88,1.89,4.64,2.45,8.11,.35,2.18,.7,4.38,.25,7.07-.86,5.12-3.93,7.8-3.44,8.22,.51,.44,4.44-2.01,6.3-6.21,1.39-3.13,1.09-6.01,.97-7.01-.69-5.87-4.87-9.45-6.02-10.37Z"/>
    <path class="cls-23" d="M231.32,172.2c1.33,2.41,2.56,4.41,3.55,5.93,2.55,3.92,3.86,5.29,4.9,6.23,.58,.52,1.33,1.2,2.42,1.9,3.21,2.06,6.37,2.44,7.97,2.61,4,.43,7.27-.4,9.22-1.08,.02-.71,.04-1.42,.06-2.13-1.86,.54-3.47,.73-4.65,.79-4.02,.21-7.02-.84-7.96-1.18-.36-.13-.7-.27-1.06-.43-1.32-.62-3.64-1.78-6.82-4.82-2.97-2.84-5.18-5.82-6.72-8.2-.3,.13-.6,.26-.9,.39Z"/>
    <path class="cls-23" d="M259.53,182.08c-1.09,.17-2.69,.33-4.6,.16-2.95-.26-5.17-1.16-6.58-1.75-2.94-1.22-4.53-2.48-4.65-2.31-.13,.19,1.64,1.97,4.05,3.32,.86,.49,3.3,1.75,6.77,2.14,2.07,.23,3.8,.06,4.98-.13,.01-.48,.03-.96,.04-1.44Z"/>
    <path class="cls-23" d="M268.5,154.95c.99-.74,2.46-1.85,4.23-3.21,1.2-.92,2.17-1.68,3.74-2.88,4.01-3.07,4.93-3.7,6.39-4.04,1.31-.31,2.44-.24,3.13-.16-1.19,.41-2.91,1.1-4.82,2.23-1.23,.73-2.59,1.66-6.13,4.81-1.57,1.4-3.6,3.26-5.91,5.53-.21-.76-.41-1.52-.62-2.28Z"/>
    <path class="cls-23" d="M262.99,148.88c1.17-.82,2.94-2.08,5.06-3.7,.29-.22,.64-.5,1.38-1.07,1.28-.99,1.92-1.48,2.36-1.82,.23-.18,3.22-2.44,5.64-3.82,.16-.09,.4-.23,.74-.37,1.04-.44,2-.54,2.65-.55-.96,.57-2.5,1.51-4.35,2.77-2.19,1.5-3.49,2.47-7.41,5.58-1.15,.91-2.84,2.23-4.94,3.79-.38-.27-.77-.54-1.15-.81Z"/>
    <path class="cls-23" d="M271.02,163.25c.83-.63,2.14-1.66,3.68-3.05,1.56-1.4,1.87-1.83,3.13-2.79,2.51-1.91,3.94-2.26,4.68-2.38,.78-.13,1.44-.11,1.87-.07-.52,.12-1.26,.32-2.09,.72-.88,.42-1.47,.88-1.77,1.11-2.8,2.17-4.4,3.66-4.4,3.66-1.01,.94-2.59,2.4-4.68,4.3-.14-.5-.28-1.01-.42-1.51Z"/>
    <path class="cls-23" d="M252.98,174.3c-.29-.1-.19-1.85,.53-3.45,.16-.35,.72-1.5,2.26-2.86,2.5-2.2,5.47-3.09,5.6-2.86,.07,.14-.85,.58-2.6,2.18-.96,.88-1.66,1.65-2.03,2.03-.17,.18-1.03,1.07-1.91,2.27-1.31,1.76-1.62,2.76-1.85,2.68Z"/>
    <path class="cls-23" d="M260.65,147.48c.51,.53,1.21,1.29,2,2.21,.76,.89,1.76,2.06,2.6,3.28,1.84,2.68,2.61,5.24,2.81,5.91,.58,2.01,.5,2.95,1.45,5.96,.23,.74,.45,1.34,.6,1.74,.7-.14,1.39-.27,2.09-.41-.58-3.46-1.47-6.23-2.22-8.19-1.35-3.51-2.56-5.22-3.22-6.09-1.33-1.71-2.43-2.54-3.02-2.94-1.17-.79-2.27-1.24-3.06-1.49Z"/>
    <text class="cls-24" transform="translate(110.8 186.38) rotate(-6.64)"><tspan x="0" y="0">HB</tspan></text>
  </g>
</svg>