<?xml version="1.0" encoding="UTF-8"?>
<svg id="_Слой_2" data-name="Слой 2" xmlns="http://www.w3.org/2000/svg" viewBox="0 0 198.54 182.93">
  <defs>
    <style>
      .cls-1, .cls-2, .cls-3, .cls-4, .cls-5, .cls-6, .cls-7, .cls-8, .cls-9, .cls-10, .cls-11, .cls-12, .cls-13, .cls-14, .cls-15, .cls-16, .cls-17, .cls-18 {
        fill-rule: evenodd;
      }

      .cls-1, .cls-19 {
        fill: #1d3264;
      }

      .cls-2 {
        fill: #324d93;
      }

      .cls-3 {
        fill: #fff;
      }

      .cls-19 {
        font-size: 6.1px;
      }

      .cls-19, .cls-20 {
        font-family: BwGlennSlab-Black, 'Bw Glenn Slab';
        font-weight: 800;
      }

      .cls-4 {
        fill: #bababa;
      }

      .cls-5 {
        fill: #d46f30;
      }

      .cls-6 {
        fill: #cf5b1a;
      }

      .cls-7 {
        fill: #171f41;
      }

      .cls-8 {
        fill: #35353b;
      }

      .cls-9 {
        fill: silver;
      }

      .cls-10 {
        fill: #c39d93;
      }

      .cls-11 {
        fill: #af3f08;
      }

      .cls-12 {
        fill: #83431b;
      }

      .cls-13 {
        fill: #0d1533;
      }

      .cls-14 {
        fill: #1a2649;
      }

      .cls-15 {
        fill: #484549;
      }

      .cls-16 {
        fill: #3a3c44;
      }

      .cls-20 {
        font-size: 6.71px;
      }

      .cls-20, .cls-17 {
        fill: #d15119;
      }

      .cls-18 {
        fill: #cb5217;
      }
    </style>
  </defs>
  <g id="OBJECTS">
    <path class="cls-4" d="M169.46,22.63C152.78-3.4,34.23,10.12,19.58,52.12c-6.32,18.12,21.09,21.82,26.91,26.89,8.01,6.97-36.05,13.63-43.95,36.63-7.26,21.13-.98,52.71,45.78,61.48,52.46,9.84,132.3-4.14,148.67-62.24,3.24-11.48,2.64-23.39-14.12-23.95-11.38-.38-37.91,5.31-23.58-14.69,13.64-19.02,23.96-32.11,10.17-53.62h0Z"/>
    <path class="cls-10" d="M151.99,122.75c-2.87,1.29-5.9,2.77-9.05,4.47-3.02,1.64-5.81,3.3-8.37,4.93,6.7,2.21,13.41,4.42,20.11,6.63,2.25-1.08,4.5-2.16,6.75-3.23-.69-1.55-1.57-3.25-2.71-5.03-2.22-3.44-4.67-5.98-6.73-7.78Z"/>
    <path class="cls-17" d="M95.57,97.9c-6.95,1.44-12.59,3.83-16.12,5.23-.62,.24-3.16,.47-3.7,1.01-.57,.57-.6,1.86-1.04,2.02-1.74,.61,3.79,8.81,3.79,8.81,0,0,.22,4.56-.92,19.09-.17,2.17,.28,21.34-.27,25.57-2.02,1.87-1.83,3.17-1.55,4.78-1.47,2.95-3.29,5.07-2.72,7.45,1.19,4.97,6.64,9.36,13.77,10.08,3.37,.34,6.14-1.65,9.99-1.45,3.72,.19,8.33,2.44,11.9,2.44,10.73,.02,19.59-3.82,18.06-7.69-.85-2.15-1.53-4.32-2.04-6.49,.16-.45,1.08-.98,.91-1.65-.17-.68-1.19-2.2-1.19-2.2l.84-3.02s0-.41-1.75-4.26c.16-9.4,3.23-18.32,8.26-25.52l4.64-.82,6.68-18.73c-1.83-3.31-4-4.79-4.73-5.84-.61-.88-1.2-1.79-1.91-2.43-1.31-1.15-3.23-1.06-4.91-1.18l-15.22-6.91-20.74,1.71Z"/>
    <path class="cls-10" d="M123.26,166.96c5.44-5.86,9.11-6.38,10.87-14.82,1.76-8.46,.95-16.44,16.42-19.64,.64-.13,2.03-.6,3.88-.64,1.11-.02,2.28-.04,3.62,.52,1.4,.58,2.3,1.5,2.77,2.06,.27,.38,.62,.97,.83,1.76,.17,.62,.2,1.19,.14,2.29-.05,.9-.17,2.12-.45,3.56,0,0-.56,2.23-1.87,4.39-2.18,3.58-15.51,16.34-34.57,32.68-.54-4.05-1.09-8.11-1.63-12.16Z"/>
    <path class="cls-17" d="M137.48,106.51c2.67,2.05,2.61,3.62,4.58,5.19,4.01,3.2,8.27,6.73,14.06,12.3,1.32,1.28,2.05,2.04,1.93,2.96-.29,2.17-4.77,1.67-11.18,5.51-4.08,2.45-7.5,5.8-8.46,6.77-.6,.6-1.08,1.12-1.42,1.49-.53-.2-1.25-.49-2.06-.91-.89-.47-1.55-.89-1.93-1.17-1.6-1.17-2.21-2.2-4.54-3.49-2.04-1.13-3.38-1.39-3.59-2.44-.14-.7,1.24-1.55,1.5-5.79,.77-12.78,5.45-22.67,11.13-20.42Z"/>
    <path class="cls-16" d="M155.7,123.39c.16-.01,.31,.11,.33,.27,.02,.16-.1,.3-.26,.32-9.29,.71-16.23,7-20.47,10.85-.21,.19-.4,.37-.81,.74-.28,.25-.55,.5-.82,.76-.25,.24-.49,.48-.7,.7-.11,.11-.3,.11-.42,0-.12-.11-.13-.3-.02-.42,.22-.23,.46-.47,.72-.71,.25-.24,.52-.49,.83-.77,.11-.1,.45-.41,.81-.74,4.29-3.89,11.33-10.27,20.81-10.99Z"/>
    <path class="cls-12" d="M119.2,181.62c5.27-1.45,8.51-3.91,7.53-6.38-.85-2.15-1.53-4.32-2.04-6.49,.16-.45,1.08-.98,.91-1.65-.17-.68-1.19-2.2-1.19-2.2l.84-3.02s0-.41-1.75-4.26c.13-7.77,2.25-15.22,5.83-21.64-1.25-.77-2.57-1.3-3.94-1.51-1.63,8.48-4.4,13.87-12.07,19.58-7.67,5.71-8.65,5.87-7.67,5.71,.98-.16,7.67-1.47,11.75-3.75,4.08-2.28,4.57-3.26,4.57-3.26,0,0-3.1,5.87-.82,8.97,2.28,3.1-2.45,7.18-6.04,9.3-3.59,2.12,6.04-2.28,7.34-3.26,1.31-.98,.98,4.41,.98,7.34,0,1.74-2.36,4.41-4.24,6.52Z"/>
    <path class="cls-10" d="M55.53,148.89c12.25-5.8,15.33-9.78,15.33-9.78,0,0-3.02-13.19-9.9-16.66-.62-.31-5.04,5.81-5.73,5.62-8.33-2.35-1.3,17.95,.31,20.82Z"/>
    <path class="cls-16" d="M134.46,139.22c.11,.13,.09,.32-.04,.43-.13,.11-.32,.09-.43-.04-2.93-3.57-8.82-5.34-8.84-5.34-.16-.05-.25-.22-.2-.38,.05-.16,.22-.25,.38-.2,.02,0,6.08,1.83,9.13,5.54Z"/>
    <path class="cls-17" d="M75.68,105.71c-2.87-.1-2.33,.91-3.38,2.43-2.33,3.39-14.46,12.05-17.33,14.85-1.54,1.51-1.91,.91,1.1,2.87,6.26,4.07,8.06,16.98,8.69,19.15,.54,1.88,14.44-11.67,14.44-11.67,0,0,3.06-19.54-3.54-27.63Z"/>
    <path class="cls-12" d="M61.92,134.37c1.75,4.62,2.5,9.39,2.86,10.64,.43,1.49,9.32-6.77,12.93-10.22,.06-3.12,.6-8.08,.06-11.85,.08-.44-.25,2.08,.24-1.57,.49-3.65-1.91-10.36-2.53-10.44-.63-.08,.91,4.06,.94,8.04-.52-.82-1.23-1.69-2.11-2.63-4.09-4.34,2.8,4.33,.91,7.4-1.01,1.65-9.5,8.09-13.31,10.63Z"/>
    <path class="cls-6" d="M57.1,124.77c-.07-.15,0-.33,.14-.4,.15-.07,.33-.01,.4,.14,1.61,3.32,2.65,6.35,3.26,8.98,.72,3.13,.82,5.71,.53,7.57-.03,.17-.18,.28-.34,.25-.17-.03-.28-.18-.25-.35,.28-1.79,.18-4.29-.53-7.34-.6-2.59-1.62-5.58-3.21-8.86Z"/>
    <path class="cls-16" d="M75.75,111.52c-.07-.15,0-.33,.15-.4,.15-.07,.33,0,.4,.15,1.48,3.17,1.95,7.3,1.95,7.31,0,.02,0,.04,0,.06,0,.44-.04,7.33-.11,16.2,0,.17-.14,.3-.3,.3-.17,0-.3-.14-.3-.3,.07-8.86,.1-15.74,.11-16.19-.03-.23-.5-4.13-1.89-7.12Z"/>
    <path class="cls-16" d="M101.45,116.33c.04-.16,.2-.27,.36-.23,.16,.04,.26,.2,.23,.36-.09,.39-.22,.86-.37,1.42-.8,2.93-2.24,8.23-1.84,13.94,.01,.17-.12,.31-.28,.32-.17,.01-.31-.12-.32-.28-.41-5.82,1.05-11.18,1.86-14.14,.15-.56,.28-1.04,.37-1.4Z"/>
    <path class="cls-16" d="M58,120.54c-.14-.09-.17-.28-.08-.42,.09-.14,.28-.17,.42-.08,3,2.05,5.18,5.11,6.75,8.35,2.34,4.83,3.31,10.08,3.59,12.99,.03,.32,.05,.6,.07,.85,.02,.26,.04,.52,.05,.79,.01,.17-.12,.31-.29,.32-.17,0-.31-.12-.32-.29-.01-.24-.03-.49-.05-.78-.02-.29-.05-.57-.07-.84-.28-2.86-1.24-8.02-3.53-12.78-1.53-3.16-3.64-6.13-6.54-8.11Z"/>
    <path class="cls-12" d="M83.55,148.51c8.37,2.29,14.64,1.15,22.36-1.13,5.03-1.49,7.25-2.87,11.41-5.65-1.07,1.77-.8,1.62-2.41,3-9.51,8.16-18.66,13.02-31.36,3.78Z"/>
    <path class="cls-16" d="M124.58,164.71c-1.74,3.07-3.62,3.75-6.73,5.27,3.03-2.05,4.78-3.51,6.73-5.27Z"/>
    <path class="cls-16" d="M75.67,164.33c.86,2.52,1.28,3.18,2.77,5.41-2.21-1.73-3.05-2.39-2.77-5.41Z"/>
    <g>
      <path class="cls-12" d="M85.16,114.68c5.76-.46,9.55-1.82,9.55-1.82l7.58,3.18,9.1-1.52,9.56,2.88-6.07-10.62-23.66,1.21s-1.06-1.06-6.07,6.67Z"/>
      <path class="cls-10" d="M123.2,74.13c-4.42,16.13-7.8,27.81-7.8,27.81-3.61,3.02-9.2,13.6-13.47,13.3-3.02-.22-5.27-5.74-6.39-10.54,0,0-.29-12.24-1.4-19.17-1.12-6.92,29.06-11.4,29.06-11.4Z"/>
      <path class="cls-1" d="M95.49,96.1c-.33,.17-3.43,3.48-4.13,4.56-3,4.65-5.94,13.09-5.94,13.09,0,0,6.8-3.54,9.67-3.52,.46,0,.29,1.69,.51,1.91,1.53,1.57,5.66,2.42,5.66,2.42-5.77-6.74-5.58-10.21-5.76-18.46Z"/>
      <path class="cls-5" d="M123.2,74.13c-2.55,9.31-4.76,17.13-6.16,22.09-8.03,6.11-11.77,8.19-18.96,5.66-.89-.32-1.78-.65-2.67-1-.18-4.18-.55-10.86-1.27-15.33-1.12-6.92,29.06-11.4,29.06-11.4Z"/>
      <path class="cls-5" d="M95.21,96.43c.01-.16,.15-.28,.31-.26,.16,.01,1.39,.57,1.38,.72-.48,6.11-.52,13.89,5.06,17.91,.13,.09,.16,.27,.07,.4-.09,.13-.27,.16-.4,.07-2.04-1.47-3.91-4.22-5.12-7.77-1.07-3.15-1.62-6.95-1.3-11.06Z"/>
      <path class="cls-13" d="M85.67,113.95c-.12,.12-.31,.11-.43,0-.12-.12-.11-.31,0-.43,2.73-2.65,9.86-3.57,9.88-3.57,.16-.02,.32,.09,.34,.26,0,.04,0,.07,0,.1-.02,.09-.34,1.82,2.24,2.84,2.58,1.02,4.36,1.54,4.69,1.64,.6-.08,5.32-.73,6.61-1.75,1.37-1.08,1.72-2.13,1.72-2.14,.06-.16,.23-.24,.39-.19,.03,0,.05,.02,.08,.04l9.4,6.52c.14,.1,.17,.29,.08,.42-.1,.14-.28,.17-.42,.08l-9.1-6.31c-.23,.45-.75,1.26-1.76,2.06-1.45,1.15-6.56,1.83-6.95,1.88-.05,.01-.1,0-.14,0,0,0-1.91-.53-4.8-1.68-2.31-.91-2.63-2.4-2.64-3.11-1.47,.22-6.94,1.19-9.17,3.35Z"/>
      <path class="cls-1" d="M102.96,114.5c7.85-4.98,15.47-22.53,15.47-22.53l4.51,7.85-2.12,17.58-9.39-6.52s-1.9,3.93-8.46,3.62Z"/>
    </g>
    <g>
      <path class="cls-12" d="M102.92,118.91c.36,.05,.6,.43,.52,.85-.08,.41-.43,.71-.8,.65-.36-.05-.6-.43-.52-.85,.08-.41,.43-.71,.8-.65Z"/>
      <path class="cls-12" d="M102.09,123c.37-.01,.65,.32,.63,.75-.02,.42-.33,.77-.7,.79-.37,0-.65-.32-.63-.75,.02-.42,.33-.77,.7-.78Z"/>
      <path class="cls-12" d="M101.46,127.16c.35-.12,.7,.12,.78,.53,.08,.41-.14,.85-.49,.97-.35,.12-.7-.12-.78-.53-.08-.41,.14-.85,.49-.97Z"/>
    </g>
    <path class="cls-10" d="M41.04,115.14c-3.39,17.08-2.2,26.86,2.62,31.93,1.16,1.22,2.2,1.74,3.76,2.67,1.6,.96,3.74,1.56,5.75,1.08,1.18-.28,2.38-.98,4.08-2.09,2.54-1.66,5.92-3.37,6.3-4.85,.5-1.9-3.69-1.03-3.9-3.31-.45-4.76-.88-9.71-3.3-15.01-3.64-7.96-5.51-14.95-5.51-14.95l-9.79,4.52Z"/>
    <path class="cls-5" d="M40.98,115.47c-1.07,5.44-1.67,10.14-1.83,14.17,7.1,2.88,13.92,1.41,19.1-2.1-.29-.83-.55-2.4-.93-3.24-1.33-2.9-3.4-4.41-4.25-6.77-4.8-.82-9.6-1.65-12.09-2.06Z"/>
    <g>
      <path class="cls-14" d="M48.21,83.58c.13-1.2,.67-4.56,1.08-7.82,.17-1.36-.3-2.64-.07-3.61,.6-2.6,3.61-1.27,4.73,.78,1.62,2.98,1.36,8.87,.84,12.03-.26,1.63,.23,1.85-1.04,1.25l-5.54-2.62Z"/>
      <path class="cls-1" d="M57.13,100.4c.65,7.61,2.22,25.44,2.22,25.44,0,0-7.22,5.25-14.25,3.29-7.03-1.96-10.29-4.99-10.29-4.99l8.97-32.19,13.35,8.44Z"/>
      <path class="cls-14" d="M57.13,100.4c.65,7.61,2.22,25.44,2.22,25.44,0,0-4.68,3.4-10.17,3.71,.14-.23,.29-.48,.44-.75,2.25-3.86,1.45-28.74,2.17-29.23,.32-.21,1.64-.4,3.06-.61l2.27,1.44Z"/>
      <path class="cls-1" d="M63.2,84.65c.1,6.53-.31,12.13-.72,14.81-.41,2.69-1.09,3.54-3.78,4.24-2.69,.7-4.32,.66-4.22-.51,.09-1.17,2.4-2.17,2.4-2.17,0,0-6.07,.98-9.57,.34-6.11-1.11-4.15-22.01,2.62-22.07,2.63-.03,5.66,.74,9.19,1.57,1.69,.4,3.6,3.45,4.08,3.79Z"/>
      <path class="cls-14" d="M63.2,84.65c.1,6.53-.31,12.13-.72,14.81-.41,2.69-1.09,3.54-3.78,4.24-2.69,.7-4.32,.66-4.22-.51,.09-1.17,2.4-2.17,2.4-2.17,0,0-2.57,.41-5.32,.53,.06-1.16,.13-1.89,.25-1.96,.72-.48,6.52-.81,7.09-1.69,.48-.76,2.85-11.12,1.45-16.37,1.3,1.03,2.49,2.87,2.86,3.13Z"/>
      <g>
        <path class="cls-13" d="M56.85,85.18c-.17-.03-.28-.2-.24-.36,.03-.17,.2-.28,.36-.24,2.88,.57,5.18,2.76,6.23,3.92,0,.31,0,.62-.02,.92-.59-.73-3.09-3.58-6.33-4.23Z"/>
        <path class="cls-13" d="M56.25,89.79c-.17-.02-.29-.17-.27-.34,.02-.17,.17-.29,.34-.27,2.77,.29,5.68,3.2,6.71,4.35-.02,.3-.03,.59-.05,.87,0,0-.01-.02-.02-.02-.01-.01-3.5-4.25-6.7-4.58Z"/>
        <path class="cls-13" d="M55.86,95.29c-.17-.02-.28-.18-.26-.35,.02-.17,.18-.29,.35-.26,3.84,.56,5.84,3.55,6.52,4.8-.05,.34-.11,.65-.17,.93-.05-.03-.1-.08-.12-.14,0-.01-1.8-4.32-6.31-4.98Z"/>
        <path class="cls-13" d="M59.85,103.11c.13-.06,.28-.03,.37,.08-.42,.19-.92,.35-1.52,.51-.65,.17-1.23,.29-1.75,.37-.08-.01-.15-.02-.23-.04-.54-.09-2.77-.94-1.93-1.86,.59-.65,1.58-.87,1.58-.87,.28-.38-2.47-.09-2.67-.05-.17,.04-.33-.07-.37-.24-.04-.17,.07-.33,.24-.37,1.85-.41,3.74,.09,3.92,.14,.11,.03,.21,.11,.23,.24,.03,.17-.07,.33-.24,.37,0,0-2.46,.52-2.25,1.22h0s.01,.03,.02,.05c.17,.35,.79,.63,1.56,.77,.83,.15,1.81,.12,2.63-.15,.13-.04,.27-.1,.4-.16Z"/>
      </g>
      <path class="cls-13" d="M43.35,92.05c.01-.26,.16-.45,.33-.44,.17,.01,.3,.23,.29,.49-.15,3.82-.37,3.29,0,8.36,.02,.25-.1,.48-.27,.51-.17,.03-.32-.16-.34-.41-.38-5.11-.16-4.63,0-8.51Z"/>
      <path class="cls-13" d="M35.81,120.58c5.63,3.88,10.27,5.44,14.35,5.18,3.21-.2,6.09-1.52,8.86-3.72l.06,.73c-2.77,2.12-5.67,3.4-8.89,3.6-4.17,.26-8.88-1.3-14.56-5.17l.17-.63Z"/>
    </g>
    <path class="cls-8" d="M73.86,40.01c.12-.11,.31-.11,.43,.02,.11,.12,.11,.32-.02,.43-2.12,1.96-3.7,4.01-4.49,5.87-.71,1.69-.76,3.23,.04,4.4,1.76,2.56,3.8,3.73,3.81,3.73,.15,.08,.2,.27,.11,.41-.08,.15-.27,.2-.42,.11,0,0-2.17-1.24-4.01-3.92-.93-1.36-.89-3.09-.1-4.98,.82-1.94,2.45-4.06,4.64-6.08Z"/>
    <path class="cls-15" d="M73.49,39.53c-6.23,8.92-3.14,10.92-.85,14.89,2.29,3.97,6.7,5.86,6.7,5.86l9.26-6.66s-7.96-16.14-15.11-14.09Z"/>
    <g>
      <path class="cls-8" d="M69.84,48.54c.02,.28,.06,.54,.12,.8,2.14-2.56,4.97-6.19,6.83-9.6-.19-.07-.39-.14-.58-.19-1.75,3.16-4.32,6.52-6.37,8.99Z"/>
      <path class="cls-8" d="M71.02,51.83c.1,.18,.21,.35,.33,.53,.27-.27,.55-.57,.82-.9,1.73-2.05,3.47-5.14,5.52-9.72,.07-.15,0-.34-.15-.41-.15-.07-.33,0-.39,.15-2.02,4.53-3.74,7.57-5.43,9.58-.23,.27-.46,.53-.7,.77Z"/>
    </g>
    <g>
      <path class="cls-10" d="M79.67,61.03c-2.42-5.04-5.03-6.46-7.97-5.8-2.94,.66-4.07,7.55-1.98,13.08,2.09,5.53,6.71,8.35,9.14,7.18,2.43-1.17,4.13-7.23,.81-14.46Z"/>
      <path class="cls-18" d="M74.41,71.92c2.55-2.56,2.79-5.98,3.8-5.79,1.01,.19-3.96-5.81-5.86-7.1-1.9-1.29-2.65,3.19-1.53,7.11,1.12,3.92,2.31,4.47,3.6,5.78Z"/>
      <path class="cls-16" d="M76.55,62.78c-.77-1.5-3.82-6.77-6.15-3.73-1.64,2.13,.7,10.04,1.26,9.53-.71-1.81-1.4-6.94-.64-8.6,1.24-2.72,4.1,2.96,4.27,3.32,.14,.36,.53,.53,.88,.39,.35-.14,.52-.55,.38-.91Z"/>
    </g>
    <path class="cls-10" d="M130,73.91c-2.92,8.52-5.75,11.88-13.47,16.5-10.76,6.43-15,8.73-22.66,4.73-7.66-4.01-15.35-9.72-17.39-15.73-2.04-6.01-.83-14.67-1.64-24.59-.81-9.92-1.75-25.27,13.32-30.93,15.07-5.67,55.5-9.5,45.06,32.61,1.16-1.44,2.13-1.38,3.01-2.28,1.41-1.46,2.82-2.14,4.46-2.09,5.19,.15,8.15,4.31,8.59,8.35,1.03,9.47-9.21,18.66-17.96,14.59-2.66-1.24-.94-.71-1.31-1.16Z"/>
    <path class="cls-5" d="M74.88,41.03c.08-.54,.17-1.08,.28-1.61,5.07-2.94,13.62-4.66,23.41-4.34,9.3,.3,19.75,2.44,29.42,7.11,2.42,1.17,4.68,2.59,6.86,4.16-.03,.47-.06,.95-.11,1.43-.08-.06-.16-.12-.24-.18-2.22-1.63-4.53-3.1-7.01-4.3-9.51-4.6-19.8-6.7-28.95-7-10.19-.33-18.94,1.56-23.65,4.73h0Zm65.23,11.12c.19-.02,.38-.02,.58-.01,.44,.01,.87,.06,1.28,.12,.07,.2,.04,.44-.11,.61-.21,.26-.59,.29-.84,.07-.3-.27-.6-.53-.91-.79Z"/>
    <path class="cls-18" d="M134.51,72.61c5.31-3.55,2.87-7.14,.32-7.31-2.55-.17,.82-7.36,5.7-8.22,4.89-.86,6.5,5.14,3.42,9.66-3.08,4.52-6.11,4.74-9.45,5.87Z"/>
    <path class="cls-16" d="M145.35,62.87c.52-2.26,.37-4.6-2.08-5.84-4.04-2.06-8.54,3.17-9.46,6.27-.06,.19-.28,1.84-.31,2.01h.31c4.93,.87,3.9,3.31,1.77,6.36,.65-.36,.57-.27,1.24-1.01,2.76-3.07,1.53-5.32-2.14-6.13l.1-.41c1.12-2.25,2.83-5.9,5.93-6.57,3.6-.79,4.49,3.08,4.65,5.33Z"/>
    <path class="cls-6" d="M118.08,89.35c.14-.09,.33-.06,.42,.08,.09,.14,.06,.33-.08,.42-1.91,1.27-4.4,2.76-6.72,4.02-2.28,1.24-4.39,2.28-5.65,2.72-.59,.21-2.1,.71-4.08,.86-1.98,.14-4.42-.07-6.85-1.31-.15-.08-.21-.26-.13-.41,.08-.15,.26-.21,.41-.13,2.31,1.18,4.64,1.38,6.53,1.24,1.9-.14,3.35-.62,3.92-.82,1.23-.43,3.31-1.45,5.56-2.68,2.31-1.26,4.79-2.73,6.68-3.99Z"/>
    <path class="cls-15" d="M126.42,36.5c-1.57,7.66-1.12,11.76,1.18,15.73,2.29,3.97,5.83,5.67,5.83,5.67l8.15-6.9s-8-16.55-15.16-14.5Z"/>
    <g>
      <path class="cls-8" d="M125.51,44.77c.02,.51,.05,1.01,.1,1.48,2.43,4.16,7.06,7.86,9.92,9.88l.48-.41c-3.06-2.15-8.38-6.36-10.5-10.96Z"/>
      <path class="cls-8" d="M125.69,40.98c-.04,.33-.07,.66-.1,.97,2.79,4.14,8.77,8.16,13.7,10.99l.49-.42c-5.16-2.94-11.55-7.22-14.09-11.54Z"/>
    </g>
    <g>
      <path class="cls-1" d="M122.3,38.01c12.51,7.26,19.74,13.9,19.74,13.9,.57-8.06,5.31-22.4,.28-28.64-5.36-6.64-17.92-18.11-23.32-22-5.05-3.63-21.32,1.41-29.72,4.38-8.94,3.17-10.81,13.33-15.44,22.62,0,0,37.81,3.69,48.46,9.74Z"/>
      <path class="cls-7" d="M126.81,39.54c-.06,.24-.31,.39-.56,.32-.24-.07-.39-.31-.32-.56,.85-3.18,1.82-5.87,2.63-8.14,.55-1.52,1.02-2.84,1.35-4.02,.78-2.76-.64-7.07-2.87-11.42-3.13-6.09-7.85-12.23-10.51-14.45-.19-.16-.22-.45-.06-.64,.16-.19,.45-.22,.64-.06,2.72,2.28,7.55,8.54,10.73,14.74,2.33,4.54,3.79,9.07,2.94,12.08-.33,1.18-.82,2.53-1.37,4.08-.81,2.25-1.76,4.9-2.61,8.07Z"/>
      <path class="cls-11" d="M73.47,39.79c-15.09-7.55-21.02-19.25,3.06-22.01,15.46-1.78,34.02-1.29,44.1,12.38,4.66,6.31,7.28,11.47,7.28,11.47,0,0-32.05-13.11-54.44-1.84Z"/>
      <path class="cls-17" d="M73.47,39.79c-7.93-3.97-13.33-9.08-13.17-13.44,1.75-2.81,6.55-5.05,15.45-6.08,15.46-1.78,34.02-1.29,44.1,12.38,2.27,3.08,4.06,5.89,5.3,7.96-8.23-2.85-33.24-10.11-51.68-.82Z"/>
      <path class="cls-12" d="M60.78,26.15c-.11,.12-.3,.13-.42,.01-.12-.12-.12-.31,0-.44,4.46-4.82,15.09-7,26.1-6.74,11.09,.26,22.58,2.99,28.53,7.98,7.1,5.95,10.19,13.44,10.2,13.46,.07,.16,0,.34-.15,.4-.15,.07-.33,0-.39-.16,0-.02-3.05-7.37-10.03-13.22-5.85-4.91-17.2-7.59-28.17-7.84-10.86-.25-21.32,1.87-25.65,6.55Z"/>
      <path class="cls-8" d="M74.03,40.63c-.27,.2-.64,.14-.83-.13-.19-.27-.14-.66,.13-.86,4.72-3.59,14.1-5.77,25.03-5.42,9.3,.3,19.75,2.44,29.42,7.11,2.55,1.23,4.92,2.74,7.2,4.41,2.27,1.67,4.44,3.5,6.61,5.41,.25,.22,.28,.61,.07,.87-.21,.26-.59,.29-.84,.07-2.15-1.89-4.29-3.71-6.53-5.34-2.22-1.63-4.53-3.1-7.01-4.3-9.51-4.6-19.8-6.7-28.95-7-10.67-.35-19.76,1.74-24.28,5.18Z"/>
    </g>
    <path class="cls-8" d="M124.24,40.7c.01-.17,.16-.29,.32-.28,.17,.01,.29,.16,.28,.32-.27,3.97,.17,7.2,1.46,9.82,1.29,2.6,3.43,4.61,6.57,6.15,.15,.07,.21,.25,.14,.41-.07,.15-.25,.21-.41,.14-3.27-1.6-5.5-3.7-6.85-6.43-1.34-2.72-1.8-6.05-1.53-10.13Z"/>
    <g>
      <path class="cls-5" d="M83.71,75.48l-1.2,1.72c4.47,2.13,13.7,3.02,14.23,3.07l1.11,.1,1.74-.3s8.09-.43,11.55-2.9c1-.71,1.88-1.37,2.64-1.95-1.7-.86-3.18-2.23-3.18-2.23,0,0,2.45,.99,4.12,1.51,1.28-1.01,2-1.62,2-1.62l-9.49-3.07c-1.7-.55-2.65,2.66-9.88,2.78-7.09,.12-9.17-2.15-10.3-1.63h0s-.02,.01-.02,.01c-.1,.05-.19,.12-.27,.22-3.04,2.37-6.2,4.33-6.2,4.33,1.06,.9,1.77,.63,3.18-.03Z"/>
      <path class="cls-9" d="M112.59,49.64c6.01-.05,8.9,5.1,8.85,9.27-.06,5.71-15.14,8.02-16.6,2.05-.46-1.87,.14-4.15,.6-5.72,.85-2.92,3.85-5.59,7.16-5.6Z"/>
      <path class="cls-3" d="M121.11,56.31c.23,.87,.34,1.75,.33,2.6-.06,5.71-15.14,8.02-16.6,2.05-.07-.28-.11-.57-.14-.86,.17-.8,.41-1.55,.62-2.2,.95-2.93,4.22-5.65,7.78-5.7,3.89-.08,6.54,1.74,8.02,4.11Z"/>
      <path class="cls-2" d="M113.05,52.9c2.45-.4,4.77,1.27,5.17,3.72,.4,2.45-1.27,4.77-3.72,5.17-2.46,.4-4.77-1.27-5.17-3.72-.4-2.45,1.27-4.77,3.72-5.17Z"/>
      <path class="cls-15" d="M113.35,54.7c1.46-.24,2.83,.75,3.07,2.21,.24,1.46-.75,2.83-2.21,3.07-1.46,.24-2.83-.75-3.07-2.21-.24-1.46,.75-2.83,2.21-3.07Z"/>
      <path class="cls-3" d="M109.39,53.86c.68-.11,1.33,.35,1.44,1.04,.11,.68-.35,1.33-1.04,1.44-.68,.11-1.33-.35-1.44-1.04-.11-.68,.35-1.33,1.04-1.44Z"/>
      <path class="cls-3" d="M117.25,59.26c.47-.08,.92,.24,.99,.71,.08,.47-.24,.92-.71,.99-.47,.08-.92-.24-.99-.71-.08-.47,.24-.92,.72-.99Z"/>
      <path class="cls-15" d="M104.83,60.95c.16-4.2,1.56-8.12,4.88-9.7,6.17-2.93,10.49,2.08,11.72,7.65,.45-6.95-6.08-12.29-12.33-8.91-3.73,2.02-5.44,6.5-4.27,10.95Z"/>
      <path class="cls-15" d="M121.9,46.73c-2.72-7.74-14.1-7.96-15.75-2.13-.18,.62-.46,1.71,.04,1.58,6.87-1.81,8.65-1.33,15.71,.55Z"/>
      <path class="cls-9" d="M84.7,51.27c4.7,.16,7.14,5.38,7.25,9.53,.15,5.68-11.56,7.43-12.91,1.45-.42-1.88-.04-4.12,.26-5.67,.56-2.87,2.81-5.42,5.4-5.31Z"/>
      <path class="cls-3" d="M91.3,57.16c.4,1.21,.62,2.46,.65,3.63,.15,5.68-11.56,7.43-12.91,1.45-.15-.68-.2-1.4-.18-2.12,.08-.4,.17-.78,.25-1.13,.67-2.89,3.21-5.48,6.07-5.42,2.79,.04,4.83,1.56,6.13,3.59Z"/>
      <path class="cls-2" d="M87.39,54.17c1.98-.32,3.91,1.41,4.31,3.86,.4,2.45-.88,4.71-2.86,5.03-1.98,.32-3.91-1.41-4.31-3.86-.4-2.45,.88-4.71,2.86-5.03Z"/>
      <path class="cls-18" d="M92.17,66.78c1.17,1.92,5,2.29,8.28,.11,3.28-2.19,1.73,4.54-2.4,5.95-4.14,1.4-9.18-5.18-5.88-6.05Z"/>
      <path class="cls-15" d="M87.75,55.96c1.18-.19,2.32,.84,2.56,2.29,.24,1.46-.52,2.8-1.7,2.99-1.18,.19-2.32-.83-2.56-2.29-.24-1.46,.52-2.8,1.7-2.99Z"/>
      <path class="cls-3" d="M84.49,55.01c.53-.09,1.05,.4,1.16,1.08,.11,.68-.23,1.31-.76,1.4-.53,.09-1.05-.4-1.16-1.08-.11-.68,.23-1.31,.76-1.4Z"/>
      <path class="cls-3" d="M90.82,60.65c.37-.06,.72,.27,.8,.74,.08,.47-.16,.9-.52,.96-.37,.06-.73-.27-.8-.75-.08-.47,.16-.9,.52-.96Z"/>
      <path class="cls-15" d="M79.1,62.24c-.02-2.71,.37-5.44,1.33-7.39,1.01-2.03,2.72-3,4.54-2.96,4.18,.1,6.06,4.18,7.04,8.89,.03-2.05,0-2.96-.83-4.97-1.53-3.67-4.05-5.23-6.42-5.13-3.84,.17-7.31,4.66-5.65,11.55Z"/>
      <path class="cls-15" d="M77.54,49.17c-.32-5.23,7.31-9.15,10.82-7.13,2.27,1.31,2.58,4.42,1.21,4.23-5.67-.76-6.95-.02-12.03,2.89Z"/>
      <path class="cls-15" d="M96.45,71.11c-1.59-.76-5.62-2.59-3.25-5.08,1.21-1.27,2.87-.76,4.33-.45-2.67-2.32-6.13-1.03-6.31,1.66-.19,2.86,2.77,3.88,5.23,3.87Z"/>
      <path class="cls-15" d="M96.37,71.05l.18,.08h-.1c-.2,0-.41,0-.62-.02-1.12-.07-2.27-.36-3.15-.94-.88-.58-1.49-1.44-1.49-2.67,0-.09,0-.18,0-.27,.05-.69,.31-1.29,.72-1.76,.33-.38,.76-.68,1.25-.87,.49-.19,1.04-.28,1.61-.24,.91,.06,1.88,.43,2.77,1.2l.07,.06-.09-.02c-.12-.02-.24-.05-.36-.08-1.36-.31-2.85-.64-3.95,.52-1.17,1.23-.76,2.31,.14,3.16,.87,.83,2.21,1.46,3.02,1.85h0Zm-.03,.04c-.81-.38-2.14-1.01-3.02-1.85-.92-.87-1.34-1.97-.14-3.23,1.12-1.18,2.62-.84,3.99-.53l.27,.06c-.86-.72-1.79-1.07-2.67-1.13-.57-.04-1.11,.05-1.59,.24-.48,.19-.91,.48-1.23,.86-.4,.46-.66,1.05-.71,1.74,0,.09,0,.18,0,.27,0,1.2,.6,2.06,1.47,2.63,.87,.57,2.02,.86,3.13,.93,.17,.01,.34,.02,.51,.02Z"/>
      <path class="cls-15" d="M110.18,73.6c-1.67,11.78-16.06,15.54-22.32,2.4,0,0,9.93,6.11,22.32-2.4Z"/>
      <path class="cls-15" d="M111.17,72.92c-6.01,4.4-11.34,6.07-18.13,4.92-2.88-.49-3.98-1.19-6.18-2.56l1.94,1.78c6.46,4.33,17.2,1.68,22.37-4.14Z"/>
      <path class="cls-15" d="M111,73.07c-2.94,2.13-5.72,3.61-8.6,4.41-2.94,.82-5.97,.95-9.37,.37-2.79-.48-3.91-1.14-5.98-2.43l1.76,1.61c3.12,2.09,7.24,2.55,11.25,1.81,4.2-.78,8.27-2.87,10.94-5.78h0Zm-8.61,4.37c2.93-.82,5.76-2.34,8.77-4.54l.18-.13-.15,.16c-2.67,3.01-6.83,5.17-11.11,5.96-4.02,.74-8.16,.28-11.29-1.82-.54-.37-1.57-1.43-2.13-1.95l.3,.18c2.14,1.33,3.25,2.02,6.08,2.5,3.39,.58,6.42,.45,9.35-.37Z"/>
      <path class="cls-3" d="M88.8,76.49c2.7,1.23,10.89,3.96,20.75-2.46,.8-.52-.35,.34-.77,1.34-2.56,6.05-10.26,6.55-16.28,5.27-1.18-.25-4.32-4.43-3.69-4.15Z"/>
      <path class="cls-18" d="M105.62,85.04c.18,1.44-1.58,4.72-4.39,5.54-3.26,.95-6.86-2.95-6.73-5.07,3.71,2.1,7.9,1.74,11.13-.47Z"/>
      <g>
        <path class="cls-5" d="M82.43,66.89c-3.13-.75-6.15,.32-6.76,2.39-.6,2.07,1.44,4.36,4.57,5.11,3.13,.75,6.15-.32,6.76-2.39,.6-2.07-1.44-4.36-4.57-5.11Z"/>
        <path class="cls-18" d="M81.35,69.05c-.06-.16,.02-.33,.17-.39,.16-.06,.33,.01,.39,.17,.69,1.73,1.43,2.55,1.43,2.56,.11,.13,.1,.32-.02,.43-.13,.11-.32,.1-.43-.02,0,0-.81-.9-1.55-2.74Z"/>
        <path class="cls-18" d="M78.98,68.81c-.04-.16,.05-.33,.21-.38,.16-.04,.33,.05,.37,.21,.32,1.14,1.89,3.19,1.9,3.19,.1,.13,.07,.32-.06,.42-.13,.1-.32,.07-.42-.06,0,0-1.65-2.15-2-3.4Z"/>
      </g>
      <g>
        <path class="cls-5" d="M117.29,65.07c-3.49,0-6.42,1.91-6.53,4.25-.11,2.34,2.63,4.24,6.13,4.24,3.49,0,6.42-1.91,6.53-4.25,.11-2.34-2.63-4.24-6.13-4.24Z"/>
        <path class="cls-18" d="M116.72,67.61c-.1-.14-.07-.33,.07-.42,.14-.1,.32-.07,.42,.07,1.18,1.66,2.17,2.34,2.17,2.34,.14,.09,.17,.28,.08,.42-.09,.14-.28,.17-.42,.08,0,0-1.09-.74-2.33-2.49Z"/>
        <path class="cls-18" d="M114.16,67.97c-.08-.15-.03-.33,.12-.41,.15-.08,.33-.03,.41,.12,.63,1.12,2.82,2.89,2.82,2.9,.13,.11,.15,.3,.04,.43-.11,.13-.3,.15-.43,.04,0,0-2.28-1.85-2.97-3.07Z"/>
      </g>
      <path class="cls-15" d="M83.83,74.63l-1.2,1.72c4.47,2.13,14.07,3.58,14.23,3.07l.99-3.13,1.85,2.93s8.09-.43,11.55-2.9c1-.71,1.89-1.37,2.64-1.95-1.7-.86-3.18-2.23-3.18-2.23,0,0,2.45,.99,4.11,1.51,1.28-1.01,2-1.62,2-1.62l-9.49-3.07c-1.7-.55-2.65,2.66-9.88,2.78-7.09,.12-9.17-2.15-10.3-1.63h0s-.02,.01-.02,.01c-.1,.05-.19,.12-.28,.22-3.04,2.37-6.2,4.33-6.2,4.33,1.06,.9,1.77,.63,3.18-.03Z"/>
      <path class="cls-8" d="M88.82,70.34c-1.7,2.02-3.15,3.63-5.29,4.71l.29-.42c-.97,.45-1.62,.73-2.27,.55,2.96-.92,4.64-2.69,6.63-5.04,.19,.05,.4,.12,.63,.21h0Zm-3.43,7.06c.23,.07,.46,.14,.69,.21,1.23-1.09,2.46-2.49,3.48-4.27,.52-.9,.96-1.67,1.34-2.33-.21-.06-.42-.12-.61-.17-.36,.63-.78,1.36-1.26,2.2-1.07,1.86-2.36,3.28-3.64,4.37h0Zm8.12-5.88c-.9,2.17-2.1,4.81-3.46,7.08-.21-.05-.42-.09-.64-.14,1.36-2.23,2.57-4.86,3.47-7.04,.2,.03,.41,.06,.63,.09h0Zm.12,7.73c.58-2.24,1.35-5.24,1.9-7.55,.2,.01,.41,.02,.63,.02-.55,2.3-1.33,5.34-1.92,7.61-.2-.03-.4-.05-.61-.08h0Zm4.98-7.57l-.23,5.45-.53-.84-.05,.17,.2-4.74c.21,0,.42-.02,.62-.03h0Zm3.59,7.3c-.42-1.14-.88-2.55-1.27-3.99-.32-1.18-.59-2.38-.77-3.47,.21-.03,.41-.07,.61-.1,.17,1.07,.44,2.25,.76,3.42,.4,1.5,.87,2.95,1.28,4.07-.21,.03-.41,.05-.6,.08h0Zm1.01-8.28c-.18,.08-.38,.15-.58,.22,.52,2.36,1.5,5.58,3.16,7.47,.23-.05,.46-.1,.69-.16-1.74-1.77-2.74-5.12-3.27-7.53h0Zm5.57,6.85c-1.75-2.07-4.1-5.13-4.62-7.29,.2-.1,.39-.21,.56-.31,.4,2.08,2.89,5.28,4.67,7.36-.2,.08-.4,.16-.61,.23h0Zm-2.18-8.61c.52,.87,1.23,1.88,2.11,2.86,1.14,1.27,2.57,2.49,4.24,3.29-.18,.14-.36,.27-.56,.41-1.62-.84-3.01-2.03-4.14-3.29-.92-1.03-1.67-2.1-2.21-3.04,.2-.1,.38-.18,.57-.23Z"/>
    </g>
    <text class="cls-19" transform="translate(109.96 127.83) rotate(5.33) scale(.97 1)"><tspan x="0" y="0">HB</tspan></text>
    <text class="cls-20" transform="translate(92.02 15.6) rotate(5.33) scale(1.03 1)"><tspan x="0" y="0">HB</tspan></text>
  </g>
</svg>