<?xml version="1.0" encoding="UTF-8"?>
<svg id="_Слой_2" data-name="Слой 2" xmlns="http://www.w3.org/2000/svg" viewBox="0 0 26 30">
  <g id="_Слой_3" data-name="Слой 3">
    <path d="M25,3h-7V1c0-.55-.45-1-1-1H9c-.55,0-1,.45-1,1V3H1c-.55,0-1,.45-1,1v3c0,.55,.45,1,1,1h1V26c0,2.21,1.79,4,4,4h14c2.21,0,4-1.79,4-4V8h1c.55,0,1-.45,1-1v-3c0-.55-.45-1-1-1Zm-15-1h6v1h-6v-1Zm12,24c0,1.1-.9,2-2,2H6c-1.1,0-2-.9-2-2V8H22V26Zm2-20H2v-1H24v1ZM12,25V11c0-.55,.45-1,1-1s1,.45,1,1v14c0,.55-.45,1-1,1s-1-.45-1-1Zm-5,0V11c0-.55,.45-1,1-1s1,.45,1,1v14c0,.55-.45,1-1,1s-1-.45-1-1Zm10,0V11c0-.55,.45-1,1-1s1,.45,1,1v14c0,.55-.45,1-1,1s-1-.45-1-1Z"/>
  </g>
</svg>