<?xml version="1.0" encoding="UTF-8"?>
<svg id="_Слой_2" data-name="Слой 2" xmlns="http://www.w3.org/2000/svg" viewBox="0 0 961.65 449.64">
  <defs>
    <style>
      .cls-1 {
        fill: #85838c;
      }

      .cls-2 {
        fill: #fff;
      }

      .cls-3 {
        fill: #a8e0fb;
      }

      .cls-4, .cls-5 {
        fill: #3a9ac9;
      }

      .cls-6 {
        fill: #c9c8cc;
      }

      .cls-7 {
        fill: #5c5963;
      }

      .cls-8 {
        fill: #68aed8;
      }

      .cls-9, .cls-10 {
        fill: #f0500a;
      }

      .cls-11, .cls-12 {
        fill: #312e37;
      }

      .cls-10 {
        font-size: 245.09px;
      }

      .cls-10, .cls-12 {
        font-family: Bender-Bold, Bender;
        font-weight: 700;
      }

      .cls-13 {
        fill: #168ab7;
      }

      .cls-14 {
        fill: none;
        stroke: #c93d06;
        stroke-miterlimit: 10;
      }

      .cls-15 {
        fill: #b53008;
      }

      .cls-16 {
        fill: #6a6972;
      }

      .cls-17 {
        fill: #413f47;
      }

      .cls-5 {
        opacity: .8;
      }

      .cls-12 {
        font-size: 246.22px;
      }

      .cls-18 {
        fill: #8cd2f4;
      }
    </style>
  </defs>
  <g id="Layer_1" data-name="Layer 1">
    <rect class="cls-8" x="35.41" y="0" width="696.41" height="286.69"/>
    <path class="cls-15" d="M950.08,203.59s10.72,4.23,11.57,12.98v94.25l-11.85,12.98-21.45-27.09,21.73-93.12Z"/>
    <rect class="cls-7" x="15.52" y="285.98" width="932.3" height="77.88"/>
    <rect class="cls-17" x="15.52" y="351.45" width="932.3" height="12.42"/>
    <rect class="cls-7" x="15.52" y="309.12" width="13.19" height="85.5"/>
    <path class="cls-9" d="M911.87,100.88h-164.39v189.92l74.92,.12c49.1,.85,64.54,36.26,64.54,36.26h63.14v-123.59l-38.21-102.71Z"/>
    <polygon class="cls-3" points="820.28 178.76 930.6 178.76 905.2 110.48 820.28 110.48 820.28 178.76"/>
    <path class="cls-15" d="M747.48,101.02h181.36c-7.05-25.98-34.63-30.9-34.63-30.9h-146.73v30.9Z"/>
    <circle class="cls-11" cx="808.43" cy="377.97" r="71.67" transform="translate(-30.48 682.35) rotate(-45)"/>
    <path class="cls-2" d="M808.43,331.13c-25.87,0-46.84,20.97-46.84,46.84s20.97,46.84,46.84,46.84,46.84-20.97,46.84-46.84-20.97-46.84-46.84-46.84Zm0,84.37c-20.73,0-37.53-16.8-37.53-37.53s16.8-37.53,37.53-37.53,37.53,16.8,37.53,37.53-16.8,37.53-37.53,37.53Z"/>
    <circle class="cls-7" cx="808.43" cy="377.97" r="37.53"/>
    <circle class="cls-2" cx="808.43" cy="377.97" r="15.66" transform="translate(102.59 924.06) rotate(-62.79)"/>
    <circle class="cls-11" cx="321.4" cy="377.97" r="71.67" transform="translate(-173.13 337.97) rotate(-45)"/>
    <path class="cls-2" d="M321.4,331.13c-25.87,0-46.84,20.97-46.84,46.84s20.97,46.84,46.84,46.84,46.84-20.97,46.84-46.84-20.97-46.84-46.84-46.84Zm0,84.37c-20.73,0-37.53-16.8-37.53-37.53s16.8-37.53,37.53-37.53,37.53,16.8,37.53,37.53-16.8,37.53-37.53,37.53Z"/>
    <circle class="cls-7" cx="321.4" cy="377.97" r="37.53" transform="translate(-3.93 3.38) rotate(-.6)"/>
    <circle class="cls-2" cx="321.4" cy="377.97" r="15.66" transform="translate(-173.13 337.97) rotate(-45)"/>
    <circle class="cls-11" cx="133.47" cy="377.97" r="71.67" transform="translate(-228.17 205.08) rotate(-45)"/>
    <path class="cls-2" d="M133.47,331.13c-25.87,0-46.84,20.97-46.84,46.84s20.97,46.84,46.84,46.84,46.84-20.97,46.84-46.84-20.97-46.84-46.84-46.84Zm0,84.37c-20.73,0-37.53-16.8-37.53-37.53s16.8-37.53,37.53-37.53,37.53,16.8,37.53,37.53-16.8,37.53-37.53,37.53Z"/>
    <circle class="cls-7" cx="133.47" cy="377.97" r="37.53" transform="translate(-2.41 .86) rotate(-.37)"/>
    <circle class="cls-2" cx="133.47" cy="377.97" r="15.66" transform="translate(-228.17 205.08) rotate(-45)"/>
    <path class="cls-17" d="M808.43,291.9c-46.51,0-84.5,37.09-86,83.25h14.47c1.5-38.21,32.96-68.85,71.53-68.85s70.03,30.64,71.53,68.85h14.47c-1.5-46.16-39.49-83.25-86-83.25Z"/>
    <path class="cls-17" d="M321.4,291.9c-46.51,0-84.5,37.09-86,83.25h14.47c1.5-38.21,32.96-68.85,71.53-68.85s70.03,30.64,71.53,68.85h14.47c-1.5-46.16-39.49-83.25-86-83.25Z"/>
    <path class="cls-17" d="M133.47,291.9c-46.51,0-84.5,37.09-86,83.25h14.47c1.49-38.27,32.9-68.85,71.53-68.85s70.04,30.59,71.53,68.85h14.47c-1.5-46.16-39.49-83.25-86-83.25Z"/>
    <polygon class="cls-18" points="820.28 110.48 820.28 178.76 905.2 110.48 820.28 110.48"/>
    <line class="cls-14" x1="747.62" y1="253.25" x2="950.01" y2="253.25"/>
    <line class="cls-14" x1="806.17" y1="97.28" x2="806.17" y2="290.5"/>
    <path class="cls-2" d="M857.96,231.81c0-3.16-2.84-5.71-6.35-5.71h-23.15c-3.51,0-6.35,2.56-6.35,5.71h0c0,3.16,2.84,5.71,6.35,5.71h23.15c3.51,0,6.35-2.56,6.35-5.71h0Z"/>
    <path class="cls-15" d="M793.33,114.35c0-1.87-2.1-3.39-4.7-3.39h-21.43c-2.59,0-4.7,1.52-4.7,3.39v59.89c0,1.87,2.1,3.39,4.7,3.39h21.43c2.59,0,4.7-1.52,4.7-3.39v-59.89Z"/>
    <rect class="cls-9" y="337.9" width="15.66" height="43.6"/>
    <rect class="cls-6" x="485.06" y="310.53" width="176.92" height="69.7"/>
    <rect class="cls-16" x="485.06" y="355.68" width="176.92" height="24.55"/>
    <rect class="cls-1" x="485.06" y="310.53" width="176.92" height="21.16"/>
    <rect class="cls-17" x="584.81" y="310.53" width="10.44" height="69.7"/>
    <rect class="cls-17" x="629.67" y="310.53" width="10.44" height="69.7"/>
    <g>
      <g>
        <rect class="cls-13" x="64.77" y="18.06" width="12.2" height="249.16"/>
        <rect class="cls-13" x="104.3" y="18.06" width="12.2" height="249.16"/>
        <rect class="cls-13" x="143.82" y="18.06" width="12.2" height="249.16"/>
        <rect class="cls-13" x="183.34" y="18.06" width="12.2" height="249.16"/>
        <rect class="cls-13" x="222.86" y="18.06" width="12.2" height="249.16"/>
        <rect class="cls-13" x="262.38" y="18.06" width="12.2" height="249.16"/>
        <rect class="cls-13" x="301.9" y="18.06" width="12.2" height="249.16"/>
        <rect class="cls-13" x="341.42" y="18.06" width="12.2" height="249.16"/>
        <rect class="cls-13" x="380.95" y="18.06" width="12.2" height="249.16"/>
        <rect class="cls-13" x="420.47" y="18.06" width="12.2" height="249.16"/>
        <rect class="cls-13" x="459.99" y="18.06" width="12.2" height="249.16"/>
        <rect class="cls-13" x="499.51" y="18.06" width="12.2" height="249.16"/>
        <rect class="cls-13" x="539.03" y="18.06" width="12.2" height="249.16"/>
        <rect class="cls-13" x="578.55" y="18.06" width="12.2" height="249.16"/>
        <rect class="cls-13" x="618.07" y="18.06" width="12.2" height="249.16"/>
        <rect class="cls-13" x="657.6" y="18.06" width="12.2" height="249.16"/>
        <rect class="cls-13" x="697.12" y="18.06" width="12.2" height="249.16"/>
      </g>
      <g>
        <rect class="cls-4" x="60.89" y="18.06" width="12.2" height="249.16"/>
        <rect class="cls-4" x="100.41" y="18.06" width="12.2" height="249.16"/>
        <rect class="cls-4" x="139.93" y="18.06" width="12.2" height="249.16"/>
        <rect class="cls-4" x="179.46" y="18.06" width="12.2" height="249.16"/>
        <rect class="cls-4" x="218.98" y="18.06" width="12.2" height="249.16"/>
        <rect class="cls-4" x="258.5" y="18.06" width="12.2" height="249.16"/>
        <rect class="cls-4" x="298.02" y="18.06" width="12.2" height="249.16"/>
        <rect class="cls-4" x="337.54" y="18.06" width="12.2" height="249.16"/>
        <rect class="cls-4" x="377.06" y="18.06" width="12.2" height="249.16"/>
        <rect class="cls-4" x="416.58" y="18.06" width="12.2" height="249.16"/>
        <rect class="cls-4" x="456.11" y="18.06" width="12.2" height="249.16"/>
        <rect class="cls-4" x="495.63" y="18.06" width="12.2" height="249.16"/>
        <rect class="cls-4" x="535.15" y="18.06" width="12.2" height="249.16"/>
        <rect class="cls-4" x="574.67" y="18.06" width="12.2" height="249.16"/>
        <rect class="cls-4" x="614.19" y="18.06" width="12.2" height="249.16"/>
        <rect class="cls-4" x="653.71" y="18.06" width="12.2" height="249.16"/>
        <rect class="cls-4" x="693.23" y="18.06" width="12.2" height="249.16"/>
      </g>
      <polygon class="cls-5" points="700.86 18.06 693.23 18.06 682.71 18.06 669.64 18.06 665.92 18.06 653.71 18.06 626.39 18.06 614.19 18.06 599.75 18.06 586.87 18.06 574.67 18.06 568.53 18.06 547.35 18.06 535.15 18.06 507.83 18.06 498.64 18.06 495.63 18.06 468.31 18.06 467.42 18.06 456.11 18.06 428.79 18.06 416.58 18.06 397.53 18.06 389.27 18.06 377.06 18.06 366.31 18.06 296.42 18.06 265.2 18.06 195.3 18.06 164.08 18.06 73.09 18.06 62.97 18.06 60.89 18.06 60.89 30.53 62.97 30.53 73.09 30.53 164.08 30.53 195.3 30.53 265.2 30.53 296.42 30.53 366.31 30.53 377.06 30.53 389.27 30.53 397.53 30.53 416.58 30.53 428.79 30.53 456.11 30.53 467.42 30.53 468.31 30.53 495.63 30.53 498.64 30.53 507.83 30.53 535.15 30.53 547.35 30.53 568.53 30.53 574.67 30.53 586.87 30.53 599.75 30.53 614.19 30.53 626.39 30.53 653.71 30.53 665.92 30.53 669.64 30.53 682.71 30.53 693.23 30.53 700.86 30.53 705.44 30.53 705.44 18.06 700.86 18.06"/>
    </g>
    <path class="cls-4" d="M45.76,3.23c-1.36,0-2.46,1.2-2.46,2.69v6.72c0,1.49,1.1,2.69,2.46,2.69h2.87c1.36,0,2.46-1.2,2.46-2.69V5.91c0-1.49-1.1-2.69-2.46-2.69h-2.87Z"/>
    <path class="cls-4" d="M45.76,268.65c-1.36,0-2.46,1.2-2.46,2.69v6.72c0,1.49,1.1,2.69,2.46,2.69h2.87c1.36,0,2.46-1.2,2.46-2.69v-6.72c0-1.49-1.1-2.69-2.46-2.69h-2.87Z"/>
    <path class="cls-4" d="M719.4,3.23c-1.36,0-2.46,1.2-2.46,2.69v6.72c0,1.49,1.1,2.69,2.46,2.69h2.87c1.36,0,2.46-1.2,2.46-2.69V5.91c0-1.49-1.1-2.69-2.46-2.69h-2.87Z"/>
    <path class="cls-4" d="M719.4,268.65c-1.36,0-2.46,1.2-2.46,2.69v6.72c0,1.49,1.1,2.69,2.46,2.69h2.87c1.36,0,2.46-1.2,2.46-2.69v-6.72c0-1.49-1.1-2.69-2.46-2.69h-2.87Z"/>
    <g>
      <text class="cls-12" transform="translate(168.52 229.57)"><tspan x="0" y="0">404</tspan></text>
      <text class="cls-10" transform="translate(156.55 222.62)"><tspan x="0" y="0">404</tspan></text>
    </g>
  </g>
</svg>