<?xml version="1.0" encoding="UTF-8"?>
<svg id="_Слой_2" data-name="Слой 2" xmlns="http://www.w3.org/2000/svg" viewBox="0 0 15.85 9.25">
  <defs>
    <style>
      .cls-1 {
        stroke: #000;
        stroke-miterlimit: 10;
        stroke-width: .5px;
      }
    </style>
  </defs>
  <g id="_Слой_1-2" data-name="Слой 1">
    <path class="cls-1" d="M.25,1.17c.07-.27,.18-.51,.41-.69,.38-.3,.94-.31,1.32,0,.07,.06,.14,.12,.21,.19,1.87,1.87,3.73,3.73,5.6,5.6,.04,.04,.08,.09,.18,.17,.03-.05,.05-.12,.09-.16,1.88-1.89,3.77-3.77,5.65-5.65,.33-.33,.72-.46,1.17-.32,.68,.22,.94,1.09,.51,1.65-.05,.06-.1,.12-.16,.18-2.16,2.16-4.33,4.33-6.49,6.49-.4,.4-.91,.49-1.36,.22-.11-.06-.21-.16-.3-.25C4.98,6.49,2.87,4.39,.76,2.28c-.23-.23-.44-.47-.51-.81v-.3Z"/>
  </g>
</svg>