<?xml version="1.0" encoding="UTF-8"?>
<svg id="_Слой_2" data-name="Слой 2" xmlns="http://www.w3.org/2000/svg" viewBox="0 0 15.85 9.25">
  <g id="_Слой_2-2" data-name=" Слой 2">
    <path d="M15.79,.93c-.13-.41-.44-.73-.83-.86h0c-.52-.16-1.01-.03-1.42,.38l-1.91,1.91c-1.23,1.23-2.46,2.46-3.69,3.69L2.37,.49c-.07-.07-.14-.13-.23-.21-.47-.38-1.15-.38-1.63,0C.19,.53,.07,.87,0,1.11v.03s0,.38,0,.38c.09,.42,.34,.7,.58,.94l2.04,2.04c1.43,1.43,2.85,2.85,4.28,4.28,.1,.1,.21,.21,.35,.28,.21,.13,.44,.19,.67,.19,.35,0,.71-.15,1-.45L15.41,2.32c.06-.07,.12-.13,.18-.2,.25-.33,.33-.77,.2-1.18Z"/>
  </g>
</svg>