<?xml version="1.0" encoding="UTF-8"?>
<svg id="_Слой_2" data-name="Слой 2" xmlns="http://www.w3.org/2000/svg" viewBox="0 0 14.55 14.55">
  <defs>
    <style>
      .cls-1 {
        fill: #f0500a;
      }
    </style>
  </defs>
  <g id="_Слой_2-2" data-name="Слой 2">
    <path class="cls-1" d="M0,0V14.55H14.55V0H0ZM12.16,4.03l-4.27,7.41c-.19,.32-.51,.51-.85,.53-.05,.02-.09,.02-.14,.02-.35,.02-.7-.13-.93-.42L2.38,6.96c-.37-.48-.29-1.17,.19-1.55,.2-.15,.44-.23,.68-.23,.33,0,.65,.15,.87,.43l2.63,3.37,3.49-6.06c.31-.53,.99-.71,1.52-.41,.35,.21,.55,.58,.55,.96,0,.19-.05,.38-.15,.56Z"/>
  </g>
</svg>