<?xml version="1.0" encoding="UTF-8"?>
<svg id="_Слой_2" data-name="Слой 2" xmlns="http://www.w3.org/2000/svg" viewBox="0 0 512 512">
  <g id="_Слой_3" data-name="Слой 3">
    <g>
      <path d="M256,88.01c-93.73,0-169.99,76.26-169.99,169.99s76.26,169.99,169.99,169.99,169.99-76.26,169.99-169.99-76.26-169.99-169.99-169.99Zm78.09,188.68h-77.9c-5.8,0-10.82-3.29-13.32-8.11-1.23-2.22-1.87-4.71-1.87-7.25v-117.9c0-8.29,6.71-15,15-15s15,6.71,15,15v103.26h63.09c8.28,0,15,6.72,15,15s-6.72,15-15,15h0Z"/>
      <path d="M437.02,74.98C388.67,26.63,324.38,0,256,0S123.33,26.63,74.98,74.98C26.63,123.33,0,187.62,0,256s26.63,132.67,74.98,181.02c48.35,48.35,112.64,74.98,181.02,74.98s132.67-26.63,181.02-74.98c48.35-48.35,74.98-112.64,74.98-181.02s-26.63-132.67-74.98-181.02Zm-181.02,383.01c-110.27,0-199.99-89.71-199.99-199.99S145.73,58.01,256,58.01s199.99,89.72,199.99,199.99-89.72,199.99-199.99,199.99Z"/>
    </g>
  </g>
</svg>