<?xml version="1.0" encoding="UTF-8"?>
<svg id="_Слой_2" data-name="Слой 2" xmlns="http://www.w3.org/2000/svg" viewBox="0 0 348.33 348.33">
  <g id="_Слой_3" data-name="Слой 3">
    <path d="M336.56,68.61l-105.54,105.55,105.54,105.55c15.7,15.7,15.7,41.14,0,56.85-7.84,7.84-18.13,11.77-28.41,11.77s-20.58-3.92-28.42-11.77l-105.57-105.56-105.56,105.56c-7.84,7.84-18.13,11.77-28.42,11.77s-20.56-3.92-28.41-11.77c-15.7-15.7-15.7-41.14,0-56.85l105.54-105.55L11.77,68.61C-3.92,52.91-3.92,27.46,11.77,11.77c15.7-15.69,41.13-15.69,56.83,0l105.56,105.55L279.72,11.77c15.7-15.69,41.14-15.69,56.83,0,15.7,15.7,15.7,41.15,0,56.84h0Z"/>
  </g>
</svg>