<?xml version="1.0" encoding="UTF-8"?>
<svg id="_Слой_2" data-name="Слой 2" xmlns="http://www.w3.org/2000/svg" viewBox="0 0 511.95 512">
  <g id="_Слой_2-2" data-name="Слой 2">
    <path d="M498.2,222.7l-.04-.04L289.31,13.81c-8.9-8.91-20.74-13.81-33.33-13.81s-24.43,4.9-33.33,13.81L13.9,222.55c-.07,.07-.14,.14-.21,.21-18.28,18.39-18.25,48.22,.09,66.56,8.38,8.38,19.44,13.24,31.28,13.75,.48,.05,.97,.07,1.45,.07h8.32v153.7c0,30.42,24.75,55.16,55.17,55.16h81.71c8.28,0,15-6.71,15-15v-120.5c0-13.88,11.29-25.17,25.17-25.17h48.2c13.88,0,25.17,11.29,25.17,25.17v120.5c0,8.29,6.71,15,15,15h81.71c30.42,0,55.17-24.75,55.17-55.16v-153.7h7.72c12.59,0,24.42-4.9,33.33-13.81,18.36-18.37,18.37-48.25,.02-66.64Z"/>
  </g>
</svg>