<?xml version="1.0" encoding="UTF-8"?>
<svg id="_Слой_2" data-name="Слой 2" xmlns="http://www.w3.org/2000/svg" viewBox="0 0 452.1 98.92">
  <defs>
    <style>
      .cls-1 {
        fill: #f0500a;
      }
    </style>
  </defs>
  <g id="_Слой_1-2" data-name="Слой 1">
    <path d="M444.89,0H71.54c-2.25,0-4.36,1.05-5.72,2.84C44.37,31.02,22.93,59.2,1.48,87.38c-3.6,4.73-.23,11.55,5.72,11.55H380.88c2.25,0,4.37-1.05,5.73-2.85,21.34-28.18,42.68-56.36,64.02-84.54,3.59-4.74,.21-11.53-5.73-11.53Z"/>
    <path class="cls-1" d="M0,66.87V1.71C0,.77,.77,0,1.71,0H53.21c1.43,0,2.23,1.65,1.34,2.77C37.38,24.49,20.22,46.21,3.05,67.93,2.05,69.2,0,68.49,0,66.87Z"/>
  </g>
</svg>