<?xml version="1.0" encoding="UTF-8"?>
<svg id="_Слой_2" data-name="Слой 2" xmlns="http://www.w3.org/2000/svg" viewBox="0 0 941.75 651.17">
  <defs>
    <style>
      .cls-1, .cls-2, .cls-3, .cls-4, .cls-5, .cls-6, .cls-7 {
        opacity: .72;
      }

      .cls-8 {
        fill: none;
        stroke: #99574a;
        stroke-miterlimit: 10;
        stroke-width: 5px;
      }

      .cls-2, .cls-9 {
        fill: #c43e0b;
      }

      .cls-10, .cls-3 {
        fill: #ee510c;
      }

      .cls-11 {
        fill: #8f2e0a;
        opacity: .76;
      }

      .cls-12, .cls-13 {
        fill: #cf654b;
      }

      .cls-4, .cls-14 {
        fill: #6b2408;
      }

      .cls-15 {
        fill: #c9c9c9;
      }

      .cls-5 {
        fill: #d85f3b;
      }

      .cls-6 {
        fill: #a53f17;
      }

      .cls-7 {
        fill: #ec510e;
      }

      .cls-16 {
        fill: #ccc;
      }

      .cls-17 {
        fill: #c6c6c6;
      }

      .cls-13 {
        opacity: .43;
      }
    </style>
  </defs>
  <g id="Layer_1" data-name="Layer 1">
    <g class="cls-1">
      <path class="cls-10" d="M713.83,313.93l-28.01-62.64c-3.48-7.78-11.21-12.79-19.73-12.79h-84.1c-7.44,0-13.48,6.03-13.48,13.47v172.95h131.94c8.7,0,15.76-7.06,15.76-15.76v-84.11c0-3.83-.81-7.62-2.38-11.12Zm-16.04,36.05c2.92,0,5.29,2.37,5.29,5.29v17.22c0,2.92-2.37,5.29-5.29,5.29h-6.77c-4.19,0-7.59-3.4-7.59-7.59v-12.62h0c0-4.2,3.4-7.59,7.59-7.59h6.77Zm-103.8-78.24c0-5.94,4.82-10.76,10.76-10.75h52.71c5.29,0,10.08,3.13,12.19,7.98l15.39,35.21c2.79,6.38-1.89,13.54-8.86,13.54h-71.43c-5.94,0-10.76-4.82-10.76-10.76v-35.22Z"/>
      <path class="cls-9" d="M243.98,398.66h324.53v26.26H243.98v-26.26Z"/>
      <path class="cls-14" d="M716.2,409.17v-10.5h-147.69v26.26h131.94c8.7,0,15.75-7.05,15.75-15.75h0Z"/>
      <path class="cls-10" d="M620.9,355.54h-52.39v69.39h100.46v-21.32c0-26.55-21.52-48.07-48.07-48.07h0Z"/>
      <path class="cls-12" d="M204.2,188.01h351.18v197.52H204.2V188.01Z"/>
      <path class="cls-9" d="M484.36,385.54h71.03V188.01H286.83l197.53,197.52Z"/>
      <ellipse class="cls-14" cx="616.12" cy="425.66" rx="40.2" ry="40.52"/>
      <ellipse class="cls-9" cx="616.12" cy="425.66" rx="15.73" ry="15.86"/>
      <ellipse class="cls-14" cx="439.81" cy="425.66" rx="40.2" ry="40.52"/>
      <ellipse class="cls-9" cx="439.81" cy="425.66" rx="15.73" ry="15.86"/>
      <ellipse class="cls-14" cx="319.79" cy="425.66" rx="40.2" ry="40.52"/>
      <ellipse class="cls-9" cx="319.79" cy="425.66" rx="15.73" ry="15.86"/>
      <path class="cls-14" d="M230.47,221.14v26.26h298.66v-26.26H230.47Zm0,52.51v26.26h298.66v-26.26H230.47Zm0,52.52v26.25h298.66v-26.25H230.47Z"/>
    </g>
    <circle class="cls-17" cx="759.33" cy="127.47" r="127.47"/>
    <path class="cls-4" d="M776.74,149.9c-.68-3.1-3.2-5.47-6.34-5.94-8.69-1.37-14.8-9.41-13.83-17.93,.13-1.16,.4-2.29,.79-3.39,1-2.89-.03-6.24-2.52-8.33-5.25-4.54-11.21-8.18-17.64-10.81-2.88-1.22-6.24-.33-8.12,2.18-5.04,6.66-14.52,7.98-21.18,2.94-.11-.08-.22-.17-.33-.25-.97-.78-1.84-1.68-2.59-2.69-1.89-2.5-5.23-3.4-8.11-2.18-5.93,2.42-11.47,5.71-16.42,9.76-2.61,2.12-3.7,5.59-2.64,8.58,2.96,7.86-1.03,17.07-9.16,20.43-1.45,.6-2.97,1-4.53,1.17-3.26,.39-5.92,2.77-6.67,5.96-1.49,6.61-1.62,13.44-.39,20.1,.65,3.3,3.36,5.79,6.69,6.17,8.7,.91,15.16,8.6,14.61,17.15-.11,1.72-.52,3.41-1.2,5-1.28,2.97-.29,6.57,2.37,8.76,5.22,4.46,11.12,8.06,17.48,10.66,.79,.3,1.62,.47,2.47,.51,2.33,.04,4.52-1.11,5.8-3.05,4.61-6.94,13.98-8.82,20.91-4.2,1.52,1.01,2.85,2.29,3.91,3.78,1.89,2.69,5.43,3.64,8.42,2.27,5.82-2.58,11.23-5.98,16.06-10.12,2.53-2.14,3.56-5.56,2.48-8.49-3.06-7.82,.84-17.06,8.93-20.5,1.37-.58,2.81-.98,4.28-1.18,3.21-.47,5.78-2.88,6.45-6.05,.7-3.25,1.08-6.56,1.13-9.87,0-3.51-.37-7-1.1-10.42Zm-59.71,30.69c-11.2,0-20.27-9.07-20.28-20.27,0-11.2,9.08-20.27,20.27-20.28,5.59,.03,10.64,2.31,14.31,5.97,3.66,3.67,5.94,8.72,5.97,14.31,0,11.19-9.07,20.27-20.27,20.27Z"/>
    <path class="cls-3" d="M842.86,166.64c-3.52-3.02-4.06-8.25-1.25-11.93,.38-.48,.81-.92,1.3-1.3,1.27-1.1,1.74-2.87,1.18-4.46-1.11-3.51-2.78-6.81-4.95-9.78-.96-1.35-2.72-1.88-4.27-1.28-4.12,1.6-8.76-.43-10.36-4.55-.03-.08-.06-.15-.08-.23-.22-.62-.36-1.27-.42-1.93-.15-1.65-1.41-2.98-3.05-3.24-3.35-.56-6.76-.62-10.12-.17-1.73,.2-3.16,1.45-3.58,3.14-.85,4.36-5.21,7.41-9.81,6.66-.82-.13-1.61-.38-2.36-.74-1.57-.73-3.44-.4-4.66,.83-2.51,2.57-4.47,5.61-5.76,8.95-.63,1.67-.1,3.54,1.3,4.65,3.65,2.82,4.44,8.01,1.81,11.8-.52,.75-1.18,1.4-1.92,1.92-1.43,1.07-1.99,2.96-1.37,4.63,1.11,3.46,2.77,6.72,4.92,9.66,.27,.35,.6,.67,.97,.91,1.04,.67,2.34,.76,3.46,.24,4.01-1.84,8.76-.08,10.6,3.93,.4,.88,.64,1.82,.71,2.78,.1,1.73,1.43,3.14,3.14,3.36,3.34,.46,6.73,.43,10.06-.09,1.71-.23,3.09-1.49,3.48-3.16,.79-4.37,5.12-7.46,9.73-6.76,.78,.12,1.54,.34,2.26,.67,1.58,.68,3.41,.3,4.6-.94,1.22-1.27,2.31-2.65,3.26-4.13,.97-1.58,1.78-3.25,2.4-5,.56-1.59,.08-3.36-1.21-4.44Zm-19.47-1.84c-3.12,5.05-9.73,6.62-14.78,3.5-5.05-3.11-6.62-9.73-3.5-14.77,3.11-5.05,9.73-6.62,14.77-3.51t0,0c5.02,3.13,6.58,9.72,3.5,14.77Z"/>
    <path class="cls-2" d="M843.43,67.44c-.56-2.49-2.59-4.39-5.11-4.78v-.02c-7-1.11-11.93-7.59-11.14-14.45,.1-.93,.31-1.85,.63-2.73,.8-2.33-.02-5.03-2.03-6.71-4.24-3.66-9.04-6.6-14.22-8.71-2.33-.99-5.04-.25-6.55,1.77-4.07,5.37-11.71,6.43-17.09,2.36-.08-.07-.17-.13-.25-.2-.78-.63-1.48-1.36-2.08-2.16-1.52-2.01-4.21-2.74-6.54-1.76-4.78,1.94-9.24,4.6-13.22,7.87-2.1,1.71-2.98,4.5-2.13,6.91,2.39,6.33-.83,13.76-7.38,16.46-1.17,.48-2.4,.8-3.65,.94-2.62,.31-4.76,2.21-5.37,4.77-1.2,5.33-1.31,10.84-.32,16.2,.53,2.65,2.71,4.66,5.41,4.97,7,.74,12.21,6.94,11.75,13.83-.08,1.39-.41,2.76-.95,4.04-1.03,2.4-.23,5.3,1.91,7.07,4.21,3.59,8.96,6.49,14.09,8.58,.63,.25,1.31,.39,1.99,.41,1.88,.04,3.64-.89,4.67-2.45,3.72-5.59,11.27-7.11,16.85-3.39,1.23,.82,2.3,1.85,3.15,3.05,1.52,2.15,4.36,2.92,6.76,1.84,4.69-2.08,9.05-4.83,12.95-8.16,2.04-1.72,2.86-4.48,2-6.84-2.47-6.3,.67-13.75,7.19-16.53,1.11-.47,2.27-.79,3.45-.95,2.59-.37,4.66-2.32,5.21-4.88,.56-2.62,.86-5.28,.91-7.97,0-2.82-.3-5.63-.88-8.38Zm-48.13,24.72c-9.02,0-16.34-7.32-16.34-16.34s7.32-16.34,16.34-16.34c4.5,.02,8.58,1.85,11.53,4.81,2.95,2.96,4.78,7.03,4.81,11.53,0,9.02-7.32,16.34-16.34,16.34Z"/>
    <circle class="cls-15" cx="757.65" cy="565.2" r="85.97"/>
    <g class="cls-1">
      <path class="cls-14" d="M802.18,509.56c-.78-.46-1.76-.45-2.54,0-.79,.46-1.27,1.29-1.27,2.2v17.81c0,4.21-3.42,7.63-7.63,7.63h-35.62c-1.4,0-2.54,1.14-2.54,2.54,0,2.73,.34,5.46,1.01,8.11l-53.08,53.09c-2.52,2.52-3.91,5.87-3.91,9.43,0,7.35,5.98,13.34,13.33,13.34,3.56,0,6.91-1.38,9.43-3.91l40.28-40.28c4.33-4.33,10.08-6.71,16.19-6.71h9.82c18.24,0,33.08-14.84,33.08-33.08,0-12.33-6.64-24.46-16.54-30.19Zm-90.33,103.98c-2.8,0-5.09-2.29-5.09-5.09s2.29-5.09,5.09-5.09,5.09,2.29,5.09,5.09-2.28,5.09-5.09,5.09Zm65.89-62.47l-5.09,10.18c-.43,.86-1.32,1.41-2.28,1.4-.38,0-.77-.09-1.13-.27-1.26-.63-1.77-2.16-1.14-3.41l5.09-10.18c.63-1.26,2.16-1.77,3.41-1.14,1.26,.63,1.77,2.16,1.14,3.42h0Zm10.18,0l-5.09,10.18c-.43,.86-1.32,1.41-2.28,1.4-.38,0-.77-.09-1.13-.27-1.26-.63-1.77-2.16-1.14-3.41l5.09-10.18c.63-1.26,2.16-1.77,3.41-1.14,1.26,.63,1.77,2.16,1.14,3.42h0Zm10.18,0l-5.09,10.18c-.43,.86-1.32,1.41-2.28,1.4-.38,0-.77-.09-1.13-.27-1.26-.63-1.77-2.16-1.14-3.41l5.09-10.18c.63-1.26,2.16-1.77,3.41-1.14,1.26,.63,1.77,2.16,1.14,3.42h0Z"/>
      <path class="cls-14" d="M756.78,532.12h18.69c1.4,0,2.54-1.14,2.54-2.54v-20.36c0-.83-.4-1.6-1.07-2.08-.68-.47-1.54-.6-2.32-.32-9.29,3.29-16.86,11.5-20.26,21.97-.25,.77-.12,1.62,.36,2.28,.48,.66,1.24,1.05,2.06,1.05h0Z"/>
    </g>
    <g>
      <circle class="cls-16" cx="90.8" cy="148.42" r="90.8"/>
      <path class="cls-11" d="M59,158.18c3.74-.69,6.21-4.27,5.52-8.01s-8.83-10.03-8.83-10.03c0,0-5.38,8.78-4.69,12.52s4.27,6.21,8.01,5.52Z"/>
      <g>
        <path class="cls-13" d="M119.09,127.71l9.66-20.75,4.72,2.2-3.86,8.3c-.54,1.15,.09,2.57,1.4,3.17s2.79,.17,3.33-.98l3.86-8.3,9.45,4.4-6.76,14.53c-.54,1.15,.09,2.57,1.4,3.17s2.79,.17,3.33-.98l6.76-14.53,4.72,2.2-3.86,8.3c-.54,1.15,.09,2.57,1.4,3.17s2.79,.17,3.33-.98l3.86-8.3,4.72,2.2-9.66,20.75-37.79-17.59Z"/>
        <path class="cls-6" d="M122.58,144.07c1.73,1.44,2.19,3.91,1.1,5.87l-20.51,35.92c-2.54,4.44-.99,10.1,3.45,12.64,.22,.13,.45,.24,.68,.35l2.73,1.27c4.64,2.16,10.15,.16,12.31-4.48,.11-.23,.21-.47,.3-.71l14.28-38.82c.8-2.1,2.99-3.34,5.2-2.94,6.12,.95,12.13-2.26,14.76-7.87l-37.79-17.59c-2.61,5.62-1.19,12.29,3.49,16.36Zm-9.03,44.92c1.16,.54,1.66,1.92,1.12,3.08s-1.92,1.66-3.08,1.12-1.66-1.92-1.12-3.08,1.92-1.66,3.08-1.12Z"/>
        <path class="cls-13" d="M30.73,184.35l63.99-11.76c1.01-.19,1.68-1.15,1.49-2.16l-10.44-56.79-67.64,12.43,10.44,56.79c.19,1.01,1.15,1.68,2.16,1.49Zm48.43-55.96l5.96,32.42c.19,1.01-.48,1.98-1.49,2.16l-45.95,8.44c-1.01,.19-1.98-.48-2.16-1.49l-5.96-32.42c-.19-1.01,.48-1.98,1.49-2.16l45.95-8.44c1.01-.19,1.98,.48,2.16,1.49Z"/>
        <path class="cls-5" d="M16.48,117.05l67.64-12.43,1.66,9.02-67.64,12.43-1.66-9.02Z"/>
        <path class="cls-13" d="M16.28,107.77l64.72-11.89c.81-.15,1.58,.39,1.73,1.19l1.39,7.56-67.64,12.43-1.39-7.56c-.15-.81,.39-1.58,1.19-1.73Z"/>
        <path class="cls-7" d="M85.45,162.65l-6.63-36.07-49.6,9.11,6.63,36.07,49.6-9.11Zm-29.77-22.5s8.15,6.29,8.83,10.03-1.79,7.32-5.52,8.01-7.32-1.79-8.01-5.52,4.69-12.52,4.69-12.52Z"/>
        <path class="cls-8" d="M81.03,95.85c3.8,13.55-7.65,27.3-25.71,30.8-18.18,3.52-36.16-4.68-40.18-18.3-.03-.1-.05-.19-.08-.29"/>
      </g>
    </g>
    <circle class="cls-16" cx="230.47" cy="140.04" r="23.97"/>
    <circle class="cls-16" cx="136.63" cy="293.19" r="38.24"/>
    <circle class="cls-15" cx="633.01" cy="510.7" r="23.97"/>
    <circle class="cls-17" cx="844.31" cy="314.66" r="49.22"/>
    <circle class="cls-17" cx="917.14" cy="237.84" r="24.61"/>
  </g>
</svg>