<?xml version="1.0" encoding="UTF-8"?>
<svg id="_Слой_2" data-name="Слой 2" xmlns="http://www.w3.org/2000/svg" viewBox="0 0 1353.82 914.52">
  <defs>
    <style>
      .cls-1, .cls-2, .cls-3, .cls-4, .cls-5 {
        opacity: .72;
      }

      .cls-2, .cls-6, .cls-7 {
        fill: #c43e0b;
      }

      .cls-8, .cls-3 {
        fill: #ee510c;
      }

      .cls-9 {
        fill: none;
        stroke: #99574a;
        stroke-miterlimit: 10;
        stroke-width: 3px;
      }

      .cls-10, .cls-5 {
        fill: #cf654b;
      }

      .cls-4, .cls-11 {
        fill: #6b2408;
      }

      .cls-6 {
        opacity: .84;
      }

      .cls-12 {
        fill: #c6c6c6;
      }

      .cls-13 {
        fill: #c4572e;
      }
    </style>
  </defs>
  <g id="Layer_1" data-name="Layer 1">
    <circle class="cls-12" cx="153.01" cy="642.9" r="52.78" transform="translate(-507.85 644.11) rotate(-76.72)"/>
    <circle class="cls-12" cx="456.13" cy="810.23" r="35.33" transform="translate(-357.84 360.81) rotate(-31.72)"/>
    <circle class="cls-12" cx="1329.21" cy="867.87" r="24.61" transform="translate(259.63 2040.9) rotate(-80.78)"/>
    <circle class="cls-12" cx="127.47" cy="127.47" r="127.47"/>
    <circle class="cls-12" cx="210.83" cy="343.14" r="57.15" transform="translate(-186.87 406.61) rotate(-67.5)"/>
    <circle class="cls-12" cx="297.74" cy="205.94" r="27.81" transform="translate(14.36 431.23) rotate(-73.15)"/>
    <circle class="cls-12" cx="1113.37" cy="725.55" r="188.97" transform="translate(-186.94 999.78) rotate(-45)"/>
    <circle class="cls-12" cx="613.64" cy="376.54" r="273.1"/>
    <g>
      <polygon class="cls-5" points="168.67 214.1 65.36 214.1 73.12 72.63 168.67 214.1"/>
      <path class="cls-6" d="M181.83,72.63H73.12s95.55,141.47,95.55,141.47h20.92l-7.76-141.47Zm-32.35,9.65c-1.25,0-2.27-1.02-2.27-2.27s1.02-2.27,2.27-2.27,2.27,1.02,2.27,2.27-1.02,2.27-2.27,2.27Zm-44,0c-1.25,0-2.27-1.02-2.27-2.27s1.02-2.27,2.27-2.27,2.27,1.02,2.27,2.27-1.02,2.27-2.27,2.27Z"/>
      <g>
        <g class="cls-1">
          <path class="cls-11" d="M105.47,76.47c-1.95,0-3.54,1.59-3.54,3.54s1.59,3.54,3.54,3.54,3.54-1.59,3.54-3.54-1.59-3.54-3.54-3.54Zm0,5.81c-1.25,0-2.27-1.02-2.27-2.27s1.02-2.27,2.27-2.27,2.27,1.02,2.27,2.27-1.02,2.27-2.27,2.27Z"/>
        </g>
        <g class="cls-1">
          <path class="cls-11" d="M149.47,76.47c-1.95,0-3.54,1.59-3.54,3.54s1.59,3.54,3.54,3.54,3.54-1.59,3.54-3.54-1.59-3.54-3.54-3.54Zm0,5.81c-1.25,0-2.27-1.02-2.27-2.27s1.02-2.27,2.27-2.27,2.27,1.02,2.27,2.27-1.02,2.27-2.27,2.27Z"/>
        </g>
      </g>
      <path class="cls-9" d="M105.47,80.01c-.59-2.69-1.36-6.77-1.86-11.76-1.36-13.62-2.16-21.6,2.48-28.47,6.74-9.98,20.13-10.45,20.71-10.46,8.98-.18,18.48,4.19,22.76,11.76,2.83,5.01,2.28,12.04,1.19,26.1-.43,5.48-1.03,10.04-1.51,13.26"/>
    </g>
    <g class="cls-1">
      <path class="cls-8" d="M1264.08,717.73l-16.64-37.22c-2.07-4.62-6.66-7.6-11.72-7.6h-49.97c-4.42,0-8.01,3.58-8.01,8v102.77h78.4c5.17,0,9.36-4.2,9.36-9.36v-49.98c0-2.28-.48-4.53-1.41-6.61Zm-9.53,21.42c1.74,0,3.14,1.41,3.14,3.14v10.23c0,1.74-1.41,3.14-3.14,3.14h-4.02c-2.49,0-4.51-2.02-4.51-4.51v-7.5h0c0-2.5,2.02-4.51,4.51-4.51h4.02Zm-61.68-46.49c0-3.53,2.86-6.39,6.39-6.39h31.32c3.14,0,5.99,1.86,7.24,4.74l9.14,20.92c1.66,3.79-1.12,8.05-5.26,8.05h-42.44c-3.53,0-6.39-2.86-6.39-6.39v-20.93Z"/>
      <path class="cls-7" d="M984.89,768.08h192.84v15.6h-192.84v-15.6Z"/>
      <path class="cls-11" d="M1265.49,774.32v-6.24h-87.76v15.6h78.4c5.17,0,9.36-4.19,9.36-9.36h0Z"/>
      <path class="cls-8" d="M1208.86,742.45h-31.13v41.23h59.7v-12.67c0-15.78-12.79-28.56-28.57-28.56h0Z"/>
      <path class="cls-10" d="M961.25,642.9h208.68v117.37h-208.68v-117.37Z"/>
      <path class="cls-7" d="M1127.72,760.28h42.21v-117.37h-159.58l117.37,117.37Z"/>
      <ellipse class="cls-11" cx="1206.02" cy="784.12" rx="23.89" ry="24.08"/>
      <ellipse class="cls-7" cx="1206.02" cy="784.12" rx="9.35" ry="9.43"/>
      <ellipse class="cls-11" cx="1101.25" cy="784.12" rx="23.89" ry="24.08"/>
      <ellipse class="cls-7" cx="1101.25" cy="784.12" rx="9.35" ry="9.43"/>
      <ellipse class="cls-11" cx="1029.94" cy="784.12" rx="23.89" ry="24.08"/>
      <ellipse class="cls-7" cx="1029.94" cy="784.12" rx="9.35" ry="9.43"/>
      <path class="cls-11" d="M976.86,662.59v15.6h177.47v-15.6h-177.47Zm0,31.2v15.6h177.47v-15.6h-177.47Zm0,31.21v15.6h177.47v-15.6h-177.47Z"/>
    </g>
    <path class="cls-13" d="M602.4,548.9c-3.49,0-6.72-1.85-8.49-4.86-36.8-62.7-134.88-196.15-135.86-197.49-2.9-3.94-2.47-9.4,1.01-12.84l30.15-29.79c3.38-3.34,8.66-3.79,12.56-1.07l98.59,68.84c65.54-84.2,126.45-142.31,166.49-176.55,44.87-38.38,73.4-55.63,74.6-56.35,1.53-.92,3.28-1.4,5.07-1.4h48.77c5.44,0,9.85,4.41,9.85,9.84,0,2.81-1.2,5.49-3.3,7.36-72.3,64.39-147.47,166.71-197.8,241.2-54.71,80.97-92.69,147.47-93.06,148.14-1.74,3.05-4.98,4.95-8.49,4.97h-.07Z"/>
    <circle class="cls-12" cx="814.69" cy="703.13" r="53.3" transform="translate(-56.81 1334.48) rotate(-76.72)"/>
    <circle class="cls-12" cx="1254.91" cy="303.51" r="53.3" transform="translate(671.2 1455.11) rotate(-76.72)"/>
    <g>
      <circle class="cls-12" cx="1125.14" cy="137.39" r="127.47"/>
      <path class="cls-4" d="M1142.55,159.81c-.68-3.1-3.2-5.47-6.34-5.94-8.69-1.37-14.8-9.41-13.83-17.93,.13-1.16,.4-2.29,.79-3.39,1-2.89-.03-6.24-2.52-8.33-5.25-4.54-11.21-8.18-17.64-10.81-2.88-1.22-6.24-.33-8.12,2.18-5.04,6.66-14.52,7.98-21.18,2.94-.11-.08-.22-.17-.33-.25-.97-.78-1.84-1.68-2.59-2.69-1.89-2.5-5.23-3.4-8.11-2.18-5.93,2.42-11.47,5.71-16.42,9.76-2.61,2.12-3.7,5.59-2.64,8.58,2.96,7.86-1.03,17.07-9.16,20.43-1.45,.6-2.97,1-4.53,1.17-3.26,.39-5.92,2.77-6.67,5.96-1.49,6.61-1.62,13.44-.39,20.1,.65,3.3,3.36,5.79,6.69,6.17,8.7,.91,15.16,8.6,14.61,17.15-.11,1.72-.52,3.41-1.2,5-1.28,2.97-.29,6.57,2.37,8.76,5.22,4.46,11.12,8.06,17.48,10.66,.79,.3,1.62,.47,2.47,.51,2.33,.04,4.52-1.11,5.8-3.05,4.61-6.94,13.98-8.82,20.91-4.2,1.52,1.01,2.85,2.29,3.91,3.78,1.89,2.69,5.43,3.64,8.42,2.27,5.82-2.58,11.23-5.98,16.06-10.12,2.53-2.14,3.56-5.56,2.48-8.49-3.06-7.82,.84-17.06,8.93-20.5,1.37-.58,2.81-.98,4.28-1.18,3.21-.47,5.78-2.88,6.45-6.05,.7-3.25,1.08-6.56,1.13-9.87,0-3.51-.37-7-1.1-10.42Zm-59.71,30.69c-11.2,0-20.27-9.07-20.28-20.27,0-11.2,9.08-20.27,20.27-20.28,5.59,.03,10.64,2.31,14.31,5.97,3.66,3.67,5.94,8.72,5.97,14.31,0,11.19-9.07,20.27-20.27,20.27Z"/>
      <path class="cls-3" d="M1208.67,176.55c-3.52-3.02-4.06-8.25-1.25-11.93,.38-.48,.81-.92,1.3-1.3,1.27-1.1,1.74-2.87,1.18-4.46-1.11-3.51-2.78-6.81-4.95-9.78-.96-1.35-2.72-1.88-4.27-1.28-4.12,1.6-8.76-.43-10.36-4.55-.03-.08-.06-.15-.08-.23-.22-.62-.36-1.27-.42-1.93-.15-1.65-1.41-2.98-3.05-3.24-3.35-.56-6.76-.62-10.12-.16-1.73,.2-3.16,1.45-3.58,3.14-.85,4.36-5.21,7.41-9.81,6.66-.82-.13-1.61-.38-2.36-.74-1.57-.73-3.44-.4-4.66,.83-2.51,2.56-4.47,5.61-5.76,8.95-.63,1.67-.1,3.54,1.3,4.65,3.65,2.82,4.44,8.01,1.81,11.8-.52,.75-1.18,1.4-1.92,1.92-1.43,1.07-1.99,2.96-1.37,4.63,1.11,3.46,2.77,6.72,4.92,9.66,.27,.35,.6,.67,.97,.91,1.04,.67,2.34,.76,3.46,.24,4.01-1.84,8.76-.08,10.6,3.93,.4,.88,.64,1.82,.71,2.78,.1,1.73,1.43,3.14,3.14,3.36,3.34,.46,6.73,.43,10.06-.09,1.71-.23,3.09-1.49,3.48-3.16,.79-4.37,5.12-7.46,9.73-6.76,.78,.12,1.54,.34,2.26,.67,1.58,.68,3.41,.3,4.6-.94,1.22-1.27,2.31-2.65,3.26-4.13,.97-1.58,1.78-3.25,2.4-5,.56-1.59,.08-3.36-1.21-4.44Zm-19.47-1.84c-3.12,5.05-9.73,6.62-14.78,3.5-5.05-3.11-6.62-9.73-3.5-14.77,3.11-5.05,9.73-6.62,14.77-3.51t0,0c5.02,3.13,6.58,9.72,3.5,14.77Z"/>
      <path class="cls-2" d="M1209.24,77.35c-.56-2.49-2.59-4.39-5.11-4.78v-.02c-7-1.11-11.93-7.58-11.14-14.45,.1-.93,.31-1.85,.63-2.73,.8-2.33-.02-5.03-2.03-6.71-4.24-3.66-9.04-6.6-14.22-8.71-2.33-.99-5.04-.25-6.55,1.77-4.07,5.37-11.71,6.43-17.09,2.36-.08-.07-.17-.13-.25-.2-.78-.63-1.48-1.36-2.08-2.16-1.52-2.01-4.21-2.74-6.54-1.76-4.78,1.94-9.24,4.6-13.22,7.87-2.1,1.71-2.98,4.5-2.13,6.91,2.39,6.33-.83,13.76-7.38,16.46-1.17,.48-2.4,.8-3.65,.94-2.62,.31-4.76,2.21-5.37,4.77-1.2,5.33-1.31,10.84-.32,16.2,.53,2.65,2.71,4.66,5.41,4.97,7,.74,12.21,6.94,11.75,13.83-.08,1.39-.41,2.76-.95,4.04-1.03,2.4-.23,5.3,1.91,7.07,4.21,3.59,8.96,6.49,14.09,8.58,.63,.25,1.31,.39,1.99,.41,1.88,.04,3.64-.89,4.67-2.45,3.72-5.59,11.27-7.11,16.85-3.39,1.23,.82,2.3,1.85,3.15,3.05,1.52,2.15,4.36,2.92,6.76,1.84,4.69-2.08,9.05-4.83,12.95-8.16,2.04-1.72,2.86-4.48,2-6.84-2.47-6.3,.67-13.75,7.19-16.53,1.11-.47,2.27-.79,3.45-.95,2.59-.37,4.66-2.32,5.21-4.88,.56-2.62,.86-5.28,.91-7.97,0-2.82-.3-5.63-.88-8.38Zm-48.13,24.72c-9.02,0-16.34-7.32-16.34-16.34s7.32-16.34,16.34-16.34c4.5,.02,8.58,1.85,11.53,4.81,2.95,2.96,4.78,7.03,4.81,11.53,0,9.02-7.32,16.34-16.34,16.34Z"/>
    </g>
    <circle class="cls-12" cx="984.89" cy="473.27" r="30.53" transform="translate(297.99 1323.08) rotate(-76.72)"/>
    <circle class="cls-12" cx="911.34" cy="54.87" r="24.61" transform="translate(711.2 945.66) rotate(-80.78)"/>
    <circle class="cls-12" cx="322.35" cy="649.64" r="24.61" transform="translate(-370.54 863.77) rotate(-80.78)"/>
  </g>
</svg>