<?xml version="1.0" encoding="UTF-8"?>
<svg id="_Слой_2" data-name="Слой 2" xmlns="http://www.w3.org/2000/svg" viewBox="0 0 44.18 44.34">
  <defs>
    <style>
      .cls-1 {
        stroke: #000;
        stroke-miterlimit: 10;
        stroke-width: 2px;
      }
    </style>
  </defs>
  <g id="_Слой_1-2" data-name="Слой 1">
    <path class="cls-1" d="M10.02,1c1.35,.26,2.33,1.11,3.25,2.06,1.63,1.68,3.33,3.3,4.92,5.02,1.5,1.61,1.49,3.79,.01,5.43-1.02,1.13-2.13,2.19-3.22,3.26-.22,.22-.27,.37-.13,.66,1.09,2.28,2.67,4.2,4.37,6.03,1.74,1.87,3.66,3.55,5.82,4.93,.59,.38,1.23,.68,1.83,1.04,.21,.12,.33,.08,.49-.08,.92-.93,1.82-1.88,2.78-2.77,.52-.48,1.1-.95,1.74-1.23,1.64-.72,3.15-.32,4.4,.9,1.82,1.76,3.58,3.59,5.39,5.36,1.87,1.84,2.03,4.28,.29,6.15-1.28,1.38-2.59,2.75-3.99,4.02-1.49,1.35-3.36,1.69-5.33,1.53-3.09-.25-5.91-1.34-8.65-2.7-4.06-2.02-7.75-4.59-10.99-7.76C8.14,28.07,4.21,22.66,1.97,16.15c-.62-1.81-1.01-3.66-.97-5.59,.04-1.87,.66-3.5,1.98-4.85,1.09-1.11,2.19-2.21,3.3-3.3,.74-.73,1.63-1.2,2.66-1.41h1.08Zm23.36,40.21c1.29,.03,2.48-.29,3.42-1.2,1.24-1.2,2.44-2.43,3.61-3.7,.87-.95,.86-1.99-.04-2.92-1.85-1.91-3.74-3.78-5.64-5.64-.74-.73-1.68-.74-2.52-.13-.21,.15-.4,.34-.59,.52-1.03,1.02-2.05,2.05-3.07,3.07-.69,.68-1.41,.8-2.26,.37-.6-.31-1.2-.62-1.78-.96-2.61-1.56-4.89-3.53-6.95-5.75-1.91-2.06-3.64-4.24-4.81-6.83-.51-1.13-.39-1.74,.49-2.59,1.01-.98,2.02-1.95,3.01-2.96,1.15-1.18,1.15-2.14,.02-3.34-.02-.02-.04-.04-.06-.06-1.7-1.7-3.39-3.4-5.09-5.08-.27-.27-.58-.52-.92-.68-.94-.44-1.72-.05-2.39,.6-1.09,1.06-2.18,2.11-3.21,3.22-.45,.48-.84,1.07-1.09,1.68-.57,1.37-.42,2.82-.13,4.23,.54,2.7,1.58,5.22,2.93,7.6,4.82,8.5,11.56,14.93,20.55,18.91,2.08,.92,4.24,1.55,6.53,1.64Z"/>
  </g>
</svg>