<?xml version="1.0" encoding="UTF-8"?>
<svg id="_Слой_2" data-name="Слой 2" xmlns="http://www.w3.org/2000/svg" viewBox="0 0 390.64 274.64">
  <defs>
    <style>
      .cls-1 {
        fill: #fff;
      }

      .cls-2 {
        fill: #3a3a3a;
      }
    </style>
  </defs>
  <g id="_Слой_2-2" data-name="Слой 2">
    <rect class="cls-2" width="390.64" height="274.64"/>
    <path class="cls-1" d="M266.79,92.13c-5.6-6.65-15.93-9.37-35.66-9.37h-71.63c-20.18,0-30.69,2.89-36.27,9.97-5.44,6.91-5.44,17.08-5.44,31.16v26.84c0,27.28,6.45,41.13,41.7,41.13h71.63c17.11,0,26.59-2.39,32.73-8.27,6.29-6.02,8.97-15.85,8.97-32.87v-26.84c0-14.85-.42-25.08-6.04-31.77h0Zm-49.46,48.89l-32.53,17c-2.45,1.28-5.47,.33-6.75-2.11-.37-.72-.57-1.51-.57-2.32v-33.89c0-2.76,2.24-5,5-5,.8,0,1.59,.19,2.3,.56l32.53,16.89c2.45,1.27,3.41,4.29,2.13,6.74-.47,.91-1.21,1.65-2.12,2.13h0Z"/>
  </g>
</svg>