<?xml version="1.0" encoding="UTF-8"?>
<svg id="_Слой_2" data-name="Слой 2" xmlns="http://www.w3.org/2000/svg" viewBox="0 0 62.83 62.85">
  <g id="_Слой_1-2" data-name="Слой 1">
    <path d="M50.22,50.17c3.46,0,6.32,2.82,6.35,6.26,.04,3.45-2.94,6.43-6.4,6.42-3.45-.02-6.29-2.93-6.27-6.43,.01-3.49,2.81-6.25,6.32-6.25Z"/>
    <path d="M18.92,47.17c-4.94-.04-7.93-5.23-5.52-9.55,1.29-2.3,2.54-4.63,3.85-6.92,.3-.53,.12-.93-.09-1.37-1.34-2.83-2.68-5.66-4.03-8.48-2.16-4.55-4.34-9.09-6.49-13.65-.25-.53-.55-.72-1.12-.71-1.54,.03-3.08,0-4.62,.02-.64,.01-.93-.17-.91-.87C.04,4.02,.03,2.4,0,.79,0,.22,.21,0,.78,0,3.76,.01,6.75,.01,9.73,0c.49,0,.75,.22,.95,.64,.73,1.6,1.52,3.18,2.23,4.79,.29,.66,.67,.88,1.39,.88,14.97-.02,29.95-.01,44.92-.02,.97,0,1.84,.18,2.57,.86,1.16,1.09,1.38,2.6,.56,4.09-1.59,2.9-3.19,5.78-4.78,8.67-1.97,3.58-4.01,7.12-5.91,10.73-1.45,2.77-3.64,4.06-6.74,4.04-7.17-.04-14.34,0-21.51-.03-.77,0-1.2,.24-1.55,.91-.87,1.69-1.81,3.35-2.82,5.2h1.1c11.77,0,23.54,0,35.3,0q1.15,0,1.15,1.12c0,1.42,0,2.84,0,4.26,0,.99-.03,1.02-1.04,1.02M16.45,12.73c.13,.32,.21,.54,.31,.76,2.24,4.73,4.48,9.46,6.7,14.19,.23,.48,.59,.51,1.02,.51,6.8,0,13.6,0,20.4,0,.53,0,.86-.16,1.11-.64,2.61-4.76,5.24-9.51,7.86-14.26,.09-.16,.13-.34,.21-.57H16.45Z"/>
    <path d="M18.89,50.17c3.55,0,6.31,2.77,6.31,6.34,0,3.46-2.86,6.34-6.29,6.34-3.44,0-6.3-2.86-6.31-6.32,0-3.56,2.76-6.36,6.29-6.36Z"/>
  </g>
</svg>