<?xml version="1.0" encoding="UTF-8"?>
<svg id="_Слой_2" data-name="Слой 2" xmlns="http://www.w3.org/2000/svg" viewBox="0 0 20.59 19.66">
  <defs>
    <style>
      .cls-1 {
        fill: #cc9315;
      }
    </style>
  </defs>
  <g id="_Слой_3" data-name="Слой 3">
    <path class="cls-1" d="M15.82,19.57l-5.16-2.71c-.23-.12-.5-.12-.72,0l-5.16,2.71c-.57,.3-1.24-.18-1.13-.82l.98-5.74c.04-.25-.04-.51-.22-.69L.24,8.25c-.46-.45-.21-1.23,.43-1.33l5.77-.84c.25-.04,.47-.2,.59-.43L9.6,.43c.29-.58,1.11-.58,1.4,0l2.58,5.22c.11,.23,.33,.39,.59,.43l5.77,.84c.64,.09,.89,.88,.43,1.33l-4.17,4.07c-.18,.18-.27,.44-.22,.69l.98,5.74c.11,.64-.56,1.12-1.13,.82Z"/>
  </g>
</svg>