<?xml version="1.0" encoding="UTF-8"?>
<svg id="_Слой_2" data-name="Слой 2" xmlns="http://www.w3.org/2000/svg" viewBox="0 0 122.13 117.05">
  <g id="Layer_1" data-name="Layer 1">
    <g>
      <path d="M105.6,2.88c-.78-.46-1.76-.45-2.54,0-.79,.46-1.27,1.29-1.27,2.2V22.9c0,4.21-3.42,7.63-7.63,7.63H58.52c-1.4,0-2.54,1.14-2.54,2.54,0,2.73,.34,5.46,1.01,8.11L3.91,94.28c-2.52,2.52-3.91,5.87-3.91,9.43,0,7.35,5.98,13.34,13.33,13.34,3.56,0,6.91-1.38,9.43-3.91l40.28-40.28c4.33-4.33,10.08-6.71,16.19-6.71h9.82c18.24,0,33.08-14.84,33.08-33.08,0-12.33-6.64-24.46-16.54-30.19ZM15.27,106.87c-2.8,0-5.09-2.28-5.09-5.09s2.28-5.09,5.09-5.09,5.09,2.28,5.09,5.09-2.28,5.09-5.09,5.09ZM81.16,44.4l-5.09,10.18c-.43,.86-1.32,1.41-2.28,1.4-.38,0-.77-.09-1.13-.27-1.26-.63-1.77-2.16-1.14-3.41l5.09-10.18c.63-1.26,2.16-1.77,3.41-1.14,1.26,.63,1.77,2.16,1.14,3.42h0Zm10.18,0l-5.09,10.18c-.43,.86-1.32,1.41-2.28,1.4-.38,0-.77-.09-1.13-.27-1.26-.63-1.77-2.16-1.14-3.41l5.09-10.18c.63-1.26,2.16-1.77,3.41-1.14,1.26,.63,1.77,2.16,1.14,3.42h0Zm10.18,0l-5.09,10.18c-.43,.86-1.32,1.41-2.28,1.4-.38,0-.77-.09-1.13-.27-1.26-.63-1.77-2.16-1.14-3.41l5.09-10.18c.63-1.26,2.16-1.77,3.41-1.14,1.26,.63,1.77,2.16,1.14,3.42h0Z"/>
      <path d="M60.19,25.44h18.69c1.4,0,2.54-1.14,2.54-2.54V2.54c0-.83-.4-1.6-1.07-2.08-.68-.47-1.54-.6-2.32-.32-9.29,3.29-16.86,11.5-20.26,21.97-.25,.77-.12,1.62,.36,2.28,.48,.66,1.24,1.05,2.06,1.05h0Z"/>
    </g>
  </g>
</svg>